<svg xmlns="http://www.w3.org/2000/svg" viewBox="0 0 758.16 241.39"><style>.st0{fill:#1e1e1c}</style><path class="st0" d="M9.39 7.61h24.02v73.54h6.27V1.69H3.06v79.28h6.33zM517.15 42.55h25.93l-.02 38.5h6.21V1.52h-6.21l.02 35.11h-25.93l-.02-34.94h-6.29v79.36h6.29z"/><path fill="#1d1e1c" d="M475.21 121.45h32.68v117.38h12.21V121.45h34.5v-.2h.11v-10.28h-79.5z"/><path fill="none" stroke="#fff" stroke-width="2" stroke-miterlimit="10" d="M475.21 121.45h32.68v117.38h12.21V121.45h34.5v-.2h.11v-10.28h-79.5z"/><path d="M414.95 37.22V1.52h-6.74v35.7h3.89zM412.1 43.51h-3.89v37.54h6.75V43.51z"/><path d="M412.1 37.22h2.86v6.29h-2.86z"/><path d="M424.54 45.35c-2.4-2.14-7.76-1.99-7.76-1.99h-2.29v-5.92h3.12s4.1.18 6.4-2.04c1.56-1.5 2.8-4.31 2.8-4.31l11.45-29.58h6.68s-11.6 29.55-12.43 31.38c-2.77 6.08-5.83 7.3-5.83 7.3s4.29 1.81 6.59 6.98c1.12 2.53 13.45 33.87 13.45 33.87h-6.83l-12.46-31.33c0 .01-.97-2.65-2.89-4.36M398.38 45.44c2.8-2.51 7.83-2.08 7.83-2.08h2v-5.92h-2.83s-3.84.24-6.27-1.98c-1.6-1.46-2.93-4.37-2.93-4.37L384.73 1.51h-6.68s11.43 29.4 12.27 31.24c2.77 6.08 5.99 7.45 5.99 7.45s-4.29 1.81-6.59 6.98c-1.12 2.53-13.45 33.87-13.45 33.87h6.83l12.46-31.33c0-.01 1.04-2.7 2.82-4.28M408.22 37.22h3.88v6.29h-3.88zM621.06 37.22V1.52h-5.99v35.7h3.13zM618.2 43.51h-3.13v37.54h5.99V43.51z"/><path d="M618.2 37.22h2.86v6.29h-2.86z"/><path d="M630.65 45.35c-2.4-2.14-7.76-1.99-7.76-1.99h-2.29v-5.92h3.12s4.1.18 6.4-2.04c1.56-1.5 2.8-4.31 2.8-4.31l11.45-29.58h6.68s-11.6 29.55-12.43 31.38c-2.77 6.08-5.83 7.3-5.83 7.3s4.29 1.81 6.59 6.98c1.12 2.53 13.45 33.87 13.45 33.87H646l-12.46-31.33c0 .01-.98-2.65-2.89-4.36M615.07 37.22h3.13v6.29h-3.13z"/><g><path d="M604.67 74.05l-4.28-3.8c-3.55 4.09-7.42 6.15-12.47 6.15-5.99 0-15.46-3.54-15.46-35.36 0-30.49 8.23-35.27 14.43-35.27 3.81 0 6.17.79 10.7 4.4l3.65-4.22C595.95.98 591.29.1 587.03.1c-.22 0-.44.01-.6.02-13.52 0-20.71 12.49-20.71 40.93 0 27.4 7.2 41.42 21.86 41.42 5.81-.02 13.02-2.95 17.09-8.42zM200.68 41.84V40c0-6.29 0-15.8-2.22-23.81C194.78 2.9 186.67.11 180.52.11c-20.15 0-20.15 28.73-20.15 41 0 6.31 0 16.59 2.23 24.81 3.71 13.65 11.85 16.51 18.03 16.51 4.76 0 8.77-1.6 11.91-4.77 8.18-8.22 8.15-25.77 8.14-35.82zm-12.89 32.64c-1.87 1.88-4.21 2.79-7.16 2.79-5.66 0-9.43-4.58-11.55-12.35-1.99-7.34-1.99-17.95-1.99-23.97 0-16.86 1.6-35.83 13.43-35.83 3.9 0 8.73 2.07 11.46 11.95 1.97 7.13 1.97 17 1.97 22.95v1.83c.02 9 .05 26.38-6.16 32.63zM695.15 77.42c8.17-8.19 8.15-25.67 8.14-35.68V39.9c0-6.27 0-15.73-2.22-23.71C697.39 2.95 689.28.17 683.13.17c-20.15 0-20.15 28.62-20.15 40.84 0 6.28 0 16.52 2.23 24.71 3.71 13.6 11.85 16.45 18.03 16.45 4.76 0 8.77-1.6 11.91-4.75zm-23.46-12.7c-1.99-7.31-1.99-17.88-1.99-23.87 0-16.8 1.6-35.69 13.43-35.69 3.9 0 8.73 2.07 11.46 11.9 1.97 7.1 1.97 16.93 1.97 22.86v1.82c.01 8.96.04 26.28-6.17 32.5-1.87 1.87-4.21 2.78-7.16 2.78-5.65.01-9.43-4.56-11.54-12.3zM623.67 170.08l8.13-3.65c6.09-5.2 11.62-13.33 11.62-21.84 0-21.07-14.32-33.65-40.79-33.65l-23.56-.02v126.82s5.83 1.24 23.08 1.24h5.38c26.25 0 44.1-14.24 44.1-37.17 0-14.89-11.74-27.38-27.96-31.73zm-32.32-49.55h11.28c23.24 0 28.58 13.38 28.58 23.16 0 15.7-12.88 22.21-27.51 22.21h-12.35v-45.37zm17.08 107.86h-8.79c-7.73 0-8.29-.36-8.29-.36v-51.77l6.49.01c31.63 0 40.69 12.58 40.69 26.44 0 11.31-7.82 25.68-30.1 25.68zM287.71 121.45h34.56v117.38h12.21V121.45h34.51v-.2h.11v-10.28h-81.39zM424.47 230.8c-12.03 0-29.15-6.58-29.15-57.37 0-48.29 16.09-55.06 28.07-55.07 5.94 0 12.14.81 20.88 8.82l6.65-7.74c-7.51-7.15-15.5-11.15-26.83-11.15-.39 0-.76.01-1.04.02-25.59 0-40.3 20.09-40.3 65.13 0 46.36 16.07 67.95 41.73 67.95 13.28 0 25.07-6.65 32.73-15.5l-7.44-7.44c-7.38 8.06-16.19 12.35-25.3 12.35zM717.84 60c0 13.56 8.8 22.33 22.41 22.33 5.61 0 13.12-2.43 17.91-7.58l-4.17-4.34c-3.22 3.54-7.94 5.88-13.44 5.88-9.82 0-15.98-6.52-15.98-16.29 0-11.17 9.23-17.2 17.91-17.2h.88v-5.98h-.88c-7.39 0-15.25-6.76-15.25-16.53 0-7.03 5.37-15.05 13.92-15.05 4.55 0 7.45 1.55 9.54 2.84l3.7-3.82C750.38 1.03 745.47 0 741.08 0c-12.41 0-20.57 10.54-20.57 20.29 0 7.2 3.23 13.08 8.67 17.15.39.29 3.44 1.6 3.86 1.86-9.21 3.04-15.2 11.8-15.2 20.7zM482.04 76.3c-9.82 0-15.98-6.52-15.98-16.29 0-11.17 9.23-17.2 17.91-17.2h.88v-5.98h-.88c-7.39 0-15.25-6.76-15.25-16.53 0-7.03 5.37-15.05 13.92-15.05 4.55 0 7.45 1.55 9.54 2.84l3.7-3.82c-4.01-3.23-8.92-4.26-13.31-4.26-12.41 0-20.56 10.54-20.56 20.29 0 7.2 3.23 13.08 8.67 17.15.39.29 3.44 1.6 3.86 1.86-9.2 3.02-15.19 11.78-15.19 20.68 0 13.56 8.79 22.33 22.41 22.33 5.61 0 13.12-2.43 17.91-7.58l-4.17-4.34c-3.24 3.55-7.96 5.9-13.46 5.9zM112.58 60c0 13.56 8.8 22.33 22.41 22.33 5.61 0 13.12-2.43 17.91-7.58l-4.17-4.34c-3.22 3.54-7.94 5.88-13.44 5.88-9.82 0-15.98-6.52-15.98-16.29 0-11.17 9.23-17.2 17.91-17.2h.88v-5.98h-.88c-7.39 0-15.25-6.76-15.25-16.53 0-7.03 5.37-15.05 13.92-15.05 4.55 0 7.45 1.55 9.54 2.84l3.7-3.82C145.12 1.03 140.21 0 135.82 0c-12.41 0-20.57 10.54-20.57 20.29 0 7.2 3.23 13.08 8.67 17.15.39.29 3.44 1.6 3.86 1.86-9.21 3.04-15.2 11.8-15.2 20.7zM230.78 81.1c18.49 0 26.6-8.28 26.6-22.73 0-11.93-6.69-22.18-23.9-22.18h-8.36l-.05.34-.01-29.6 26.69.04V1.5h-33v79.4h2.13c2.11.12 3.4.2 9.9.2zm-5.69-5.83h.04V41.81c5.43 0 4.89-.06 8.01-.06 11.44 0 17.53 6.66 17.53 16.64 0 11.44-7.23 17.12-20.06 17.12-5.74 0-5.07-.08-5.52-.14v-.1zM31.43 166.76H13.09l-.01-44.5h52l.04-11.34H.87v127.77H0c.24.01.54.02.87.04v.27l8.18-.11c5.39.07 12.15.11 18.02.11 29.74 0 44.09-13.32 44.09-36.56 0-19.21-12.06-35.68-39.73-35.68zm-5.52 61.92c-4.63 0-9.25-.03-12.81-.07l-.01-51.55c6.68-.03 13.05-.09 16.88-.09 18.4 0 29.31 9.41 29.31 25.46.01 18.41-12.74 26.25-33.37 26.25zM312.97 24.42c0-14.44-8.7-22.91-27.18-22.91-2.27 0-3.43.02-5.13.05v-.05l-3.31.12c-2.21.06-2.91.12-2.91.12V81.1h6.22V45.39l.01.06.05.34h8.36c17.2 0 23.89-9.43 23.89-21.37zm-32.25 15.77V7.53s-.02 0-.04-.01v-.08c.45-.06-.21-.14 5.52-.14 12.83 0 20.06 5.68 20.06 17.12 0 9.98-6.09 15.83-17.53 15.83-3.13 0-2.58-.06-8.01-.06zM72.25 1.52c-2.27 0-3.43.02-5.13.05v-.05l-3.31.12c-2.21.06-3.02.12-3.02.12v79.35h6.33l.06-35.31h8.36c17.2 0 23.89-9.44 23.89-21.37 0-14.45-8.7-22.91-27.18-22.91zm2.94 38.73c-3.12 0-2.58-.06-8.01-.06V8.33s-.02 0-.04-.01v-.89c.45-.06-.21-.14 5.52-.14 12.83 0 20.06 5.68 20.06 17.12 0 9.99-6.09 15.84-17.53 15.84zM126.37 110.97h-11.19v-.05h-12.26l.05 127.91h12.21V183.2h14.72c28.54 0 42.2-16.41 42.2-35.53.01-23.15-16.09-36.7-45.73-36.7zm2.98 62.06c-3.47 0-8.51-.05-14.17-.08v-51.37c3.49-.04 7.72-.06 11.85-.06 20.56 0 33.02 7.81 33.02 26.14.01 15.99-12.36 25.37-30.7 25.37zM716.32 108.28c-28.63 0-41.64 23.27-41.64 66.36 0 42.49 13 66.73 41.64 66.73 30.47 0 41.64-24.97 41.64-66.73 0-41.63-12.26-66.36-41.64-66.36zm0 123.2c-21.75 0-29.4-24.5-29.4-56.84 0-29.31 6.21-57.37 29.4-57.37 21.4 0 29.24 22.26 29.24 57.37 0 35.24-6.75 56.84-29.24 56.84zM249.38 111.57c-13.46-7.2-35.01-2.52-48.19 6.49l6.61 8.78c10.26-7.01 24.94-12.15 35.28-6.7 7.04 3.71 10.31 13.12 10.31 24.83v20.87h-19.28c-24.88 0-40.06 13.14-40.06 36.04 0 23.48 14.45 36.94 44.55 36.94h6.73c5.81 0 19.77-1.09 19.77-1.09v-92.76c.02-20.43-7.61-28.73-15.72-33.4zm4.02 116.68s-5.01.14-9.83.14c-3.74 0-.06.01-8.55.01-17.99 0-28.74-10.11-28.74-26.52 0-15.82 9.96-25.63 27.84-25.63h19.28v52zM347.84 38.26c-15.22 0-25.11 7.95-25.11 21.28 0 13.87 9.66 21.82 25.11 21.82h5.6c2.75 0 7.43-.31 7.43-.31V18.86c0-8.92-2.99-14.29-9.31-17.22-7.67-3.55-18.84-.41-24.63 4.41l3.21 4.82c6.11-4.5 13.36-7.07 18.55-4.66 3.93 1.82 5.88 6.36 5.88 11.84v20.21h-6.73zm6.74 37.17s-1.99.13-6.74.13c-11.72 0-18.39-5.89-18.39-16.02 0-12.82 11.82-15.54 18.39-15.54h6.73l.01 31.43z"/></g></svg>
