<svg xmlns="http://www.w3.org/2000/svg" width="450" height="366.054"><title>background</title><path fill="none" d="M-1-1h1103v368.054H-1z"/><title>Layer 1</title><g fill="#1D5B86"><path d="M440.72 264.545l-2.937 1.504c-42.056 19.08-109.95 41.79-194.783 41.79-55.607 0-93.65-11.52-130.44-22.67-34.54-10.46-67.16-20.33-111.352-20.33v13.02c42.192 0 73.884 9.6 107.438 19.76 37.73 11.42 76.748 23.24 134.354 23.24 85.505 0 154.275-22.44 197.72-41.82v-14.51zm0-190.412c-31.308-8.828-75.807-18.918-118.22-18.918-43.394 0-79.412 9.09-114.246 17.88C173.38 81.898 137.318 91 93.5 91c-36.537 0-74.815-9.07-89.226-12.548-1.158-.28-2.178-.692-3.066-.902V90.6c14.91 3.598 54.23 13.066 92.292 13.066 45.496 0 82.384-9.31 118.058-18.312 35.6-8.984 69.227-17.47 110.942-17.47 42.528 0 87.647 10.656 118.22 19.48V74.13zM25.865 23.318h8.62v42.49h-8.62v-42.49zm53.537 41.155c-1.295.446-2.63.8-4.006 1.063-1.376.264-2.772.455-4.188.577-.486.04-.962.07-1.427.09-.46.02-.92.03-1.36.03-5.99 0-11.17-1.79-15.54-5.37-4.37-3.582-6.55-8.933-6.55-16.056 0-6.717 2.12-12.058 6.35-16.024 4.23-3.965 10.01-5.95 17.33-5.95 1.38 0 2.64.072 3.8.213 1.16.142 2.28.334 3.37.577.37.122.74.233 1.13.334.39.102.76.212 1.12.334l-.36 7.29c-1.37-.56-2.75-.97-4.13-1.21-1.38-.25-2.82-.37-4.32-.37-4.33 0-7.94 1.27-10.83 3.8s-4.34 6.16-4.34 10.9c0 4.86 1.28 8.37 3.83 10.53 2.55 2.17 5.36 3.43 8.44 3.8.41.04.8.07 1.19.09.39.02.76.03 1.13.03 1.66 0 3.16-.15 4.49-.45 1.34-.3 2.49-.65 3.46-1.06.16-.04.32-.09.49-.15.16-.06.31-.13.43-.21l.55 7.22zm24.383-41.155l6.798 11.837 1.942 3.58h.183l1.942-3.58 6.98-11.837h9.408l-12.93 20.274 14.204 22.216h-10.197l-8.134-13.476-1.82-3.278h-.18l-1.82 3.278-8.44 13.476h-9.41l14.21-22.216-12.93-20.274h10.2z"/><path d="M171.596 64.473c-1.296.446-2.632.8-4.007 1.063-1.38.264-2.78.455-4.19.577-.49.04-.96.07-1.43.09-.47.02-.92.03-1.37.03-5.99 0-11.17-1.79-15.54-5.37-4.37-3.582-6.56-8.933-6.56-16.056 0-6.717 2.11-12.058 6.34-16.024 4.23-3.965 10-5.95 17.33-5.95 1.37 0 2.64.072 3.79.213 1.15.142 2.27.334 3.37.577.36.122.73.233 1.12.334.38.102.76.212 1.12.334l-.37 7.29c-1.38-.56-2.76-.97-4.13-1.21-1.38-.24-2.82-.36-4.31-.36-4.33 0-7.94 1.27-10.84 3.8-2.9 2.53-4.34 6.16-4.34 10.9 0 4.86 1.27 8.37 3.82 10.53 2.55 2.17 5.36 3.43 8.43 3.8.4.04.8.07 1.18.09.38.02.76.03 1.12.03 1.66 0 3.15-.15 4.49-.45 1.33-.3 2.48-.65 3.46-1.06.16-.04.32-.09.48-.15.16-.06.3-.13.42-.21l.54 7.22zM151.38 5.423c-.06.118-.132.233-.22.35-.086.116-.188.232-.304.347-1.565 2.262-3.25 4.176-5.046 5.742-1.8 1.566-4.206 2.35-7.22 2.35-1.626 0-3.163-.22-4.612-.654-1.45-.435-2.755-.914-3.915-1.436-.348-.115-.667-.246-.957-.39-.29-.146-.58-.276-.87-.393-.928-.47-1.885-.87-2.87-1.22-.987-.35-1.973-.52-2.96-.52-.52 0-1.086.05-1.695.17-.6.11-1.23.32-1.87.61-.75.34-1.49.81-2.21 1.39-.72.58-1.38 1.3-1.95 2.17l-5.22-3.92c1.51-2.38 3.25-4.44 5.22-6.18 1.97-1.74 4.5-2.61 7.57-2.61.99 0 1.98.08 2.96.26.99.17 1.94.4 2.87.69l1.05.35c.35.11.67.26.96.43 1.11.4 2.08.82 2.92 1.26.84.43 1.67.8 2.48 1.09.47.17.94.3 1.44.39.49.08 1 .13 1.52.13s1.06-.06 1.61-.18 1.12-.29 1.7-.52c.81-.29 1.6-.74 2.35-1.35.75-.61 1.45-1.38 2.09-2.31l5.22 3.92zm-77.795 0c-.06.118-.13.233-.218.35-.087.116-.19.232-.305.347-1.565 2.262-3.25 4.176-5.046 5.742-1.8 1.566-4.206 2.35-7.22 2.35-1.626 0-3.163-.22-4.612-.654-1.45-.435-2.755-.914-3.915-1.436-.35-.115-.67-.246-.96-.39-.29-.146-.58-.276-.87-.393-.93-.47-1.89-.87-2.87-1.22-.99-.35-1.98-.52-2.96-.52-.52 0-1.09.05-1.7.17-.61.11-1.23.32-1.87.61-.76.34-1.5.81-2.22 1.39-.73.58-1.38 1.3-1.96 2.17l-5.22-3.92c1.51-2.38 3.25-4.44 5.22-6.18 1.97-1.74 4.49-2.61 7.57-2.61.98 0 1.97.08 2.96.26.98.17 1.94.4 2.87.69l1.04.35c.35.11.66.26.95.43 1.1.4 2.07.82 2.91 1.26.84.43 1.66.8 2.48 1.09.46.17.94.3 1.43.39.49.08 1 .13 1.52.13s1.06-.06 1.61-.18 1.11-.29 1.69-.52c.81-.29 1.59-.74 2.35-1.35.75-.61 1.44-1.38 2.08-2.31l5.22 3.91z"/><circle cx="100.955" cy="151.506" r="7.455"/><path d="M354.093 203.653c-.65-9.752-3.64-20.122-4.776-22.945 6.632-10.62 8.08-24.35 8.37-28.095.895-11.463-.455-19.25-1.018-20.64 0 0-3.42-.404-8.19-.01-11.99.995-21.09 4.24-31.66 9.245-10.62 5.032-22.98 12.535-30.32 20.185-10.28-1.23-14.27-1.29-20.25-1.21 12.35-19.85 13.85-36.693 13.85-36.693s-2.78-1.474-8.87-3.53c-8.88-3-27-6.5-51.55-6.876-29.39-.45-54.21 5.395-67.15 11.025-5.59-2.31-11.49-4.35-17.7-5.89-12.56-3.11-24.68-3.59-32.77-3.45-18.17.32-30.52 2.99-39.48 5.99-.95.31-7.25 2.85-9.38 4.28-.58.39-.75.67-.75.67s.02.63.47 1.95c.87 2.6 2.47 6.14 4.11 9.33.32.61.35.97.35.97s-.54.33-1.25.69c-2.48 1.25-6.53 3.09-8.12 4.51-.31.28-.85.75-.86.93-.01.21.51 1.75 1.49 3.53 2.56 4.64 5.44 9.62 15.44 19.69 2.24 2.26 8.69 10.9 10.89 13.37.82.92 1.47 1.66 2.03 2.31-16.02-2.38-30.82-3.99-46.72-3.99-13.83 0-24.62 1.2-29.13 1.8v12.85c1.38-.21 13.22-1.93 29.12-1.93 20.04 0 38.61 2.73 60.6 6.35 7.94 2.85 16.36 6.22 23.73 10.06 0 0-.94-1.13 0 0 1.42 8.34 8.73 27.31 12.77 35.89.74 1.57 2.59 5.11 2.59 5.11l4.27 1.55c2.15.78 4.32 1.43 14.06 4.06 12.58 3.39 48.33 7.89 68.27 3.65 1.98-.42 2.65-.9 2.65-.9s-.02-1.13-.25-2.17c-.45-2.01-1.24-5.4-2.92-10.82-.27-.87-1.13-2.55-1.41-3.35 12.12-.29 23.55-1.97 34.33-5.21 5.634 3.64 8.91 5.58 12.65 7.4 5.134 2.51 7.45 3.18 7.97 3.4.32.13.34.14.685.03 11.19-3.47 23.805-10.96 28.445-14.87 0 0-2.37-2.83-5.26-5.66-1.84-1.8-6.56-5.7-9.23-8.01 2.46-1.75 5.45-4.01 8.078-6.22 1.08.61 15.89 8.43 25.41 11.78 11.47 4.03 24.01 6.46 28.895 6.99 1.126.12 4.01.22 4.48.16l.426-.05s.26-.554.46-1.14c.81-2.4 1.87-8.003 2.16-13.19 18.152-1.26 55.58-5.243 86.51-17.444V185.1c-24.84 10.884-59.05 16.604-86.627 18.546zM322.5 151.377c7.503-3.394 16.75-6.064 23.207-6.51.006 3.93-.187 6.762-.664 10.167-18.68 2.514-32.523 9.063-38.928 12.617-1.61-1.41-3.466-2.5-5.447-3.35 5.586-4.63 13.648-9.21 21.832-12.91zm14.614 30.797c.823 1.66 2.198 6.472 2.905 10.128-14.07-.756-21.32-2.074-29.58-3.957.45-1.36.6-2.76.81-4.18 7.2-.17 16.33-.836 25.86-1.99zm-27.576 8.53c8.663 1.984 16.103 3.36 31.017 4.13.858 3.904 1.383 6.812 1.42 10.237-3.428-.31-12.218-1.63-19.145-3.52-7.15-1.95-12.298-4.7-15.492-6.56.832-1.4 1.572-2.83 2.2-4.28zm27.277-11.012c-9.328 1.132-18.406 1.834-25.482 2.016.23-3.167-.13-4.88-.417-5.98.953-.2 23.344-4.93 30.49-5.804-.906 2.972-3.593 8.222-4.59 9.768zm-55.825 26.356c-.156-3.007-2.948-4.215-4.74-4.548 1.194-1.284 2.708-3.417 2.458-6.125 4.292-1.125 7.91.478 8.813 2.692 1.15 2.808-2.24 5.4-6.53 7.98zm-120.052 31.37c2.113 4.258 3.73 7.155 4.934 9.134-3.118-.626-6.79-1.435-10.525-2.353-1.33-2.29-3.165-5.67-4.62-9.24-1.173-2.88-2.76-6.7-3.528-9.1 2.25 1.1 4.66 2.24 7.22 3.42 1.12.51 2.27 1.01 3.42 1.49.71 1.85 2.12 4.68 3.09 6.62zm130.22-54.334c2.592-1.71 3.926-4.342 3.576-7.61 4.266.546 5 3 5.29 3.993.726 2.49-.024 6.68-1.566 7.524 0 0-1.675-4.36-7.3-3.9zm-5.595 10.312c1.73-1.438 3.438-3.813 3.94-7.808 0 0 4.834-1.09 6.34 1.683 2.074 3.82-1.76 9.15-5.676 10.94-.716-3.01-3.042-4.29-4.604-4.81zm-7.646-.355c-.25-.57-1.875-2.79-4.667-3.24 4.417-1.71 6.042-6.87 4.542-9.87 2.958-1.08 9.432 1.02 9.208 6.07-.083 1.88-1.294 7.17-9.083 7.05zm-9.61 21.2c2.693-3.85 1.176-7.96.86-8.91 3.46-1.54 6.794-2.33 8.164-.87 2.42 2.58.61 5.68-9.02 9.79zm-25.904-.22c2.347-.92 3.932-2.74 5-4.58 0 0 7.114-.91 8.746 4.92.76 2.73.17 7.13-10.37 9.28.97-4.24.03-7.59-3.38-9.61zm-13.236 7.08l.258-.17c3.492-2.46 3.806-6.33 3.815-6.41 1.514-.15 9.127.3 9.927 4.16 1.026 4.95-.584 7.72-10.417 8.97.708-3.29-.75-5.58-3.583-6.54zm-65-1.71c2.833-.1 5.084-2.83 5.52-4.91 4.25 1.51 9.626 4.17 7.39 8.14-2.138 3.79-10.077-1.07-12.91-3.22zm-13.417-6.72c3.065-.6 7.125-3.69 7.5-9.13 5.04 1.37 11.625 4.88 8.417 11.45-1.587 3.26-6.924 4.06-15.917-2.31zm131.833-40.61c8.46-1.14 9.727 2.61 9.67 4.6-.077 2.68-2.015 4.82-3.765 5.49-2.196-3.37-4.446-4.08-7.405-4.58 1.834-1.58 1.875-4.29 1.5-5.5zM267.375 189c-1.417-2.5-3.208-3.875-4.875-4.458 1.896-.677 5.21-2.875 6-6.974 0 0 7.042.058 7.777 4.582.257 1.578-1.152 7.1-8.902 6.85zm-8.354 11.55c-.13.01-.28 0-.43.003-.37-5.354-3.83-7.556-5.14-8.483 2.52-1.444 3.94-3.773 4.47-6.396 4.54-.174 7.91 3.03 7.91 7 0 2.06-.94 4.58-2.41 5.97-.93.88-2.07 1.77-4.39 1.906zM248 206.833c.292-4.083-2.124-6.417-4.27-7.808 2.52-1.025 4.27-2.984 5.062-5.617 3.208-.116 7.417 2.498 7.417 7.29 0 5.126-5.92 6.843-8.21 6.135zm-14.737 5.1c-.54-2.01-1.055-3.35-3.055-4.808 3.375-1.458 5.46-4.29 5.917-7.333 0 0 10.188-.27 9.26 7.06-.74 5.84-7.572 5.98-12.122 5.08zm-16.638 4.213c2.125-.813 5.417-3.937 5.333-8.604 2.987.04 9.434.485 8.917 6.604-.187 2.206-1.813 7.125-10.688 6.203-.85-1.82-1.75-3.27-3.562-4.21zm-10.58-9.73c2.626-.592 4.96-2.224 6.16-4.887 8.01.96 7.795 7.05 6.858 9.06-1.453 3.12-4.582 4.57-10.896 3.32.34-2.25-.104-5.71-2.12-7.5zm-15.212 20.792c3.042-2.313 3.742-5.156 3.876-6.958 0-.023-.01.023 0 0 6.04.333 10.35 2.833 8.56 7.026-.39.898-2.44 3.6-12.44-.068zM177.62 215.83c2.818-.31 5.88-3.247 6.616-5.794 5.952 1.047 8.863 5.42 8.084 10.126-.745 4.496-4.007 8.233-13.964 4.79.087-.136 0 0 0 0 2.28-1.69 2.87-6.032-.736-9.122zm-7.404-3.87c-.153-2.002-.278-3.877-2.507-5.96 3.35-.604 6.66-2.708 7.87-7.125 8.31 1.583 6.87 8.785 6.17 10.663-2.01 5.358-7.91 4.35-11.54 2.423zm87.7-28.75c-.266-2.04-1.458-4-2.958-4.96 2.625-1.207 4.626-4.5 2.73-7.852 9.262-1.322 8.81 4.202 8.687 6.123-.28 4.44-5.416 7.15-8.458 6.69zm-8.957 7.415c-.18-1.296-1.05-5.125-4.87-6.69 1.91-1.1 3.49-2.726 4.28-5.143 6.04.042 7.34 2.635 7.25 5.98-.11 3.67-3.57 6.322-6.67 5.853zm-12.88 6.708c-.29-1.5-1.25-3.208-2.8-4.13.52-.186 4.83-2.412 5.51-7.89 3.78-.73 8.49 1.947 7.85 6.52-.32 2.25-2.28 7.208-10.57 5.5zm-14.68 7.813c-.59-1.158-1.21-2.454-2.53-3.396 3.43-.813 6.54-3.875 6.81-8.186 6.68-.606 9.31 3.83 7.68 7.524-.9 2.033-3.81 5.9-11.97 4.058zm-8.74-6.042c.46-2.52-.29-5.646-3-7.815 3.17-.34 4.96-2.34 6.02-4.78 5.27.63 8.31 4.81 7.48 8.11-.61 2.42-3.38 6.75-10.51 4.47zm-13.21 4.188c.23-1.702 0-5.208-2.05-7.378 3.05-.54 5.34-2.54 6.68-4.757 6.89 1.543 6.94 6.424 5.97 9.176-1.42 4.01-6.92 4.882-10.61 2.96zm-14.84 3.916c.16-1.515.16-4.625-1.88-7.313 2.68-.563 6.12-2.625 7.32-5.323 8.74 2.386 7.37 9.465 6.21 11.02-4.29 5.74-10.93 2.335-11.66 1.616zm63.96-30.583c.03-1.992-.52-4.633-2.94-6.008 6.68-1.16 9.44-.275 10 .84 1.86 3.692-2.28 6.585-7.08 5.168zm-9.96 6.21c-.5-1.626-1.63-3.21-3.31-4.168 1.85-.708 4.52-3.792 3.16-7.432 4.04-.076 8.47.772 7.93 6.17-.41 4.037-4.43 6.07-7.79 5.43zm-13.09 8.377c-.92-2.545-2.59-3.786-3.65-4.695 3.98-1.31 5.98-4.176 7.1-6.364 0 0 4.56-1.61 6.71 2.055.74 1.277 1.45 5.23-2.39 8.188-2.03 1.562-3.66.69-7.78.816zm-9.11-7.254c.19-3.25-.42-5.092-1.44-6.563 3.79-.27 5.96-3.48 5.96-6.237 5.38.944 6.63 6.293 5.7 8.55-1.42 3.438-5.61 5.693-10.23 4.25zm-11.65 4.917c.58-1.917.54-4.506-.38-6.625-.85-1.955-2.75-4.167-4.25-4.833 2.08-.042 4.27-.583 6.75-2.417 6.27 2.083 8.23 5.22 7.12 9.638-.63 2.487-3.58 6.38-9.25 4.237zm5.21-21.167c4.97.624 8.79 2.542 8.25 4.875-1 4.275-7.3 2.125-9.84.333 1.01-1.397 1.83-2.958 1.58-5.208zm19.12 9.938c-.21-4.854-3.28-6.604-3.28-6.604 10.53-.948 11.19.166 10.49 3.078-.93 3.877-7.21 3.526-7.21 3.526zm-29.69-14.544c10.78 2.28 7.85 7.22 7.46 8.082-1.46 3.275-5.73 4.692-9.48 3.65.45-3.015-.54-6.417-2.54-8.25 2.46-.084 4.21-1.834 4.55-3.482zm-2.93 15.22c2.69.767 7.91 3.928 5.63 10.857-1.03 3.12-5.18 5.61-11.35 3.11.91-3.29-.25-7.63-2.17-9.5 3.04.08 6.29-1.88 7.88-4.47zm54.74-18.665c-1.97-.04-3.63.072-5.2 0-12.56-.574-22.56 1.55-28.23-.696-3.24-1.28-5.96-2.58-8.37-3.73 6.73-1.21 15.7-2.35 26.09-2.46 7.06-.07 14 .22 20.72.84-1.57 2.36-3.27 4.5-5.02 6.06zm-54.63 3.696c-1.54 2.268-6.03.733-8.7-.864.07-.21 0 0 0 0 .61-1.49.95-4.16.32-6.03 9.37 3.24 8.94 6.06 8.37 6.89zm-9.47 1.2c6.23 2.04 8.81 6.433 7.92 10.636-1.08 5.1-7.04 6.06-10.58 4.35.28-1.69.56-6.96-3.63-10.21 3.12-.94 4.97-2.93 6.28-4.78zm-3.58 17.783c5.84 2.247 5.63 9.08 4.2 11.237-1.69 2.547-6.15 5.447-11.95 2.802.1-2.417-1.09-6.167-3.02-7.917 3.74-.01 8.12-1.94 10.76-6.122zm11.19 35.34c-.12-1.738-.27-4.14-2.77-6.342 3.08-.542 6.12-3.126 7.05-5.538 8.05.308 7.25 7.62 6.08 9.624-1.83 3.107-5.09 3.955-10.36 2.255zm85.7-43.812c.11 3.47-3.94 4-3.94 4-1.89-1.095-3.86-2.156-7.91-2.37.08-2.286-.76-4.13-1.1-4.67 11.36-1.54 12.87 1.162 12.94 3.04zm-22.72-22.617c-7.2-.713-14.66-1.057-22.24-.98-12.33.13-22.71 1.684-29.78 3.126-4.15-2.128-7.27-4.016-10.39-5.973 6.98-1.54 18.05-3.39 31.41-3.53 14.81-.166 26.37 1.24 33.66 2.498-.82 1.617-1.71 3.262-2.67 4.86zm-86.79 6.617c1.5-.313 5.9-2.344 5.28-7.448 3.1.644 6.91 2.677 8.67 5.273 1.12 1.64 1.28 3.84.71 5.83-1 3.44-3.39 4.79-5.26 5.27-2.6.66-4.48.16-6.25-.78-.02-2.81-.97-5.86-3.16-8.16zm2.98 10.67c4.65 1.196 10.47 5.873 7.18 12.442-2.84 5.69-10.48 5.895-14.26 3.44-.08-3.54-1.38-6.255-2.29-7.624 5.25-.46 8.58-4.042 9.36-8.257zm-7.33 18.656c3.44.33 10.7 8.68 4.44 14.52-3.29 3.08-8.28 1.19-12.91-1.5-.31-1.73-1.18-3.23-2.14-4.49 0 0 7.68.26 10.61-8.52zm-18.11 7c6.06 1.03 8.49 8.6 6.12 12.34-3.61 5.71-10.18 5.42-16.79-2.14 4.85-.54 9.48-4.415 10.67-10.19zm54.82 25.88c1.59-.64 2.98-2.11 3.96-3.78.01-.02.08-.004.21-.012 5.92-.39 11.78 2.617 10.44 9.007-.35 1.687-2.03 6.088-12.96 3.8 1.66-1.42 2.6-6.112-1.66-9.007zm17.17 2.9c3.42-.58 9.33-.75 9.79 2.35.2 1.366.21 5.4-12.13 4.37 2.81-2.372 2.42-5.803 2.34-6.72zm38.04-5.06c1.21-3.27-.37-7.94-4.82-9.813 1.87-1.083 3.47-2.603 4.53-5.01 2.87-.707 6.17 0 7.28 1.45 3.38 4.435 1.79 10.706-6.99 13.373zm9.54-14.8c-.79-.98-2.25-1.813-3.75-2.19 2.91-2.29 4.04-5.99 3.71-9.49 7.55-.53 8.63 3.53 8.41 5.04-.45 3.18-4.14 6.26-8.38 6.637zm-6.52-59.046c-7.34-1.3-19.33-2.82-34.82-2.66-15.21.16-27.54 2.51-34.36 4.154-2.17-1.366-4.48-2.81-7.25-4.42l-2.97-1.73c6.34-1.67 20.61-4.82 38.82-5.01 20.08-.22 35.55 2.314 43 4.034-.62 1.61-1.44 3.554-2.41 5.637zm-88.71 5.286c.67.98 1.01 2.5.65 3.66-.44 1.43-3.31 4.4-9.8 1.53.59-3.25.31-7.32-2.56-10.6 7.07 1.41 10.9 4.21 11.72 5.4zm-9.92 7.6c4.07.81 10.18 3.8 8.41 11.85-.94 4.23-5.17 5.3-5.46 5.38-1.24.31-4.37.61-7.75-2.25.31-2.34-.88-7.27-4.68-9.84 0 0-.22-.01 0 0 3.17.12 7.48-1.07 9.47-5.15zm-5.19 17.91c.06.03-.06-.03 0 0 3.35 1.4 5.38 3.94 6.24 6.84.52 1.76.9 4.87-.92 7.42-4.43 6.22-12.04 3.73-14.28 2.02-.02-2.8-.83-5.99-2.48-7.59 4.52-.34 9.58-2.63 11.45-8.69zm-19.94 6.29c10.52 3.32 8.55 12.48 7.04 15.32-1.9 3.56-8.67 9.41-17.26.97 5.67-2.47 9.55-8.49 10.21-16.29zm77.88-56.86c20.12-.29 40.52 3.14 50.68 6.27 0 0-.71 3.33-1.52 5.5-7.51-1.76-23.35-4.39-43.89-4.17-21.2.22-37.21 4.41-41.81 5.75-3.54-2.04-8.08-3.79-12.14-5.93 12.14-3.77 31.302-7.17 48.674-7.43zm-62.48 17.13c7.37 2.04 8.97 7.87 8.22 12.5-.93 5.75-7.22 6.28-10.38 4.82.08-.14.01 0 .08-.14 2-4.06 3.57-8.68 2.07-17.18zm-5.11 21.21c3.86.14 10.55 6.7 5.86 14.45-1.08 1.79-7.69 7-15.94.31-.01-2.49-.04-5.25-.78-7.37 4.04-1.6 7.84-3.71 10.86-7.4zM108.5 190.8c-4.25-1.41-8.995-3.53-13.46-7.6-6.81-6.2-7.34-6.5-10.67-10.5-2.83-3.42-7.6-9.88-10.21-12.38-4.826-4.62-9.576-8.82-11.826-13.5 0 0 5.13-2.79 7.17-5.32.19-.24.4-.36.23-.87-1.02-3.75-3.43-7.55-3.61-9.16 5.09-2.04 23.93-5.37 39.45-5.37 7.66 0 20.99 2.03 25.56 3.9 4.71 1.93 7.857 5.89 8.827 9.33 1.73 6.113.63 9.822-2.53 14.37-1.08 1.55-5.84 6.42-11.79 9.03-.12.05-.25.11-.35.19 0 0 .09.28.13.467 1.97 8.63 1.27 14.38-.03 18.05-2.25 6.336-7.19 12-16.87 9.35zm30.41 48.41c-2.45-4.48-6.03-14.59-8.09-22.03 3.65 2.13 8.01 4.52 13.24 7.15.8 2.64 2.7 7.62 4.31 11.57 1.115 2.73 2.42 5.31 3.58 7.43-4.876-1.28-9.597-2.71-13.037-4.13zm30.3 7.98c-1.11-1.62-3.62-5.65-6.64-11.74-.556-1.12-1.067-2.25-1.54-3.36 3.363 1.3 6.82 2.46 10.35 3.48.51 1.02 1.646 2.94 2.285 4.02 2.266 3.84 4.24 6.75 5.775 8.83-2.387-.17-4.67-.39-6.73-.67-.89-.12-2.09-.32-3.51-.58zm13.53 1.43c-1.57-1.99-4.57-6.2-7.48-11.14-.2-.34-.386-.67-.57-1 3.69.97 7.45 1.79 11.245 2.46 2.35 3.96 4.94 8.05 6.48 10.11-3.18.05-6.47-.28-9.67-.43zm12.77.35c-1.347-1.71-3.92-5.58-6.33-9.5 3.834.59 7.703 1.03 11.58 1.31.71 1.73 3.07 6.45 3.07 7.91-2.306.27-5.517.17-8.32.28zm84.58-18.99c-2.92 1.79-6.69 3.32-8.66 3.79-2.84-.91-5.21-2.57-6.96-3.76 2.63-1.25 8.38-4.45 8.87-4.73 2 1.21 4.38 2.7 6.48 4.42l.28.28zm62.12-12.09c-4.98-.3-13.615-2.318-18.775-4.28-5.745-2.19-15.603-6.95-22.097-10.46 1.65-1.93 3.22-3.96 4.62-6.06 3.295 1.92 8.66 4.81 16.17 6.86 7.257 1.98 16.566 3.36 20.01 3.64.26 3.672.35 7.302.07 10.31zm.14-50.61c-7.19.75-31.25 5.812-32.3 6.033-.71-1.77-1.245-2.71-2.16-3.82 6.38-3.475 19.356-9.443 36.72-11.896-.46 3.72-1.35 6.98-2.26 9.69z"/><circle cx="300.159" cy="107.51" r="1.37"/><path d="M333.242 121.632s-1.117-1.986-4.294-5.06c2.773-.7 5.58-1.693 8.305-2.953 3.79 1.58 8.926 1.98 8.926 1.98 4.83-1.93 6.9-5.85 6.9-5.85s-1.93-1.23-5.94-2.25c1.56-.76 3.36-2.77 3.96-3.47 1.28.54 4.26 1.41 7.39 1.51 5.03.16 8.86-1.57 8.86-1.57s0-3.09-2.51-6.58c-1.36-1.89-2.35-2.82-3.33-3.55-.22-.16-.46-.35-.61-.53.27-1.11.56-2.92.52-5.24-.11-5.18-1.51-6.99-1.51-6.99s-1 .19-1.64.47c-.61.27-7.68 3.12-11.84 11.03-4.38-.37-8.46.26-10.61.87-.04-5.04-1.29-8.06-2.1-9.7l-.15-.29s-.15-.06-.31-.06c-1.27-.06-16.54 1.26-25.62 11.18-11.69 4.08-17.75 11.03-18.88 13.07-.12.2-.3.74-.3.74s.85.68 2.2 1.32c-.86 1.1-1.04 2.09-1.04 2.09.78.9 3.48 2.62 7.39 3.29.88.15 1.74.41 2.85.76 2.29.74 5.43 1.75 11.13 2.03 4.05 4.27 7.39 5.63 7.39 5.63s5.07.92 13.31-1.35c.87-.24 1.5-.59 1.5-.59zm15.74-11.11c-1.048 1.188-2.06 1.835-3.49 2.423-1.834-.042-3.44-.364-4.97-.928 3.37-1.81 4.388-2.618 4.388-2.618 1.875.29 4.004 1.09 4.07 1.12zm-29.833 10.602c-.47-.323-2.69-1.776-3.92-3.103 2.39.15 5.82-.12 10.5-.76 1.12.76 1.76 1.42 3.03 2.94-1.37.52-6.15 1.34-9.62.94zm-26.21-9.977c.85-.877 1.21-1.77 1.28-2.007.07-.244.1-.385.1-.385s-.31-.244-.46-.328c-.29-.16-.92-.532-1.79-.814 0 0 .06.022 0 0 .7-.757 3.36-4.488 11.17-8.39 1.73-.578 4.09-.686 5.12 2.05.73 1.935-1.03 3.85-1.67 4.63 1.16.304 3.15 1.117 3.22 3.383.13 3.76-2.95 5.67-5.69 5.162-1.44-.332-2.57-.695-3.57-1.017-1.16-.37-2.16-.69-3.26-.85-2.26-.33-4.13-1.11-4.49-1.42zm38.84-24.613c.33.732 1.66 3.445 1.33 7.8-.37.124-2.05.68-2.23.755-5.65-1.64-12.73-2.89-18.03-1.44 6.76-5.33 16.38-7.23 18.92-7.13zM330.6 97.7l.416.104.373-.138c.06-.022 5.98-2.415 11.91-2.612 4.49-.15 7.73.938 8.22 2.39.62 1.832-1.73 5.507-6.91 8.964-11.33 7.55-20.51 9.926-34.8 8.848 4.17-2.735 3.67-8.63.3-10.38 2.62-2.438.37-7-1.56-7.5 4.01-1.5 11.59-2.917 22.03.326zm27.66-13.11c.49.87.558 2.408.58 3.556.044 1.976-.17 3.482-.44 4.558-.17.672-.36 1.505-.36 1.505s.95.79 1.42 1.12c2.416 1.71 4.205 3.61 5.186 7.11-1.07.45-4.298.95-6.843.73-1.758-.16-4.22-.64-5.005-1.21 1.322-2 1.723-3.81 1.188-5.37-.51-1.49-1.887-2.6-4.065-3.24-.25-.08-.52-.16-.78-.23 3.4-5.52 7.47-7.97 9.12-8.55z"/><circle cx="249.528" cy="280.536" r="1.37"/><path d="M282.61 294.658s-1.116-1.986-4.293-5.06c2.773-.7 5.58-1.692 8.305-2.952 3.79 1.588 8.926 1.983 8.926 1.983 4.835-1.93 6.91-5.86 6.91-5.86s-1.93-1.23-5.935-2.25c1.56-.76 3.364-2.77 3.958-3.47 1.28.54 4.26 1.41 7.4 1.51 5.04.15 8.86-1.57 8.86-1.57s0-3.09-2.51-6.58c-1.35-1.88-2.35-2.82-3.33-3.55-.21-.16-.46-.35-.6-.53.28-1.11.57-2.92.52-5.24-.11-5.18-1.5-6.99-1.5-6.99s-1 .2-1.63.48c-.61.27-7.67 3.12-11.84 11.03-4.38-.37-8.46.26-10.61.87-.04-5.04-1.28-8.06-2.1-9.7-.04-.09-.15-.29-.15-.29s-.14-.05-.31-.06c-1.27-.05-16.54 1.26-25.62 11.18-11.68 4.08-17.74 11.03-18.88 13.07-.11.2-.3.74-.3.74s.85.68 2.21 1.32c-.86 1.1-1.03 2.08-1.03 2.08.78.9 3.48 2.62 7.39 3.29.88.15 1.75.41 2.85.76 2.29.74 5.43 1.75 11.13 2.03 4.05 4.27 7.4 5.64 7.4 5.64s5.07.92 13.31-1.35c.87-.24 1.5-.6 1.5-.6zm15.74-11.11c-1.046 1.188-2.058 1.835-3.49 2.423-1.832-.04-3.437-.36-4.967-.92 3.37-1.81 4.387-2.61 4.387-2.61 1.874.29 4.003 1.1 4.07 1.12zm-29.83 10.602c-.467-.324-2.684-1.777-3.917-3.104 2.393.146 5.82-.125 10.503-.766 1.12.762 1.76 1.42 3.028 2.934-1.363.518-6.147 1.343-9.615.936zm-26.204-9.976c.852-.877 1.21-1.77 1.28-2.008.072-.243.103-.385.103-.385s-.31-.24-.46-.32c-.29-.16-.92-.53-1.79-.81 0 0 .06.02 0 0 .7-.75 3.36-4.49 11.17-8.39 1.73-.57 4.09-.68 5.12 2.05.73 1.94-1.03 3.85-1.67 4.63 1.16.31 3.14 1.12 3.22 3.39.13 3.76-2.95 5.67-5.69 5.16-1.44-.33-2.57-.69-3.57-1.01-1.16-.37-2.16-.69-3.26-.86-2.26-.33-4.12-1.11-4.49-1.42zm38.845-24.613c.34.74 1.67 3.45 1.34 7.8-.36.13-2.04.68-2.23.76-5.64-1.63-12.72-2.88-18.02-1.43 6.76-5.32 16.38-7.23 18.93-7.12zm-1.19 11.17l.42.11.38-.13c.06-.02 5.99-2.41 11.92-2.61 4.5-.15 7.73.94 8.23 2.39.63 1.84-1.72 5.51-6.91 8.97-11.32 7.55-20.51 9.93-34.79 8.85 4.18-2.73 3.68-8.63.31-10.38 2.63-2.43.38-7-1.55-7.5 4.02-1.5 11.6-2.92 22.03.33zm27.66-13.11c.49.87.56 2.41.59 3.56.04 1.98-.17 3.48-.44 4.56-.16.67-.35 1.51-.35 1.51s.95.8 1.42 1.13c2.42 1.71 4.21 3.62 5.19 7.12-1.07.46-4.3.95-6.84.73-1.76-.15-4.22-.63-5-1.2 1.33-2 1.73-3.8 1.19-5.36-.51-1.49-1.89-2.59-4.06-3.24-.26-.08-.52-.15-.78-.22 3.41-5.52 7.47-7.97 9.13-8.55z"/><circle cx="337.182" cy="342.842" r="1.37"/><path d="M370.265 356.964s-1.117-1.986-4.294-5.06c2.78-.7 5.59-1.692 8.31-2.952 3.79 1.588 8.93 1.983 8.93 1.983 4.84-1.927 6.91-5.85 6.91-5.85s-1.93-1.23-5.93-2.245c1.56-.757 3.37-2.765 3.96-3.47 1.28.544 4.26 1.413 7.4 1.512 5.04.157 8.86-1.57 8.86-1.57s0-3.085-2.5-6.58c-1.35-1.88-2.35-2.814-3.33-3.543-.21-.16-.46-.35-.6-.53.28-1.11.57-2.92.52-5.24-.11-5.18-1.5-6.99-1.5-6.99s-1 .2-1.63.48c-.61.27-7.67 3.12-11.84 11.03-4.38-.37-8.46.26-10.61.87-.04-5.04-1.29-8.06-2.1-9.7l-.15-.29s-.14-.05-.31-.06c-1.27-.05-16.54 1.26-25.62 11.18-11.68 4.08-17.74 11.03-18.88 13.07-.11.2-.3.74-.3.74s.85.68 2.21 1.32c-.86 1.1-1.03 2.09-1.03 2.09.78.9 3.48 2.62 7.39 3.29.88.15 1.75.41 2.85.76 2.3.74 5.44 1.75 11.13 2.03 4.06 4.27 7.4 5.63 7.4 5.63s5.08.92 13.32-1.35c.87-.24 1.5-.6 1.5-.6zm15.74-11.11c-1.048 1.188-2.06 1.835-3.49 2.423-1.834-.04-3.44-.363-4.97-.928 3.37-1.81 4.388-2.62 4.388-2.62 1.875.29 4.004 1.09 4.07 1.12zm-29.833 10.602c-.466-.324-2.683-1.777-3.916-3.104 2.393.146 5.82-.125 10.503-.766 1.12.762 1.75 1.42 3.02 2.934-1.37.518-6.15 1.342-9.62.936zm-26.202-9.977c.852-.88 1.21-1.77 1.28-2.01.072-.25.103-.39.103-.39s-.304-.25-.453-.33c-.283-.16-.916-.53-1.783-.82 0 0 .06.02 0 0 .698-.76 3.364-4.49 11.174-8.39 1.74-.58 4.09-.69 5.13 2.05.73 1.93-1.03 3.85-1.66 4.63 1.16.3 3.15 1.11 3.23 3.38.13 3.76-2.95 5.67-5.69 5.16-1.44-.33-2.57-.7-3.57-1.02-1.16-.38-2.16-.7-3.25-.86-2.25-.34-4.12-1.12-4.49-1.43zm38.844-24.62c.33.73 1.667 3.44 1.333 7.8-.367.12-2.045.68-2.232.75-5.643-1.63-12.726-2.88-18.027-1.43 6.76-5.33 16.383-7.23 18.926-7.13zm-1.19 11.16l.415.1.37-.14c.06-.02 5.98-2.42 11.91-2.61 4.49-.15 7.73.93 8.22 2.38.62 1.83-1.73 5.51-6.91 8.96-11.33 7.55-20.51 9.92-34.8 8.84 4.17-2.74 3.67-8.63.3-10.38 2.62-2.44.37-7-1.56-7.5 4.01-1.5 11.59-2.92 22.03.32zm27.66-13.11c.488.87.557 2.4.58 3.55.043 1.97-.17 3.48-.44 4.56-.17.67-.36 1.5-.36 1.5s.95.79 1.418 1.12c2.417 1.71 4.206 3.62 5.187 7.11-1.08.45-4.3.95-6.85.73-1.76-.16-4.22-.64-5.01-1.21 1.32-2 1.72-3.81 1.19-5.37-.51-1.49-1.89-2.6-4.07-3.24-.26-.08-.52-.16-.79-.23 3.4-5.52 7.47-7.97 9.12-8.55z"/><circle cx="377.073" cy="165.18" r="1.37"/><path d="M422.726 164.64c-1.19.612-2.18.87-3.825 1.15-1.77-.453-2.46-.86-3.82-1.753 3.69-1.005 4.3-1.28 4.3-1.28 1.76.707 3.29 1.844 3.35 1.882zm-21.375 9.405c-.54-.145-3.22-.545-4.74-1.58 2.3-.68 3.45-1.253 7.63-3.453 1.32.333 2.43.735 4.13 1.724-1.1.953-4.02 2.713-7.02 3.31zm10.18-9.182c3.34 2.4 7.12 3.375 7.12 3.375 5.15-.237 8.33-3.294 8.33-3.294s-1.33-1.588-4.8-3.52c.62-.235 2.39-1.32 3.02-1.71 0 0 3.33 2.6 6.02 3.732 4.65 1.953 9.12 1.996 9.12 1.996s1.11-3.162.02-7.323c-.58-2.25-1.18-3.48-1.83-4.51-.14-.23-1.1-1.94-1.2-2.15.52-1.02 1.21-2.72 1.69-4.99 1.06-5.07.11-7.15.11-7.15s-1.02-.03-1.7.1c-.65.12-8.18 1.31-14.02 8.08-4.76-1.6-8.02-1.93-13.11-2.37-.99-4.94-4.2-9.09-5.31-10.55-.06-.08-.22-.26-.22-.26s-.2.02-.53.12c-1.36.42-14.33 5.48-21.12 17.08l-.01-.03c-11.14 5.38-16.37 12.98-17.27 15.13-.09.22-.21.77-.21.77s.92.58 2.34 1.06c-.73 1.19-.79 2.19-.79 2.19.88.8 3.76 2.21 7.72 2.43.9.05 1.78.2 2.92.43 2.37.47 5.62 1.31 11.29.75 1.46-.15 3.58-.49 3.58-.49 5.27 2.63 8.88 2.77 8.88 2.77s6.95-1.47 10.91-6.02c0 0-1.35-1.5-5.39-3.31.64-.54 1.89-1.72 1.89-1.72s1.01-.16 2.61-.7zm25.16-22.513c.28.957 0 2.47-.23 3.595-.4 1.934-.95 3.354-1.45 4.34-.31.618-.69 1.387-.69 1.387s1.14 2.098 1.46 2.576c1.65 2.46 2.43 4.76 2.29 8.5-1.16.04-4.07-.654-6.36-1.775-1.58-.776-3.71-2.107-4.24-2.922 1.95-1.39 2.81-3.61 2.66-5.26-.12-1.34-1.36-2.77-3.34-3.89-.23-.14-.54-.26-.78-.39 4.56-4.6 8.96-5.95 10.7-6.15zm-66.36 27.264c.75-.968 1-1.896 1.05-2.14.05-.25.06-.394.06-.394s-.33-.208-.49-.274c-.3-.127-.97-.424-1.86-.606 0 0 .06.015 0 0 .61-.833 2.83-4.842 10.15-9.605 1.66-.77 3.98-1.147 5.33 1.455.95 1.838-.58 3.94-1.12 4.787 1.19.172 3.26.753 3.59 2.995.56 3.723-2.29 5.97-5.06 5.775-1.47-.165-2.63-.398-3.66-.604-1.19-.24-2.22-.445-3.33-.483-2.27-.078-4.22-.64-4.62-.906zm17.24 2.163c3.84-3.192 2.67-8.993-.88-10.348 2.33-2.72-.42-7-2.39-7.28 3.84-3.2 11.78-5.95 23.16-6.43.07 0 6.56-.17 12.31 1.3 4.35 1.12 7.17 2.59 7.5 4.09.5 2.23-3.49 5.56-9.43 7.45-6.79 2.16-9.98 2.36-9.98 2.36s-3.21 3.15-8.07 5.59c-3.92 1.97-8.9 3.23-12.19 3.23zm10.71-25.633c-5.26.884-9.88 2.67-9.88 2.67 4.63-5.954 13.05-10.758 15.29-11.3.52.612 2.83 3.42 3.71 7.7 0 0-3.82.04-9.11.93z"/><circle cx="349.671" cy="251.753" r="1.37"/><path d="M394.05 262.474c-1.304.303-2.326.305-3.99.174-1.61-.877-2.174-1.44-3.274-2.642 3.825-.064 4.48-.18 4.48-.18 1.532 1.116 2.736 2.595 2.784 2.648zm-23.032 3.85c-.497-.275-2.99-1.322-4.205-2.7 2.396-.09 3.65-.364 8.245-1.465 1.19.64 2.165 1.3 3.578 2.68-1.306.65-4.573 1.63-7.618 1.47zm12.126-6.392c2.64 3.15 6.067 5.024 6.067 5.024 5.05 1.04 8.89-1.14 8.89-1.14s-.9-1.865-3.79-4.596c.66-.076 2.64-.69 3.35-.913 0 0 2.59 3.34 4.92 5.1 4.02 3.035 8.35 4.18 8.35 4.18s1.85-2.793 1.82-7.094c-.01-2.316-.29-3.654-.67-4.816-.08-.255-.59-2.146-.63-2.38.76-.854 1.84-2.334 2.86-4.42 2.28-4.647 1.86-6.896 1.86-6.896s-.97-.28-1.67-.32c-.66-.04-8.25-.74-15.57 4.39-4.22-2.72-7.3-3.85-12.12-5.52.26-5.02-1.84-9.84-2.55-11.53-.03-.09-.15-.3-.15-.3s-.2-.02-.55 0c-1.42.07-15.24 1.79-24.67 11.35v-.03c-12.13 2.48-19.07 8.55-20.47 10.42-.14.19-.4.7-.4.7s.75.79 2.01 1.6c-1 .98-1.3 1.93-1.3 1.93.65 1 3.1 3.07 6.88 4.26.85.27 1.67.64 2.72 1.15 2.17 1.04 5.12 2.65 10.75 3.51 1.45.22 3.59.41 3.59.41 4.46 3.85 7.92 4.88 7.92 4.88s7.1.29 12.06-3.14c0 0-.94-1.79-4.41-4.53.76-.36 2.26-1.2 2.26-1.2s1.01.1 2.7-.03zm29.925-15.62c.03.995-.61 2.393-1.12 3.426-.87 1.774-1.75 3.015-2.49 3.847-.46.52-1.01 1.175-1.01 1.175s.59 2.314.78 2.856c.98 2.79 1.18 5.21.12 8.803-1.14-.25-3.79-1.64-5.73-3.29-1.35-1.15-3.08-2.96-3.39-3.88 2.23-.87 3.61-2.82 3.87-4.45.21-1.33-.64-3.03-2.28-4.6-.19-.19-.46-.39-.66-.57 5.55-3.35 10.15-3.57 11.88-3.33zm-71.04 10.075c.96-.755 1.43-1.59 1.54-1.818.1-.23.15-.37.15-.37s-.27-.29-.41-.39c-.26-.2-.84-.65-1.66-1.05 0 0 .05.03 0 0 .79-.66 3.93-4 12.2-6.81 1.79-.34 4.14-.14 4.8 2.72.46 2.01-1.54 3.67-2.27 4.36 1.1.46 2.96 1.53 2.74 3.79-.38 3.74-3.69 5.22-6.34 4.35-1.39-.53-2.46-1.04-3.4-1.49-1.1-.52-2.05-.98-3.12-1.29-2.19-.64-3.93-1.66-4.26-2.02zm16.17 6.34c4.5-2.148 4.8-8.057 1.69-10.244 2.92-2.064 1.31-6.888-.53-7.643 4.51-2.156 12.87-2.863 24.02-.526.06.013 6.39 1.447 11.6 4.295 3.94 2.15 6.31 4.27 6.26 5.81-.07 2.28-4.76 4.53-10.98 4.9-7.12.42-10.26-.17-10.26-.17s-3.89 2.26-9.2 3.43c-4.29.95-9.42.94-12.61.13zm16.69-22.205c-5.32-.438-10.24.154-10.24.154 5.95-4.63 15.3-7.213 17.6-7.186.35.72 1.9 4.014 1.69 8.377 0 0-3.72-.902-9.07-1.345z"/></g></svg>