
<svg version="1.1" id="Layer_1" xmlns="http://www.w3.org/2000/svg" xmlns:xlink="http://www.w3.org/1999/xlink" x="0px" y="0px"
	 width="1230px" height="366.055px" viewBox="0 0 1230 366.055" enable-background="new 0 0 1230 366.055" xml:space="preserve">
<g>
	<title>background</title>
	<rect id="canvas_background" x="6" y="-1" fill="none" width="1103" height="368.055"/>
</g>
<path id="svg_1" fill="#1D5B86" d="M440.719,264.545l-2.937,1.504C395.727,285.131,327.834,307.843,243,307.843
	c-55.606,0-93.649-11.521-130.44-22.662C78.021,274.721,45.4,264.842,1.208,264.842v13.028c42.192,0,73.884,9.598,107.438,19.761
	c37.73,11.426,76.748,23.239,134.354,23.239c85.505,0,154.275-22.438,197.72-41.815V264.545L440.719,264.545z"/>
<path id="svg_2" fill="#1D5B86" d="M440.719,74.133c-31.308-8.827-75.807-18.918-118.22-18.918
	c-43.394,0-79.412,9.091-114.246,17.882C173.379,81.897,137.318,90.998,93.5,90.998c-36.537,0-74.814-9.069-89.226-12.548
	c-1.158-0.279-2.178-0.692-3.066-0.902v13.051c14.911,3.598,54.231,13.065,92.292,13.065c45.496,0,82.384-9.31,118.059-18.312
	c35.601-8.984,69.227-17.472,110.941-17.472c42.528,0,87.647,10.657,118.22,19.48l0,0V74.133L440.719,74.133z"/>
<path id="svg_3" fill="#1D5B86" d="M25.865,23.318h8.619v42.49h-8.619V23.318z"/>
<path id="svg_4" fill="#1D5B86" d="M79.402,64.473c-1.295,0.445-2.631,0.8-4.006,1.063c-1.376,0.264-2.772,0.455-4.188,0.577
	c-0.485,0.04-0.962,0.07-1.427,0.091s-0.921,0.03-1.366,0.03c-5.989,0-11.168-1.791-15.539-5.372S46.32,51.93,46.32,44.807
	c0-6.718,2.114-12.059,6.343-16.024c4.229-3.965,10.005-5.949,17.33-5.949c1.375,0,2.641,0.071,3.794,0.212
	c1.153,0.143,2.276,0.334,3.369,0.577c0.364,0.122,0.738,0.233,1.123,0.334c0.384,0.103,0.759,0.212,1.123,0.334l-0.364,7.284
	c-1.376-0.565-2.752-0.971-4.127-1.214c-1.376-0.243-2.813-0.364-4.31-0.364c-4.331,0-7.942,1.266-10.835,3.794
	c-2.895,2.529-4.341,6.161-4.341,10.896c0,4.855,1.275,8.367,3.824,10.531c2.549,2.166,5.361,3.43,8.438,3.794
	c0.403,0.041,0.798,0.07,1.184,0.091c0.384,0.021,0.759,0.03,1.123,0.03c1.659,0,3.157-0.151,4.492-0.455s2.488-0.657,3.459-1.063
	c0.162-0.04,0.324-0.091,0.486-0.152c0.161-0.061,0.304-0.131,0.425-0.212L79.402,64.473z"/>
<path id="svg_5" fill="#1D5B86" d="M103.785,23.318l6.798,11.837l1.942,3.581h0.183l1.942-3.581l6.979-11.837h9.408l-12.929,20.273
	l14.203,22.217h-10.197l-8.134-13.477l-1.821-3.277h-0.182l-1.821,3.277l-8.438,13.477h-9.408l14.204-22.217L93.585,23.318H103.785z
	"/>
<path id="svg_6" fill="#1D5B86" d="M171.596,64.473c-1.297,0.445-2.633,0.8-4.008,1.063c-1.376,0.264-2.771,0.455-4.188,0.577
	c-0.485,0.04-0.961,0.07-1.426,0.091c-0.467,0.021-0.921,0.03-1.366,0.03c-5.989,0-11.169-1.791-15.539-5.372
	s-6.556-8.932-6.556-16.055c0-6.718,2.113-12.059,6.343-16.024c4.229-3.965,10.006-5.949,17.33-5.949
	c1.375,0,2.641,0.071,3.794,0.212c1.152,0.143,2.275,0.334,3.369,0.577c0.363,0.122,0.736,0.233,1.123,0.334
	c0.384,0.103,0.759,0.212,1.123,0.334l-0.364,7.284c-1.377-0.565-2.753-0.971-4.128-1.214c-1.376-0.243-2.813-0.364-4.311-0.364
	c-4.331,0-7.941,1.266-10.835,3.794c-2.894,2.529-4.34,6.161-4.34,10.896c0,4.855,1.274,8.367,3.823,10.531
	c2.55,2.166,5.362,3.43,8.438,3.794c0.404,0.041,0.8,0.07,1.185,0.091s0.759,0.03,1.123,0.03c1.659,0,3.156-0.151,4.492-0.455
	c1.335-0.304,2.487-0.657,3.46-1.063c0.16-0.04,0.322-0.091,0.484-0.152c0.161-0.061,0.305-0.131,0.425-0.212L171.596,64.473z"/>
<path id="svg_7" fill="#1D5B86" d="M151.379,5.424c-0.059,0.117-0.131,0.232-0.218,0.349c-0.087,0.117-0.188,0.232-0.305,0.348
	c-1.565,2.262-3.249,4.176-5.046,5.742c-1.799,1.566-4.206,2.349-7.222,2.349c-1.625,0-3.161-0.218-4.61-0.652
	c-1.45-0.436-2.755-0.914-3.915-1.437c-0.349-0.115-0.667-0.246-0.957-0.391c-0.291-0.146-0.58-0.275-0.87-0.393
	c-0.928-0.464-1.885-0.869-2.871-1.218c-0.986-0.348-1.972-0.521-2.958-0.521c-0.521,0-1.087,0.059-1.696,0.174
	c-0.607,0.117-1.231,0.318-1.87,0.608c-0.755,0.349-1.493,0.813-2.219,1.393c-0.726,0.58-1.378,1.305-1.957,2.175l-5.221-3.915
	c1.508-2.377,3.248-4.437,5.221-6.177c1.972-1.74,4.494-2.61,7.568-2.61c0.985,0,1.972,0.087,2.958,0.261
	c0.984,0.175,1.941,0.406,2.871,0.696c0.348,0.117,0.695,0.232,1.044,0.349s0.666,0.261,0.957,0.435
	c1.102,0.406,2.073,0.827,2.915,1.261c0.84,0.436,1.666,0.798,2.479,1.088c0.463,0.175,0.941,0.305,1.437,0.392
	c0.49,0.087,1,0.131,1.521,0.131s1.059-0.057,1.609-0.174c0.55-0.115,1.116-0.29,1.696-0.522c0.812-0.29,1.595-0.739,2.349-1.348
	c0.753-0.609,1.449-1.377,2.088-2.307L151.379,5.424z"/>
<path id="svg_8" fill="#1D5B86" d="M73.585,5.424c-0.059,0.117-0.131,0.232-0.218,0.349c-0.087,0.117-0.188,0.232-0.305,0.348
	c-1.565,2.262-3.249,4.176-5.046,5.742c-1.8,1.566-4.206,2.349-7.222,2.349c-1.625,0-3.162-0.218-4.61-0.652
	c-1.45-0.436-2.755-0.914-3.915-1.437c-0.349-0.115-0.667-0.246-0.957-0.391c-0.291-0.146-0.58-0.275-0.87-0.393
	c-0.928-0.464-1.885-0.869-2.871-1.218c-0.986-0.348-1.972-0.521-2.958-0.521c-0.521,0-1.087,0.059-1.696,0.174
	c-0.607,0.117-1.231,0.318-1.87,0.608c-0.755,0.349-1.493,0.813-2.219,1.393c-0.726,0.58-1.378,1.305-1.957,2.175l-5.221-3.915
	c1.508-2.377,3.248-4.437,5.221-6.177c1.971-1.74,4.494-2.61,7.568-2.61c0.984,0,1.972,0.087,2.958,0.261
	c0.984,0.175,1.941,0.406,2.871,0.696c0.348,0.117,0.695,0.232,1.044,0.349s0.666,0.261,0.957,0.435
	c1.102,0.406,2.072,0.827,2.915,1.261c0.84,0.436,1.666,0.798,2.479,1.088c0.463,0.175,0.941,0.305,1.437,0.392
	c0.49,0.087,1,0.131,1.521,0.131s1.059-0.057,1.609-0.174c0.55-0.115,1.116-0.29,1.695-0.522c0.813-0.29,1.596-0.739,2.35-1.348
	c0.753-0.609,1.449-1.377,2.088-2.307L73.585,5.424z"/>
<circle id="svg_9" fill="#1D5B86" cx="100.955" cy="151.506" r="7.455"/>
<path id="svg_10" fill="none" stroke="#2E3192" stroke-width="2.5" d="M86.271,117.182"/>
<path id="svg_11" fill="#1D5B86" d="M354.094,203.653c-0.651-9.752-3.64-20.122-4.776-22.945
	c6.632-10.619,8.079-24.349,8.371-28.095c0.894-11.463-0.456-19.25-1.02-20.64c0,0-3.42-0.404-8.182-0.01
	c-11.987,0.994-21.088,4.239-31.654,9.244c-10.622,5.032-22.973,12.535-30.318,20.186c-10.278-1.23-14.273-1.291-20.246-1.209
	c12.356-19.851,13.85-36.694,13.85-36.694s-2.781-1.474-8.867-3.531c-8.875-3-27-6.5-51.547-6.875
	c-29.387-0.448-54.21,5.396-67.15,11.025c-5.581-2.304-11.489-4.348-17.697-5.884c-12.561-3.108-24.673-3.588-32.771-3.444
	c-18.167,0.322-30.521,2.991-39.474,5.993c-0.946,0.316-7.247,2.85-9.383,4.287c-0.577,0.388-0.747,0.667-0.747,0.667
	s0.024,0.633,0.468,1.957c0.871,2.601,2.47,6.146,4.114,9.337c0.317,0.613,0.354,0.97,0.354,0.97s-0.536,0.329-1.25,0.689
	c-2.478,1.253-6.527,3.096-8.112,4.511c-0.313,0.279-0.853,0.751-0.863,0.928c-0.013,0.214,0.507,1.752,1.489,3.529
	c2.564,4.642,5.444,9.623,15.438,19.689c2.243,2.261,8.688,10.905,10.896,13.37c0.826,0.923,1.475,1.662,2.036,2.313
	c-16.021-2.386-30.82-3.991-46.717-3.991c-13.826,0-24.617,1.201-29.125,1.798v12.853c1.381-0.21,13.222-1.933,29.125-1.933
	c20.042,0,38.613,2.737,60.6,6.354c7.942,2.856,16.36,6.224,23.736,10.063c0,0-0.941-1.127,0,0
	c1.418,8.346,8.731,27.311,12.768,35.896c0.74,1.575,2.59,5.109,2.59,5.109s2.952,1.071,4.273,1.554
	c2.147,0.781,4.317,1.436,14.063,4.063c12.579,3.395,48.329,7.895,68.272,3.653c1.98-0.421,2.647-0.901,2.647-0.901
	s-0.021-1.132-0.251-2.168c-0.446-2.007-1.237-5.398-2.922-10.817c-0.271-0.869-1.126-2.548-1.41-3.354
	c12.12-0.291,23.553-1.97,34.335-5.214c5.635,3.643,8.911,5.578,12.652,7.404c5.136,2.507,7.448,3.179,7.974,3.403
	c0.318,0.138,0.339,0.142,0.684,0.034c11.188-3.464,23.806-10.955,28.445-14.867c0,0-2.368-2.828-5.261-5.654
	c-1.842-1.801-6.558-5.703-9.23-8.009c2.46-1.742,5.452-4.002,8.076-6.217c1.08,0.616,15.891,8.433,25.408,11.779
	c11.467,4.033,24.009,6.465,28.896,6.991c1.124,0.121,4.006,0.22,4.481,0.167c0.162-0.019,0.422-0.047,0.422-0.047
	s0.263-0.558,0.459-1.141c0.813-2.4,1.873-8.006,2.167-13.191c18.153-1.258,55.577-5.244,86.512-17.445v-14.09
	C415.88,195.991,381.67,201.711,354.094,203.653z M322.5,151.377c7.503-3.394,16.75-6.063,23.207-6.51
	c0.006,3.93-0.187,6.762-0.664,10.167c-18.681,2.514-32.522,9.063-38.928,12.617c-1.61-1.414-3.466-2.509-5.447-3.357
	C306.254,159.662,314.316,155.08,322.5,151.377z M337.114,182.174c0.823,1.659,2.198,6.473,2.905,10.129
	c-14.066-0.757-21.317-2.074-29.578-3.957c0.456-1.361,0.603-2.761,0.809-4.18C318.457,183.994,327.588,183.329,337.114,182.174z
	 M309.538,190.703c8.663,1.985,16.104,3.361,31.018,4.131c0.857,3.904,1.383,6.813,1.421,10.237
	c-3.43-0.318-12.22-1.63-19.146-3.521c-7.149-1.951-12.298-4.704-15.492-6.561C308.17,193.589,308.91,192.158,309.538,190.703z
	 M336.815,179.692c-9.328,1.132-18.406,1.834-25.482,2.016c0.229-3.167-0.129-4.879-0.417-5.979
	c0.953-0.202,23.345-4.931,30.49-5.806C340.5,172.896,337.813,178.146,336.815,179.692z M280.99,206.048
	c-0.156-3.007-2.948-4.215-4.739-4.548c1.193-1.284,2.707-3.417,2.457-6.125c4.292-1.125,7.91,0.479,8.813,2.692
	C288.667,200.875,285.273,203.466,280.99,206.048z M160.938,237.419c2.113,4.258,3.729,7.154,4.934,9.134
	c-3.118-0.627-6.791-1.436-10.524-2.354c-1.329-2.282-3.165-5.666-4.62-9.23c-1.173-2.875-2.759-6.693-3.528-9.094
	c2.257,1.104,4.661,2.245,7.227,3.425c1.125,0.519,2.268,1.013,3.419,1.496C158.562,232.642,159.972,235.474,160.938,237.419
	L160.938,237.419z M291.158,183.084c2.592-1.709,3.926-4.342,3.576-7.609c4.266,0.546,5,3,5.289,3.992
	c0.727,2.491-0.023,6.68-1.565,7.524C298.458,186.991,296.783,182.625,291.158,183.084z M285.563,193.396
	c1.729-1.438,3.438-3.813,3.94-7.809c0,0,4.833-1.089,6.341,1.684c2.072,3.813-1.761,9.146-5.678,10.938
	C289.451,195.201,287.125,193.916,285.563,193.396z M277.917,193.041c-0.249-0.576-1.875-2.791-4.667-3.249
	c4.417-1.708,6.042-6.875,4.542-9.875c2.958-1.083,9.433,1.02,9.208,6.072C286.917,187.87,285.706,193.16,277.917,193.041z
	 M268.306,214.232c2.693-3.857,1.177-7.962,0.86-8.908c3.459-1.541,6.794-2.336,8.164-0.874
	C279.746,207.027,277.935,210.128,268.306,214.232z M242.403,214.005c2.347-0.922,3.932-2.738,5.001-4.58
	c0,0,7.113-0.911,8.745,4.915c0.764,2.728,0.179,7.13-10.37,9.276C246.75,219.375,245.813,216.021,242.403,214.005L242.403,214.005z
	 M229.167,221.084l0.259-0.167c3.491-2.458,3.806-6.328,3.814-6.414c1.514-0.149,9.127,0.3,9.927,4.155
	c1.026,4.947-0.584,7.717-10.417,8.967C233.458,224.333,232,222.042,229.167,221.084L229.167,221.084z M164.167,219.375
	c2.833-0.104,5.084-2.834,5.521-4.917c4.248,1.506,9.625,4.172,7.389,8.138C174.939,226.387,167,221.521,164.167,219.375z
	 M150.75,212.653c3.065-0.6,7.125-3.695,7.5-9.133c5.04,1.365,11.625,4.875,8.417,11.448
	C165.08,218.223,159.743,219.021,150.75,212.653z M282.583,172.042c8.461-1.138,9.728,2.606,9.67,4.6
	c-0.076,2.675-2.015,4.818-3.765,5.485c-2.196-3.377-4.446-4.085-7.405-4.585C282.917,175.958,282.958,173.25,282.583,172.042z
	 M267.375,189c-1.417-2.5-3.208-3.875-4.875-4.458c1.896-0.677,5.209-2.875,6-6.974c0,0,7.042,0.058,7.777,4.582
	C276.534,183.728,275.125,189.25,267.375,189z M259.021,200.55c-0.002,0-0.003,0-0.005,0v0.002c-0.138,0.008-0.287,0-0.432,0.002
	c-0.376-5.354-3.827-7.557-5.138-8.483c2.512-1.444,3.939-3.773,4.469-6.396c4.542-0.174,7.91,3.031,7.91,7
	c0,2.062-0.947,4.58-2.413,5.97C262.484,199.523,261.344,200.413,259.021,200.55z M248.001,206.833
	c0.291-4.083-2.125-6.417-4.27-7.808c2.52-1.025,4.269-2.984,5.061-5.617c3.208-0.116,7.417,2.498,7.417,7.291
	C256.209,205.824,250.292,207.541,248.001,206.833z M233.263,211.932c-0.54-2.009-1.056-3.349-3.056-4.808l0,0
	c3.375-1.458,5.459-4.291,5.917-7.333c0,0,10.188-0.271,9.261,7.061C244.646,212.691,237.813,212.833,233.263,211.932z
	 M216.625,216.146c2.125-0.813,5.417-3.938,5.333-8.604c2.987,0.039,9.435,0.485,8.917,6.604c-0.187,2.206-1.813,7.125-10.688,6.203
	C219.338,218.53,218.438,217.083,216.625,216.146z M206.046,206.416c2.625-0.592,4.96-2.224,6.158-4.887
	c8.01,0.967,7.796,7.054,6.859,9.067c-1.453,3.121-4.582,4.569-10.896,3.319C208.506,211.668,208.063,208.208,206.046,206.416z
	 M190.833,227.208c3.042-2.313,3.742-5.155,3.876-6.958c0.002-0.022-0.002,0.023,0,0c6.04,0.333,10.354,2.833,8.562,7.026
	C202.887,228.174,200.833,230.875,190.833,227.208z M177.62,215.83c2.818-0.31,5.88-3.247,6.616-5.794
	c5.952,1.047,8.863,5.419,8.084,10.126c-0.745,4.496-4.007,8.233-13.964,4.79c0.087-0.136,0,0,0,0
	C180.636,223.261,181.225,218.92,177.62,215.83z M170.216,211.961c-0.152-2.003-0.277-3.878-2.507-5.961
	c3.354-0.604,6.666-2.708,7.874-7.125c8.313,1.583,6.875,8.785,6.172,10.663C179.75,214.896,173.852,213.888,170.216,211.961
	L170.216,211.961z M257.917,183.209c-0.267-2.039-1.459-4-2.959-4.958l0,0c2.625-1.208,4.626-4.5,2.731-7.853
	c9.261-1.322,8.808,4.202,8.686,6.123C266.094,180.958,260.959,183.667,257.917,183.209L257.917,183.209z M248.959,190.625
	c-0.173-1.296-1.042-5.125-4.868-6.69c1.909-1.101,3.492-2.726,4.284-5.143c6.042,0.042,7.345,2.636,7.25,5.979
	C255.522,188.442,252.053,191.094,248.959,190.625z M236.083,197.333c-0.291-1.499-1.25-3.208-2.793-4.131
	c0.521-0.185,4.835-2.411,5.509-7.888c3.784-0.73,8.491,1.946,7.852,6.519C246.334,194.083,244.375,199.041,236.083,197.333z
	 M221.406,205.146c-0.589-1.158-1.205-2.454-2.531-3.396c3.438-0.813,6.542-3.875,6.815-8.186c6.685-0.606,9.31,3.831,7.682,7.523
	C232.477,203.121,229.563,206.989,221.406,205.146z M212.666,199.104c0.459-2.521-0.291-5.646-3.001-7.815
	c3.169-0.331,4.961-2.331,6.023-4.771c5.275,0.629,8.313,4.815,7.484,8.11C222.566,197.045,219.797,201.383,212.666,199.104z
	 M199.458,203.292c0.229-1.702,0-5.208-2.051-7.378c3.051-0.539,5.342-2.539,6.685-4.757c6.893,1.543,6.942,6.424,5.971,9.176
	C208.646,204.342,203.145,205.215,199.458,203.292z M184.625,207.208c0.166-1.515,0.167-4.625-1.875-7.313l0,0
	c2.688-0.563,6.125-2.625,7.322-5.323c8.74,2.386,7.375,9.465,6.214,11.02C192,211.333,185.359,207.927,184.625,207.208
	L184.625,207.208z M248.583,176.625c0.032-1.992-0.517-4.633-2.934-6.008c6.684-1.159,9.443-0.275,10.007,0.841
	C257.516,175.149,253.375,178.042,248.583,176.625z M238.625,182.834c-0.5-1.625-1.625-3.208-3.313-4.167
	c1.854-0.708,4.521-3.792,3.162-7.432c4.042-0.076,8.476,0.771,7.934,6.17C246.003,181.442,241.981,183.474,238.625,182.834z
	 M225.54,191.212c-0.915-2.545-2.588-3.785-3.646-4.694l0,0c3.98-1.31,5.98-4.177,7.105-6.364c0,0,4.563-1.611,6.708,2.055
	c0.747,1.277,1.457,5.229-2.388,8.188C231.292,191.958,229.665,191.087,225.54,191.212L225.54,191.212z M216.438,183.958
	c0.188-3.25-0.42-5.092-1.438-6.563c3.792-0.271,5.964-3.479,5.964-6.237l0,0c5.379,0.944,6.635,6.293,5.703,8.55
	C225.25,183.146,221.057,185.401,216.438,183.958z M204.792,188.875c0.583-1.917,0.54-4.506-0.375-6.625
	c-0.844-1.955-2.75-4.167-4.25-4.833c2.083-0.042,4.271-0.583,6.75-2.417c6.271,2.083,8.235,5.222,7.125,9.639
	C213.417,187.125,210.463,191.017,204.792,188.875z M210,167.708c4.974,0.624,8.792,2.542,8.25,4.875
	c-0.993,4.275-7.292,2.125-9.833,0.333C209.435,171.519,210.25,169.958,210,167.708L210,167.708z M229.125,177.646
	c-0.208-4.854-3.279-6.604-3.279-6.604c10.527-0.947,11.188,0.166,10.489,3.078C235.405,177.997,229.125,177.646,229.125,177.646z
	 M199.429,163.102L199.429,163.102c10.779,2.279,7.849,7.22,7.466,8.082c-1.457,3.274-5.729,4.691-9.479,3.649
	c0.456-3.015-0.542-6.417-2.542-8.25C197.333,166.5,199.083,164.75,199.429,163.102z M196.507,178.322
	c2.688,0.767,7.91,3.928,5.63,10.857c-1.028,3.121-5.178,5.61-11.345,3.11c0.917-3.291-0.25-7.625-2.167-9.5
	C191.667,182.875,194.917,180.917,196.507,178.322z M251.25,159.657L251.25,159.657c-1.972-0.04-3.63,0.072-5.194,0
	c-12.556-0.574-22.556,1.551-28.233-0.696c-3.242-1.282-5.957-2.585-8.372-3.733c6.73-1.214,15.7-2.351,26.089-2.459
	c7.068-0.072,14.008,0.216,20.728,0.836C254.692,155.965,253,158.097,251.25,159.657L251.25,159.657z M196.624,163.353
	c-1.538,2.268-6.025,0.732-8.701-0.864c0.074-0.209,0,0,0,0c0.619-1.489,0.953-4.155,0.328-6.03
	C197.625,159.708,197.188,162.521,196.624,163.353z M187.156,164.552L187.156,164.552c6.237,2.039,8.814,6.434,7.924,10.637
	c-1.081,5.103-7.039,6.061-10.581,4.353c0.28-1.684,0.563-6.958-3.625-10.208l0,0C184,168.396,185.843,166.402,187.156,164.552z
	 M183.578,182.336c5.839,2.247,5.63,9.08,4.201,11.237c-1.688,2.547-6.154,5.447-11.945,2.802c0.104-2.417-1.083-6.167-3.021-7.917
	C176.554,188.449,180.938,186.517,183.578,182.336z M194.771,217.675c-0.124-1.736-0.271-4.139-2.771-6.341
	c3.083-0.542,6.125-3.126,7.055-5.538c8.055,0.309,7.257,7.62,6.077,9.624C203.301,218.527,200.042,219.375,194.771,217.675
	L194.771,217.675z M280.469,173.864c0.114,3.469-3.938,4-3.938,4c-1.893-1.095-3.864-2.156-7.906-2.37
	c0.084-2.286-0.754-4.13-1.096-4.671C278.896,169.284,280.407,171.986,280.469,173.864z M257.755,151.247
	c-7.199-0.713-14.654-1.057-22.24-0.979c-12.327,0.13-22.713,1.683-29.782,3.125c-4.15-2.128-7.27-4.017-10.384-5.974
	c6.978-1.539,18.053-3.39,31.41-3.529c14.811-0.166,26.375,1.24,33.661,2.498C259.604,148.005,258.71,149.65,257.755,151.247z
	 M170.969,157.864c1.5-0.313,5.906-2.344,5.281-7.448c3.1,0.645,6.911,2.678,8.677,5.273c1.118,1.644,1.281,3.843,0.705,5.833
	c-0.997,3.443-3.391,4.792-5.257,5.269c-2.604,0.663-4.48,0.165-6.252-0.772C174.107,163.206,173.158,160.157,170.969,157.864
	L170.969,157.864z M173.951,168.535c4.653,1.195,10.468,5.872,7.185,12.441c-2.843,5.689-10.476,5.895-14.261,3.44l0,0
	c-0.083-3.542-1.375-6.256-2.292-7.625C169.833,176.333,173.166,172.75,173.951,168.535L173.951,168.535z M166.616,187.191
	c3.447,0.329,10.701,8.672,4.446,14.518c-3.296,3.081-8.286,1.186-12.911-1.503c-0.308-1.731-1.183-3.231-2.14-4.496l0,0
	C156.011,195.71,163.689,195.968,166.616,187.191L166.616,187.191z M148.503,194.186c6.061,1.021,8.491,8.592,6.122,12.335
	c-3.612,5.707-10.179,5.42-16.792-2.146C142.688,203.833,147.313,199.958,148.503,194.186z M203.322,220.063
	c1.595-0.646,2.984-2.114,3.968-3.785c0.013-0.021,0.083-0.006,0.205-0.014c5.922-0.39,11.785,2.616,10.443,9.007
	c-0.354,1.686-2.028,6.087-12.96,3.8C206.639,227.649,207.583,222.958,203.322,220.063z M220.5,222.958
	c3.416-0.583,9.334-0.749,9.786,2.353c0.198,1.361,0.214,5.397-12.127,4.369C220.97,227.304,220.58,223.873,220.5,222.958
	L220.5,222.958z M258.538,217.896c1.212-3.271-0.371-7.938-4.819-9.813c1.865-1.083,3.471-2.603,4.532-5.009
	c2.875-0.708,6.172-0.001,7.28,1.45C268.917,208.958,267.321,215.229,258.538,217.896L258.538,217.896L258.538,217.896z
	 M268.079,203.095c-0.787-0.979-2.246-1.813-3.746-2.188c2.917-2.291,4.042-5.991,3.709-9.491c7.551-0.529,8.631,3.53,8.416,5.042
	C276.007,199.638,272.316,202.719,268.079,203.095L268.079,203.095z M261.557,144.051c-7.344-1.302-19.332-2.819-34.823-2.66
	c-15.209,0.16-27.538,2.51-34.361,4.151c-2.166-1.367-4.477-2.809-7.25-4.421c-0.96-0.558-1.955-1.139-2.966-1.729
	c6.34-1.672,20.612-4.819,38.821-5.011c20.081-0.219,35.551,2.313,42.995,4.033C263.353,140.025,262.533,141.968,261.557,144.051
	L261.557,144.051z M172.844,149.333c0.678,0.984,1.014,2.505,0.656,3.667c-0.438,1.428-3.313,4.396-9.802,1.528
	c0.583-3.25,0.302-7.32-2.568-10.593C168.196,145.346,172.024,148.141,172.844,149.333z M162.93,156.94
	c4.069,0.81,10.177,3.798,8.403,11.851c-0.932,4.23-5.164,5.302-5.458,5.375c-1.232,0.31-4.363,0.615-7.75-2.25
	c0.313-2.333-0.875-7.271-4.673-9.833c0,0-0.214-0.008,0,0C156.625,162.208,160.938,161.021,162.93,156.94z M157.737,174.85
	C157.798,174.882,157.675,174.819,157.737,174.85c3.347,1.398,5.381,3.939,6.236,6.841c0.519,1.762,0.894,4.874-0.92,7.421
	c-4.431,6.224-12.047,3.736-14.287,2.023c-0.017-2.804-0.829-5.99-2.475-7.595l0,0C150.813,183.208,155.875,180.917,157.737,174.85z
	 M137.796,181.138c10.518,3.319,8.548,12.481,7.038,15.319c-1.896,3.563-8.667,9.417-17.253,0.974
	C133.25,194.958,137.135,188.945,137.796,181.138L137.796,181.138z M215.677,124.284c20.118-0.291,40.521,3.143,50.684,6.269
	c0,0-0.703,3.327-1.522,5.502c-7.513-1.757-23.349-4.387-43.886-4.173c-21.208,0.224-37.21,4.409-41.817,5.754
	c-3.531-2.043-8.078-3.789-12.133-5.928C179.141,127.937,198.305,124.543,215.677,124.284z M153.196,141.416
	c7.375,2.042,8.971,7.875,8.221,12.5c-0.933,5.751-7.219,6.286-10.381,4.827c0.083-0.143,0.01,0.005,0.083-0.143
	C153.125,154.542,154.696,149.916,153.196,141.416z M148.083,162.625c3.854,0.146,10.542,6.708,5.854,14.458
	c-1.085,1.793-7.688,7-15.943,0.309c-0.01-2.494-0.034-5.253-0.777-7.368C141.261,168.427,145.056,166.314,148.083,162.625
	L148.083,162.625z M108.545,190.804c-4.251-1.408-8.997-3.531-13.461-7.597c-6.812-6.199-7.343-6.501-10.667-10.5
	c-2.836-3.412-7.604-9.878-10.214-12.377c-4.827-4.623-9.577-8.825-11.827-13.498c0,0,5.124-2.781,7.172-5.313
	c0.189-0.233,0.393-0.359,0.229-0.872c-1.025-3.753-3.435-7.548-3.608-9.157c5.083-2.034,23.923-5.365,39.45-5.365
	c7.652,0,20.988,2.027,25.552,3.9c4.707,1.932,7.853,5.889,8.822,9.327c1.729,6.118,0.634,9.827-2.526,14.375
	c-1.075,1.549-5.839,6.417-11.792,9.024c-0.114,0.051-0.244,0.109-0.344,0.189c0,0,0.081,0.279,0.124,0.468
	c1.964,8.631,1.27,14.377-0.036,18.048C123.167,187.791,118.23,193.455,108.545,190.804z M138.953,239.22
	c-2.456-4.478-6.034-14.589-8.089-22.031c3.649,2.132,8.008,4.521,13.239,7.151c0.799,2.645,2.694,7.617,4.309,11.572
	c1.114,2.729,2.42,5.318,3.579,7.435C147.114,242.066,142.393,240.637,138.953,239.22z M169.252,247.201
	c-1.107-1.617-3.62-5.654-6.643-11.743c-0.553-1.112-1.064-2.246-1.537-3.36c3.365,1.299,6.822,2.464,10.354,3.485
	c0.513,1.028,1.647,2.942,2.286,4.025c2.269,3.847,4.243,6.749,5.777,8.83c-2.383-0.165-4.664-0.385-6.729-0.664
	C171.872,247.654,170.673,247.459,169.252,247.201L169.252,247.201z M182.781,248.628c-1.569-1.99-4.571-6.198-7.482-11.139
	c-0.196-0.334-0.385-0.667-0.568-0.998c3.689,0.967,7.445,1.789,11.245,2.458c2.346,3.964,4.939,8.046,6.481,10.112
	C189.278,249.11,185.98,248.775,182.781,248.628z M195.55,248.979c-1.347-1.704-3.922-5.583-6.333-9.498
	c3.836,0.587,7.705,1.025,11.581,1.31c0.707,1.733,3.067,6.446,3.067,7.913C201.563,248.974,198.352,248.874,195.55,248.979
	L195.55,248.979z M280.127,229.991c-2.923,1.79-6.691,3.32-8.663,3.787c-2.839-0.91-5.214-2.57-6.965-3.754
	c2.631-1.257,8.381-4.453,8.867-4.734c1.998,1.212,4.384,2.699,6.478,4.418L280.127,229.991z M342.246,217.906
	c-4.984-0.302-13.616-2.315-18.776-4.283c-5.745-2.19-15.604-6.955-22.098-10.461c1.651-1.936,3.222-3.962,4.625-6.06
	c3.295,1.919,8.658,4.807,16.174,6.858c7.253,1.98,16.563,3.361,20.007,3.634C342.437,211.271,342.527,214.901,342.246,217.906z
	 M342.381,167.296c-7.193,0.75-31.252,5.815-32.298,6.036c-0.709-1.774-1.244-2.71-2.159-3.822
	c6.384-3.476,19.356-9.443,36.724-11.896C344.188,161.333,343.29,164.593,342.381,167.296z"/>
<g id="svg_12">
	<circle id="svg_13" fill="#1D5B86" cx="300.159" cy="107.51" r="1.37"/>
	<path id="svg_14" fill="#1D5B86" d="M333.242,121.632c0,0-1.117-1.985-4.294-5.06c2.773-0.7,5.581-1.693,8.305-2.953
		c3.789,1.588,8.927,1.984,8.927,1.984c4.835-1.927,6.908-5.852,6.908-5.852s-1.928-1.229-5.934-2.242
		c1.56-0.758,3.364-2.766,3.958-3.471c1.28,0.544,4.258,1.414,7.396,1.513c5.033,0.156,8.86-1.571,8.86-1.571
		s0.001-3.084-2.508-6.578c-1.353-1.882-2.35-2.816-3.329-3.544c-0.216-0.16-0.462-0.343-0.607-0.531
		c0.276-1.104,0.566-2.919,0.519-5.237c-0.11-5.174-1.505-6.984-1.505-6.984s-1,0.198-1.635,0.478
		c-0.61,0.27-7.679,3.125-11.84,11.035c-4.38-0.368-8.463,0.261-10.612,0.873c-0.038-5.033-1.287-8.053-2.101-9.699
		c-0.043-0.087-0.15-0.287-0.15-0.287s-0.145-0.052-0.312-0.059c-1.267-0.053-16.539,1.262-25.622,11.178
		c-11.682,4.082-17.743,11.037-18.878,13.071c-0.115,0.207-0.303,0.747-0.303,0.747s0.848,0.685,2.204,1.321
		c-0.86,1.101-1.032,2.088-1.032,2.088c0.78,0.898,3.483,2.624,7.393,3.293c0.883,0.15,1.745,0.409,2.85,0.764
		c2.294,0.739,5.435,1.752,11.131,2.032c4.054,4.269,7.398,5.636,7.398,5.636s5.073,0.921,13.313-1.35
		C332.614,121.985,333.242,121.632,333.242,121.632L333.242,121.632z M348.981,110.521c-1.047,1.188-2.06,1.836-3.49,2.424
		c-1.833-0.042-3.438-0.364-4.968-0.928c3.369-1.811,4.387-2.618,4.387-2.618C346.785,109.69,348.914,110.498,348.981,110.521
		L348.981,110.521z M319.149,121.124c-0.466-0.322-2.684-1.775-3.916-3.103c2.393,0.146,5.821-0.125,10.503-0.766
		c1.12,0.762,1.759,1.421,3.028,2.934C327.401,120.707,322.618,121.53,319.149,121.124z M292.947,111.147
		c0.852-0.877,1.21-1.771,1.28-2.007c0.071-0.244,0.103-0.386,0.103-0.386s-0.304-0.243-0.453-0.327
		c-0.282-0.16-0.916-0.532-1.782-0.814c0,0,0.06,0.022,0,0c0.697-0.757,3.363-4.488,11.174-8.389
		c1.731-0.579,4.088-0.688,5.125,2.05c0.731,1.934-1.029,3.849-1.664,4.628c1.161,0.305,3.146,1.118,3.225,3.384
		c0.13,3.761-2.953,5.671-5.688,5.162c-1.442-0.332-2.571-0.695-3.57-1.017c-1.159-0.373-2.159-0.695-3.258-0.859
		C295.183,112.237,293.314,111.458,292.947,111.147z M331.792,86.534c0.331,0.732,1.667,3.445,1.333,7.799
		c-0.366,0.125-2.045,0.681-2.231,0.756c-5.644-1.631-12.727-2.881-18.027-1.432C319.625,88.333,329.248,86.429,331.792,86.534z
		 M330.602,97.701l0.415,0.103l0.373-0.139c0.059-0.021,5.985-2.415,11.915-2.611c4.496-0.149,7.728,0.938,8.224,2.39
		c0.625,1.832-1.727,5.507-6.911,8.964c-11.325,7.551-20.509,9.926-34.794,8.848c4.177-2.734,3.677-8.631,0.303-10.38
		c2.624-2.438,0.374-7-1.555-7.5C312.583,95.875,320.167,94.458,330.602,97.701z M358.262,84.589
		c0.487,0.869,0.557,2.408,0.581,3.557c0.042,1.976-0.173,3.481-0.442,4.558c-0.168,0.672-0.358,1.505-0.358,1.505
		s0.948,0.793,1.417,1.125c2.417,1.708,4.206,3.617,5.188,7.114c-1.071,0.455-4.298,0.951-6.843,0.728
		c-1.759-0.155-4.22-0.636-5.005-1.206c1.322-1.998,1.724-3.804,1.188-5.365c-0.509-1.491-1.887-2.595-4.065-3.239
		c-0.257-0.082-0.519-0.156-0.783-0.224C352.542,87.625,356.61,85.177,358.262,84.589z"/>
</g>
<path id="svg_15" fill="#2E3192" d="M268.563,255.708"/>
<g id="svg_16">
	<circle id="svg_17" fill="#1D5B86" cx="249.528" cy="280.536" r="1.37"/>
	<path id="svg_18" fill="#1D5B86" d="M282.611,294.658c0,0-1.117-1.986-4.294-5.06c2.772-0.7,5.581-1.692,8.305-2.952
		c3.789,1.588,8.926,1.982,8.926,1.982c4.835-1.927,6.909-5.851,6.909-5.851s-1.928-1.229-5.934-2.244
		c1.56-0.757,3.364-2.765,3.958-3.47c1.28,0.544,4.258,1.413,7.396,1.512c5.033,0.157,8.86-1.571,8.86-1.571
		s0.001-3.084-2.508-6.578c-1.353-1.882-2.351-2.814-3.329-3.544c-0.216-0.159-0.462-0.343-0.607-0.529
		c0.276-1.104,0.566-2.92,0.519-5.238c-0.11-5.174-1.505-6.984-1.505-6.984s-1,0.198-1.636,0.479
		c-0.609,0.269-7.678,3.125-11.839,11.035c-4.38-0.369-8.463,0.26-10.612,0.873c-0.038-5.033-1.287-8.055-2.101-9.699
		c-0.043-0.088-0.151-0.287-0.151-0.287s-0.144-0.052-0.311-0.059c-1.267-0.054-16.539,1.262-25.622,11.178
		c-11.682,4.082-17.743,11.037-18.878,13.071c-0.115,0.206-0.303,0.747-0.303,0.747s0.848,0.686,2.204,1.319
		c-0.86,1.103-1.032,2.088-1.032,2.088c0.78,0.899,3.482,2.625,7.393,3.293c0.882,0.151,1.745,0.409,2.85,0.765
		c2.294,0.739,5.435,1.752,11.131,2.031c4.054,4.27,7.397,5.637,7.397,5.637s5.074,0.922,13.313-1.351
		C281.983,295.012,282.611,294.658,282.611,294.658L282.611,294.658z M298.351,283.547c-1.047,1.189-2.06,1.836-3.49,2.425
		c-1.833-0.041-3.438-0.363-4.968-0.929c3.369-1.81,4.387-2.617,4.387-2.617C296.154,282.717,298.283,283.523,298.351,283.547
		L298.351,283.547z M268.519,294.15c-0.466-0.324-2.684-1.777-3.916-3.104c2.393,0.146,5.82-0.125,10.503-0.766
		c1.12,0.762,1.759,1.42,3.028,2.934C276.771,293.732,271.987,294.557,268.519,294.15L268.519,294.15z M242.316,284.174
		c0.852-0.877,1.21-1.77,1.28-2.008c0.071-0.243,0.103-0.385,0.103-0.385s-0.304-0.244-0.453-0.328
		c-0.283-0.16-0.916-0.531-1.783-0.813c0,0,0.061,0.021,0,0c0.698-0.758,3.364-4.488,11.175-8.39
		c1.731-0.578,4.088-0.687,5.125,2.051c0.731,1.935-1.029,3.85-1.664,4.63c1.16,0.305,3.146,1.116,3.225,3.384
		c0.13,3.761-2.953,5.671-5.689,5.162c-1.441-0.331-2.57-0.695-3.569-1.018c-1.159-0.373-2.159-0.694-3.258-0.858
		C244.552,285.264,242.684,284.484,242.316,284.174L242.316,284.174z M281.161,259.561c0.331,0.73,1.667,3.444,1.333,7.799
		c-0.367,0.125-2.045,0.68-2.231,0.756c-5.644-1.631-12.727-2.881-18.027-1.432C268.994,261.359,278.617,259.455,281.161,259.561
		L281.161,259.561z M279.971,270.727l0.415,0.103l0.372-0.138c0.06-0.021,5.986-2.415,11.915-2.611
		c4.496-0.149,7.729,0.938,8.225,2.39c0.625,1.832-1.728,5.508-6.911,8.965c-11.325,7.551-20.509,9.926-34.794,8.848
		c4.177-2.734,3.677-8.631,0.303-10.38c2.624-2.438,0.374-7.001-1.555-7.5C261.952,268.9,269.536,267.484,279.971,270.727z
		 M307.631,257.615c0.488,0.869,0.558,2.408,0.581,3.556c0.042,1.977-0.172,3.481-0.441,4.559c-0.168,0.673-0.358,1.506-0.358,1.506
		s0.948,0.793,1.417,1.125c2.417,1.709,4.206,3.617,5.188,7.113c-1.071,0.455-4.298,0.95-6.844,0.729
		c-1.758-0.156-4.219-0.636-5.005-1.207c1.323-1.998,1.725-3.803,1.189-5.365c-0.509-1.489-1.887-2.594-4.065-3.237
		c-0.257-0.082-0.519-0.156-0.784-0.226C301.911,260.651,305.979,258.203,307.631,257.615L307.631,257.615z"/>
</g>
<g id="svg_19">
	<circle id="svg_20" fill="#1D5B86" cx="337.182" cy="342.843" r="1.37"/>
	<path id="svg_21" fill="#1D5B86" d="M370.265,356.965c0,0-1.117-1.986-4.294-5.061c2.772-0.7,5.581-1.691,8.305-2.952
		c3.789,1.588,8.926,1.983,8.926,1.983c4.835-1.927,6.909-5.851,6.909-5.851s-1.928-1.229-5.934-2.244
		c1.56-0.758,3.363-2.766,3.958-3.471c1.279,0.544,4.258,1.413,7.396,1.513c5.033,0.156,8.86-1.571,8.86-1.571
		s0.001-3.084-2.509-6.578c-1.352-1.882-2.35-2.814-3.328-3.544c-0.217-0.16-0.463-0.343-0.607-0.53
		c0.276-1.104,0.566-2.92,0.518-5.237c-0.109-5.175-1.505-6.984-1.505-6.984s-1,0.198-1.635,0.479
		c-0.61,0.27-7.678,3.125-11.839,11.035c-4.38-0.369-8.463,0.261-10.613,0.873c-0.038-5.033-1.287-8.054-2.1-9.699
		c-0.043-0.088-0.151-0.286-0.151-0.286s-0.144-0.053-0.311-0.06c-1.268-0.053-16.539,1.262-25.622,11.178
		c-11.683,4.082-17.743,11.037-18.878,13.071c-0.115,0.206-0.304,0.747-0.304,0.747s0.849,0.687,2.204,1.32
		c-0.859,1.102-1.031,2.088-1.031,2.088c0.779,0.898,3.482,2.625,7.393,3.293c0.882,0.151,1.745,0.409,2.849,0.764
		c2.294,0.74,5.436,1.752,11.132,2.032c4.054,4.27,7.397,5.636,7.397,5.636s5.074,0.922,13.313-1.35
		C369.637,357.317,370.265,356.965,370.265,356.965L370.265,356.965z M386.004,345.853c-1.047,1.188-2.059,1.836-3.489,2.424
		c-1.833-0.041-3.438-0.363-4.969-0.928c3.369-1.811,4.388-2.617,4.388-2.617C383.808,345.022,385.937,345.829,386.004,345.853z
		 M356.172,356.456c-0.466-0.323-2.683-1.776-3.916-3.104c2.394,0.146,5.821-0.125,10.504-0.766c1.119,0.762,1.759,1.42,3.027,2.934
		C364.425,356.038,359.641,356.862,356.172,356.456L356.172,356.456z M329.97,346.479c0.852-0.877,1.21-1.77,1.279-2.008
		c0.072-0.243,0.104-0.385,0.104-0.385s-0.304-0.244-0.453-0.328c-0.283-0.16-0.916-0.531-1.783-0.814c0,0,0.061,0.022,0,0
		c0.698-0.757,3.364-4.488,11.174-8.389c1.732-0.578,4.088-0.688,5.125,2.051c0.732,1.934-1.028,3.849-1.664,4.629
		c1.161,0.305,3.146,1.117,3.226,3.384c0.13,3.762-2.953,5.671-5.689,5.162c-1.441-0.331-2.57-0.694-3.569-1.017
		c-1.159-0.373-2.159-0.695-3.259-0.859C332.205,347.569,330.337,346.79,329.97,346.479L329.97,346.479z M368.814,321.866
		c0.331,0.731,1.667,3.445,1.333,7.799c-0.367,0.125-2.045,0.681-2.232,0.757c-5.643-1.632-12.726-2.882-18.026-1.433
		C356.647,323.665,366.271,321.761,368.814,321.866L368.814,321.866z M367.624,333.032l0.415,0.104l0.373-0.139
		c0.06-0.021,5.986-2.415,11.915-2.61c4.496-0.15,7.729,0.938,8.225,2.389c0.625,1.832-1.728,5.508-6.911,8.965
		c-11.325,7.551-20.51,9.926-34.794,8.849c4.177-2.734,3.677-8.632,0.303-10.381c2.624-2.438,0.374-7.001-1.555-7.5
		C349.605,331.206,357.189,329.79,367.624,333.032z M395.284,319.922c0.488,0.868,0.558,2.407,0.581,3.556
		c0.042,1.976-0.172,3.48-0.442,4.558c-0.168,0.673-0.357,1.507-0.357,1.507s0.948,0.793,1.417,1.125
		c2.417,1.709,4.206,3.616,5.187,7.112c-1.07,0.455-4.298,0.951-6.843,0.729c-1.758-0.156-4.219-0.637-5.005-1.207
		c1.323-1.998,1.724-3.804,1.189-5.365c-0.51-1.49-1.888-2.594-4.065-3.238c-0.257-0.082-0.519-0.155-0.784-0.225
		C389.564,322.958,393.634,320.51,395.284,319.922L395.284,319.922z"/>
</g>
<g id="svg_22">
	<circle id="svg_23" fill="#1D5B86" cx="377.073" cy="165.18" r="1.37"/>
	<path id="svg_24" fill="#1D5B86" d="M422.726,164.639c-1.19,0.612-2.182,0.869-3.825,1.15c-1.776-0.453-2.461-0.858-3.824-1.753
		c3.69-1.005,4.298-1.279,4.298-1.279C421.135,163.464,422.666,164.601,422.726,164.639L422.726,164.639z M401.351,174.045
		c-0.549-0.145-3.227-0.545-4.74-1.581c2.299-0.679,3.447-1.252,7.63-3.451c1.313,0.333,2.421,0.734,4.13,1.724
		C407.266,171.689,404.344,173.449,401.351,174.045L401.351,174.045z M411.529,164.863c3.334,2.401,7.117,3.375,7.117,3.375
		c5.15-0.237,8.332-3.294,8.332-3.294s-1.33-1.588-4.805-3.521c0.617-0.233,2.388-1.317,3.019-1.708c0,0,3.327,2.6,6.02,3.731
		c4.642,1.953,9.116,1.996,9.116,1.996s1.107-3.162,0.02-7.323c-0.586-2.242-1.184-3.471-1.836-4.503
		c-0.146-0.227-1.101-1.936-1.199-2.152c0.518-1.013,1.209-2.716,1.684-4.985c1.059-5.066,0.106-7.145,0.106-7.145
		s-1.019-0.031-1.7,0.099c-0.654,0.125-8.185,1.315-14.02,8.086c-4.76-1.596-8.027-1.933-13.109-2.367
		c-0.99-4.936-4.205-9.083-5.314-10.544c-0.059-0.078-0.223-0.253-0.223-0.253s-0.203,0.024-0.537,0.127
		c-1.363,0.417-14.33,5.483-21.12,17.078l-0.012-0.032c-11.142,5.384-16.373,12.983-17.27,15.132
		c-0.092,0.219-0.217,0.777-0.217,0.777s0.92,0.583,2.34,1.061c-0.729,1.192-0.787,2.192-0.787,2.192
		c0.878,0.804,3.76,2.211,7.72,2.431c0.893,0.049,1.779,0.207,2.916,0.436c2.363,0.474,5.614,1.31,11.29,0.753
		c1.461-0.145,3.573-0.483,3.573-0.483c5.267,2.629,8.878,2.774,8.878,2.774s6.947-1.473,10.906-6.014c0,0-1.355-1.503-5.391-3.308
		c0.638-0.542,1.893-1.719,1.893-1.719S409.926,165.4,411.529,164.863L411.529,164.863z M436.685,142.35
		c0.279,0.957,0,2.471-0.234,3.595c-0.403,1.934-0.951,3.354-1.458,4.341c-0.313,0.617-0.688,1.386-0.688,1.386
		s1.14,2.099,1.458,2.576c1.644,2.461,2.426,4.759,2.29,8.5c-1.164,0.041-4.07-0.653-6.366-1.774
		c-1.585-0.776-3.71-2.107-4.238-2.922c1.951-1.391,2.808-3.617,2.655-5.263c-0.123-1.34-1.36-2.775-3.338-3.896
		c-0.231-0.139-0.54-0.264-0.783-0.39C430.541,143.899,434.943,142.552,436.685,142.35L436.685,142.35z M370.321,169.614
		c0.745-0.968,1-1.896,1.043-2.14c0.044-0.251,0.059-0.395,0.059-0.395s-0.329-0.208-0.487-0.273
		c-0.299-0.127-0.971-0.425-1.863-0.606c0,0,0.062,0.015,0,0c0.607-0.833,2.831-4.842,10.147-9.604
		c1.654-0.771,3.981-1.147,5.323,1.454c0.947,1.839-0.585,3.94-1.127,4.787c1.188,0.173,3.254,0.753,3.589,2.995
		c0.558,3.724-2.289,5.972-5.064,5.775c-1.472-0.165-2.635-0.398-3.663-0.604c-1.194-0.238-2.225-0.444-3.335-0.482
		C372.665,170.442,370.721,169.881,370.321,169.614z M387.554,171.777c3.839-3.192,2.672-8.993-0.879-10.348
		c2.328-2.721-0.425-6.998-2.397-7.274c3.838-3.202,11.772-5.946,23.153-6.429c0.063-0.003,6.555-0.172,12.301,1.305
		c4.354,1.12,7.17,2.594,7.502,4.092c0.494,2.23-3.497,5.565-9.435,7.457c-6.79,2.163-9.986,2.366-9.986,2.366
		s-3.21,3.148-8.07,5.596C395.821,170.515,390.844,171.777,387.554,171.777L387.554,171.777z M398.265,146.144
		c-5.26,0.884-9.882,2.671-9.882,2.671c4.629-5.955,13.05-10.759,15.293-11.302c0.519,0.612,2.832,3.422,3.707,7.7
		C407.384,145.213,403.562,145.253,398.265,146.144z"/>
</g>
<g id="svg_25">
	<circle id="svg_26" fill="#1D5B86" cx="349.671" cy="251.753" r="1.37"/>
	<path id="svg_27" fill="#1D5B86" d="M394.05,262.474c-1.304,0.303-2.325,0.305-3.989,0.174c-1.61-0.877-2.174-1.439-3.274-2.643
		c3.825-0.063,4.481-0.18,4.481-0.18C392.798,260.942,394.002,262.421,394.05,262.474L394.05,262.474z M371.018,266.324
		c-0.497-0.275-2.991-1.322-4.205-2.7c2.396-0.091,3.648-0.364,8.245-1.465c1.189,0.646,2.165,1.308,3.578,2.688
		C377.33,265.498,374.063,266.484,371.018,266.324L371.018,266.324z M383.144,259.932c2.641,3.148,6.066,5.023,6.066,5.023
		c5.051,1.04,8.888-1.14,8.888-1.14s-0.899-1.865-3.79-4.596c0.655-0.076,2.639-0.69,3.348-0.913c0,0,2.584,3.34,4.913,5.099
		c4.018,3.036,8.346,4.181,8.346,4.181s1.853-2.793,1.821-7.094c-0.017-2.316-0.292-3.654-0.671-4.815
		c-0.083-0.256-0.588-2.146-0.632-2.381c0.752-0.854,1.841-2.334,2.859-4.419c2.273-4.647,1.861-6.896,1.861-6.896
		s-0.979-0.283-1.67-0.323c-0.665-0.041-8.257-0.74-15.579,4.384c-4.221-2.719-7.304-3.851-12.122-5.523
		c0.255-5.026-1.839-9.839-2.555-11.528c-0.037-0.091-0.153-0.299-0.153-0.299s-0.202-0.026-0.552-0.009
		c-1.422,0.065-15.239,1.782-24.677,11.347l-0.003-0.035c-12.126,2.477-19.065,8.551-20.466,10.414
		c-0.142,0.19-0.399,0.701-0.399,0.701s0.748,0.791,2.007,1.604c-1.001,0.976-1.303,1.932-1.303,1.932
		c0.65,0.995,3.098,3.065,6.882,4.257c0.853,0.268,1.674,0.639,2.719,1.141c2.174,1.039,5.119,2.652,10.757,3.51
		c1.451,0.222,3.583,0.413,3.583,0.413c4.455,3.847,7.92,4.874,7.92,4.874s7.098,0.285,12.053-3.142c0,0-0.944-1.79-4.408-4.533
		c0.752-0.368,2.258-1.2,2.258-1.2S381.455,260.059,383.144,259.932L383.144,259.932z M413.069,244.311
		c0.035,0.996-0.609,2.394-1.111,3.427c-0.868,1.774-1.75,3.015-2.482,3.847c-0.456,0.521-1.01,1.176-1.01,1.176
		s0.59,2.313,0.779,2.855c0.986,2.79,1.181,5.209,0.126,8.803c-1.138-0.248-3.783-1.637-5.731-3.29
		c-1.346-1.143-3.077-2.954-3.388-3.875c2.231-0.864,3.609-2.813,3.869-4.444c0.211-1.328-0.636-3.026-2.275-4.599
		c-0.19-0.189-0.459-0.389-0.663-0.567C406.734,244.298,411.333,244.075,413.069,244.311L413.069,244.311z M342.036,254.387
		c0.96-0.756,1.438-1.591,1.538-1.818c0.104-0.23,0.153-0.366,0.153-0.366s-0.27-0.283-0.406-0.386
		c-0.258-0.197-0.834-0.651-1.655-1.049c0,0,0.056,0.029,0,0c0.794-0.656,3.938-3.994,12.201-6.808
		c1.794-0.341,4.142-0.133,4.801,2.722c0.465,2.015-1.539,3.674-2.271,4.36c1.108,0.46,2.969,1.53,2.74,3.787
		c-0.379,3.745-3.688,5.225-6.331,4.35c-1.387-0.521-2.456-1.034-3.401-1.487c-1.099-0.523-2.047-0.979-3.114-1.288
		C344.104,255.766,342.357,254.744,342.036,254.387L342.036,254.387z M358.205,260.727c4.506-2.148,4.806-8.058,1.697-10.244
		c2.927-2.064,1.313-6.888-0.532-7.644c4.509-2.155,12.874-2.862,24.023-0.525c0.063,0.013,6.396,1.447,11.6,4.295
		c3.944,2.158,6.312,4.279,6.264,5.813c-0.069,2.283-4.761,4.532-10.98,4.902c-7.113,0.424-10.261-0.167-10.261-0.167
		s-3.887,2.262-9.199,3.435C366.528,261.54,361.393,261.538,358.205,260.727L358.205,260.727z M374.899,238.522
		c-5.314-0.438-10.235,0.154-10.235,0.154c5.953-4.632,15.298-7.214,17.605-7.187c0.353,0.721,1.901,4.014,1.696,8.377
		C383.968,239.868,380.253,238.965,374.899,238.522L374.899,238.522z"/>
</g>
<path fill="#1F5B87" d="M553.821,46.883V58.21h-4.416l-1.087-6.848l-0.96-0.832h-7.68v34.813l1.088,1.023l4.16,0.32v3.136h-19.134
	v-3.136l4.16-0.32l1.088-1.023V50.53h-7.68l-1.024,0.832l-1.024,6.848h-4.416V46.883H553.821z"/>
<path fill="#1F5B87" d="M569.734,42.53v19.327c4.096-2.24,7.616-3.968,11.327-3.968c4.16,0,8.448,2.368,8.448,10.688v17.15
	l0.831,0.896l3.328,0.32v2.88h-15.743v-2.88l2.816-0.32l0.896-0.896V70.432c0-3.712-1.664-6.976-5.76-6.976
	c-2.367,0-4.991,0.768-6.144,1.152v21.118l0.96,0.896l2.752,0.32v2.88h-15.743v-2.88l3.265-0.32l0.896-0.896V48.034h-4.607v-2.496
	l9.407-3.008H569.734z"/>
<path fill="#1F5B87" d="M626.797,86.623c-2.688,1.536-7.424,3.776-13.119,3.776c-5.76,0-9.407-2.112-11.647-4.416
	c-1.855-1.92-4.287-5.567-4.287-11.583c0-5.248,1.92-9.6,4.928-12.479c1.983-1.855,5.503-4.031,11.007-4.031
	c11.711,0,13.183,8.896,13.183,15.615h-20.926c0,5.312,1.855,11.839,10.367,11.839c2.239,0,5.76-0.512,10.495-3.456V86.623z
	 M618.477,70.112V69.6c0-5.247-2.432-8.255-5.567-8.255s-6.656,3.136-6.656,8.767H618.477z"/>
<path fill="#1F5B87" d="M681.642,46.883V58.21h-4.416l-1.088-6.848l-0.96-0.832H667.5v34.813l1.088,1.023l4.159,0.32v3.136h-19.135
	v-3.136l4.16-0.32l1.088-1.023V50.53h-7.68l-1.023,0.832l-1.024,6.848h-4.416V46.883H681.642z"/>
<path fill="#1F5B87" d="M682.197,86.943l3.393-0.32l0.896-0.896V63.649h-4.607v-2.561l9.407-3.007h3.071l-0.256,6.527
	c3.328-3.456,6.144-5.568,7.487-6.527c0.192,0,1.024-0.129,1.601-0.129c0.64,0,1.6,0.192,2.176,0.32
	c0.512,0.128,1.279,0.512,1.855,0.768l-0.832,8.832h-3.327c-0.641-1.024-1.984-2.368-3.84-2.368c-1.664,0-3.648,1.024-4.864,1.856
	v18.366l0.96,0.896l4.544,0.32v2.88h-17.663V86.943z"/>
<path fill="#1F5B87" d="M730.171,86.176c-3.456,2.239-7.039,4.224-10.943,4.224c-5.823,0-8.511-3.712-8.511-8.575
	c0-5.504,4.352-7.68,7.551-8.832c3.2-1.151,9.6-2.623,11.903-3.136v-1.92v-0.575c0-2.177-0.256-6.016-6.016-6.016
	c-0.96,0-1.855,0.128-3.071,0.319v6.016h-5.888c-1.344,0-2.944-0.512-2.944-2.176c0-0.96,0.257-3.392,3.968-5.376
	c3.712-1.983,8.128-2.239,10.624-2.239c1.855,0,6.015,0.128,8.447,2.432c2.495,2.304,2.752,5.888,2.752,8.896v16.511l0.831,0.896
	l3.328,0.32v2.88h-11.199L730.171,86.176z M730.171,73.12c-5.247,0.96-10.879,2.816-10.879,7.552c0,3.84,2.56,4.735,4.735,4.735
	c1.792,0,3.392-0.64,6.144-1.855V73.12z"/>
<path fill="#1F5B87" d="M745.891,86.943l3.265-0.32l0.896-0.896V63.649H745.7v-2.561l9.151-3.007h3.071v3.775
	c3.328-1.92,7.68-3.968,11.264-3.968c7.936,0,8.447,8.191,8.447,10.688v17.15l0.832,0.896l3.327,0.32v2.88h-15.742v-2.88l2.815-0.32
	l0.896-0.896V70.625c0-3.84-1.536-7.168-5.76-7.168c-0.576,0-2.368,0.064-6.08,1.152v21.118l0.896,0.896l2.815,0.32v2.88h-15.743
	V86.943z"/>
<path fill="#1F5B87" d="M808.778,67.936h-3.84l-0.64-4.8l-0.769-0.703c-1.92-0.96-3.327-1.088-4.287-1.088
	c-1.92,0-4.8,0.703-4.8,4.096c0,1.728,1.088,3.008,6.335,5.631c4.864,2.368,6.592,3.584,7.616,4.8
	c1.216,1.472,1.344,2.752,1.344,4.16c0,4.991-2.944,10.367-13.247,10.367c-2.112,0-6.144-0.32-10.367-1.472v-9.472h3.903
	l0.704,5.504l0.64,0.703c2.24,1.089,4.032,1.28,5.12,1.28c4.352,0,5.695-1.792,5.695-4.672c0-1.792-0.576-2.88-5.439-5.056
	c-6.399-2.88-10.175-4.928-10.175-9.854c0-7.552,8.255-9.472,12.734-9.472c2.176,0,5.632,0.256,9.472,1.536V67.936z"/>
<path fill="#1F5B87" d="M829.426,45.474c-1.663,2.239-2.304,4.991-2.304,10.175v3.84h14.207l3.521-1.728h2.943v27.966l0.896,0.896
	l3.712,0.32v2.88h-16.639v-2.88l3.2-0.32l0.96-0.896V63.329h-12.8v22.398l1.024,0.896l3.327,0.32v2.88h-16.383v-2.88l3.2-0.32
	l0.96-0.896V63.329h-4.16v-2.432l4.16-1.92c0.064-5.823,1.728-9.919,5.376-13.183c2.688-2.368,5.887-3.648,8.895-3.648
	c3.072,0,5.056,1.6,5.056,4.16c0,1.728-0.831,2.943-2.943,4.352L829.426,45.474z M848.881,48.354c0,2.495-1.92,4.415-4.416,4.415
	c-2.495,0-4.352-1.855-4.352-4.415s1.792-4.352,4.479-4.352C847.025,44.003,848.881,45.923,848.881,48.354z"/>
<path fill="#1F5B87" d="M888.688,59.873v3.648h-6.912c1.345,2.176,1.473,4.031,1.473,4.735c0,1.728-0.32,4.863-3.264,7.487
	c-3.2,2.816-7.488,3.328-10.367,3.328c-0.704,0-1.345,0-1.856-0.064c-0.128,0.32-0.512,1.28-0.512,2.496
	c0,0.512,0.128,1.152,0.191,1.6l4.353,0.576c5.631,0.768,8.127,1.664,9.471,2.304c2.944,1.408,4.544,3.136,4.544,6.144
	c0,2.496-0.96,5.952-5.567,8.703c-1.601,0.96-5.439,2.88-11.647,2.88c-5.056,0-7.808-1.279-8.831-1.855
	c-3.136-1.664-4.416-4.16-4.416-7.04c0-4.607,3.136-6.527,6.592-6.911c-0.704-1.216-0.832-2.56-0.832-3.136
	c0-2.88,1.92-4.672,3.52-6.144c-4.544-1.408-7.936-4.416-7.936-9.472c0-3.711,1.536-6.144,3.2-7.743
	c1.92-1.792,5.247-3.52,10.751-3.52c1.728,0,4.672,0.256,8.575,1.983H888.688z M865.842,88.607c-1.088,0.96-2.624,2.815-2.624,5.247
	c0,3.008,2.624,6.4,7.552,6.4c4.032,0,7.424-2.688,7.424-6.016c0-0.96-0.256-2.048-1.344-2.944
	c-0.513-0.384-1.664-1.151-5.568-1.792L865.842,88.607z M864.882,68.449c0,3.071,1.664,7.743,5.248,7.743
	c1.023,0,2.752-0.384,3.968-2.368c1.151-1.92,1.279-4.287,1.279-5.312c0-5.888-3.392-7.615-5.247-7.615
	C865.906,60.897,864.882,66.465,864.882,68.449z"/>
<path fill="#1F5B87" d="M903.13,57.889v19.839c0,1.407,0.063,3.839,1.407,5.439c1.28,1.535,3.072,1.728,4.48,1.728
	c1.535,0,3.711-0.384,5.695-1.023V63.457h-4.16v-2.496l9.088-3.071h2.943v27.838l0.896,0.896l3.264,0.32v2.88h-12.031v-3.52
	c-2.88,1.855-6.592,4.096-10.943,4.096c-7.359,0-8.512-7.04-8.512-10.943V63.457h-4.159v-2.496l8.959-3.071H903.13z"/>
<path fill="#1F5B87" d="M930.817,86.943l3.393-0.32l0.896-0.896V63.649h-4.607v-2.561l9.407-3.007h3.071l-0.256,6.527
	c3.328-3.456,6.144-5.568,7.487-6.527c0.192,0,1.024-0.129,1.601-0.129c0.64,0,1.6,0.192,2.176,0.32
	c0.512,0.128,1.279,0.512,1.855,0.768l-0.832,8.832h-3.327c-0.641-1.024-1.984-2.368-3.84-2.368c-1.664,0-3.648,1.024-4.864,1.856
	v18.366l0.96,0.896l4.544,0.32v2.88h-17.663V86.943z"/>
<path fill="#1F5B87" d="M978.791,86.176c-3.456,2.239-7.039,4.224-10.943,4.224c-5.823,0-8.511-3.712-8.511-8.575
	c0-5.504,4.352-7.68,7.551-8.832c3.2-1.151,9.6-2.623,11.903-3.136v-1.92v-0.575c0-2.177-0.256-6.016-6.016-6.016
	c-0.96,0-1.855,0.128-3.071,0.319v6.016h-5.888c-1.344,0-2.944-0.512-2.944-2.176c0-0.96,0.257-3.392,3.968-5.376
	c3.712-1.983,8.128-2.239,10.624-2.239c1.855,0,6.015,0.128,8.447,2.432c2.495,2.304,2.751,5.888,2.751,8.896v16.511l0.832,0.896
	l3.328,0.32v2.88h-11.199L978.791,86.176z M978.791,73.12c-5.247,0.96-10.879,2.816-10.879,7.552c0,3.84,2.56,4.735,4.735,4.735
	c1.792,0,3.392-0.64,6.144-1.855V73.12z"/>
<path fill="#1F5B87" d="M993.744,63.329v-2.432l4.735-2.688l3.328-6.656h3.968v7.936h9.472v3.84h-9.472v15.935
	c0,5.504,2.624,6.208,5.376,6.208c1.279,0,2.495-0.064,4.096-0.448v3.072c-3.136,1.023-7.936,2.048-9.536,2.048
	c-7.551,0-7.807-3.904-7.807-8.191V63.329H993.744z"/>
<path fill="#1F5B87" d="M1030.455,58.082v27.646l0.96,0.896l3.647,0.32v2.88h-16.895v-2.88l3.52-0.32l0.896-0.896V63.649h-4.288
	v-2.561l9.087-3.007H1030.455z M1026.743,43.554c2.624,0,4.735,2.111,4.735,4.735s-2.111,4.736-4.735,4.736
	s-4.735-2.112-4.735-4.736S1024.119,43.554,1026.743,43.554z"/>
<path fill="#1F5B87" d="M1066.717,61.665c2.304,1.984,5.12,5.888,5.12,12.479c0,12.927-9.407,16.255-16.447,16.255
	c-8.831,0-16.19-4.992-16.19-16.127c0-11.711,7.871-16.383,16.767-16.383C1060.637,57.889,1064.22,59.489,1066.717,61.665z
	 M1049.758,65.121c-0.832,1.664-1.728,4.352-1.728,8.959c0,4.544,1.408,12.863,7.424,12.863c6.207,0,7.551-8.383,7.551-12.671
	c0-3.584-1.151-12.927-7.551-12.927C1052.126,61.345,1050.526,63.649,1049.758,65.121z"/>
<path fill="#1F5B87" d="M1076.19,86.943l3.265-0.32l0.896-0.896V63.649h-4.352v-2.561l9.151-3.007h3.071v3.775
	c3.328-1.92,7.68-3.968,11.264-3.968c7.936,0,8.447,8.191,8.447,10.688v17.15l0.832,0.896l3.327,0.32v2.88h-15.742v-2.88l2.815-0.32
	l0.896-0.896V70.625c0-3.84-1.536-7.168-5.76-7.168c-0.576,0-2.368,0.064-6.08,1.152v21.118l0.896,0.896l2.815,0.32v2.88h-15.743
	V86.943z"/>
<path fill="#1F5B87" d="M537.694,123.682c3.84,0,13.759,1.023,13.759,9.919c0,6.464-4.352,8.959-9.151,10.111v0.128h0.384
	c7.488,0,11.263,4.8,11.263,10.495c0,11.071-12.031,12.287-16.127,12.287h-19.966v-3.136l3.84-0.32l1.024-1.023v-34.109
	l-1.024-0.896l-3.84-0.319v-3.136H537.694z M531.167,142.753c0.448,0.063,1.024,0.063,1.792,0.063c2.176,0,5.312-0.319,7.295-1.983
	c2.048-1.728,2.368-4.224,2.368-6.144c0-2.048-0.448-4.352-2.368-5.888c-1.984-1.536-5.056-1.664-6.976-1.664
	c-0.896,0-1.536,0.064-2.112,0.128V142.753z M531.167,162.975c0.768,0.063,1.856,0.128,2.944,0.128c2.304,0,6.208-0.128,8.575-2.304
	c1.984-1.792,2.304-4.288,2.304-6.271c0-2.112-0.32-4.992-3.136-6.72c-2.24-1.408-5.759-1.472-7.04-1.472
	c-0.384,0-1.216,0-3.647,0.128V162.975z"/>
<path fill="#1F5B87" d="M559.239,163.743l3.393-0.32l0.896-0.896v-22.078h-4.607v-2.561l9.407-3.008h3.071l-0.256,6.528
	c3.328-3.456,6.144-5.568,7.487-6.528c0.192,0,1.024-0.128,1.601-0.128c0.64,0,1.6,0.192,2.176,0.32
	c0.512,0.128,1.279,0.512,1.855,0.768l-0.832,8.832h-3.327c-0.641-1.024-1.984-2.368-3.84-2.368c-1.664,0-3.648,1.024-4.864,1.856
	v18.366l0.96,0.896l4.544,0.32v2.88h-17.663V163.743z"/>
<path fill="#1F5B87" d="M615.404,138.465c2.304,1.984,5.12,5.888,5.12,12.479c0,12.927-9.407,16.255-16.447,16.255
	c-8.831,0-16.19-4.992-16.19-16.127c0-11.711,7.871-16.383,16.767-16.383C609.325,134.689,612.908,136.289,615.404,138.465z
	 M598.445,141.921c-0.832,1.664-1.728,4.352-1.728,8.959c0,4.544,1.408,12.863,7.424,12.863c6.207,0,7.551-8.384,7.551-12.671
	c0-3.584-1.151-12.927-7.551-12.927C600.813,138.145,599.214,140.449,598.445,141.921z"/>
<path fill="#1F5B87" d="M624.535,140.129v-2.432l4.735-2.688l3.328-6.656h3.968v7.936h9.472v3.84h-9.472v15.935
	c0,5.504,2.624,6.208,5.376,6.208c1.279,0,2.495-0.064,4.096-0.448v3.072c-3.136,1.023-7.936,2.048-9.536,2.048
	c-7.551,0-7.807-3.904-7.807-8.191v-18.623H624.535z"/>
<path fill="#1F5B87" d="M662.461,119.33v19.327c4.096-2.24,7.616-3.968,11.327-3.968c4.16,0,8.448,2.368,8.448,10.688v17.15
	l0.831,0.896l3.328,0.32v2.88h-15.743v-2.88l2.816-0.32l0.896-0.896v-15.295c0-3.712-1.664-6.976-5.76-6.976
	c-2.367,0-4.991,0.769-6.144,1.152v21.118l0.96,0.896l2.752,0.32v2.88h-15.743v-2.88l3.265-0.32l0.896-0.896v-37.693h-4.607v-2.496
	l9.407-3.008H662.461z"/>
<path fill="#1F5B87" d="M719.523,163.423c-2.688,1.536-7.424,3.776-13.119,3.776c-5.76,0-9.407-2.112-11.647-4.416
	c-1.855-1.92-4.287-5.567-4.287-11.583c0-5.248,1.92-9.6,4.928-12.479c1.983-1.855,5.503-4.031,11.007-4.031
	c11.711,0,13.183,8.896,13.183,15.615h-20.926c0,5.312,1.855,11.839,10.367,11.839c2.239,0,5.76-0.512,10.495-3.456V163.423z
	 M711.204,146.912V146.4c0-5.247-2.432-8.255-5.567-8.255s-6.656,3.136-6.656,8.767H711.204z"/>
<path fill="#1F5B87" d="M724.492,163.743l3.393-0.32l0.896-0.896v-22.078h-4.607v-2.561l9.407-3.008h3.071l-0.256,6.528
	c3.328-3.456,6.144-5.568,7.487-6.528c0.192,0,1.024-0.128,1.601-0.128c0.64,0,1.6,0.192,2.176,0.32
	c0.512,0.128,1.279,0.512,1.855,0.768l-0.832,8.832h-3.327c-0.641-1.024-1.984-2.368-3.84-2.368c-1.664,0-3.648,1.024-4.864,1.856
	v18.366l0.96,0.896l4.544,0.32v2.88h-17.663V163.743z"/>
<path fill="#1F5B87" d="M763.891,119.33v19.327c4.096-2.24,7.616-3.968,11.327-3.968c4.16,0,8.447,2.368,8.447,10.688v17.15
	l0.832,0.896l3.328,0.32v2.88h-15.743v-2.88l2.816-0.32l0.896-0.896v-15.295c0-3.712-1.664-6.976-5.76-6.976
	c-2.367,0-4.991,0.769-6.144,1.152v21.118l0.96,0.896l2.752,0.32v2.88H751.86v-2.88l3.265-0.32l0.896-0.896v-37.693h-4.607v-2.496
	l9.407-3.008H763.891z"/>
<path fill="#1F5B87" d="M819.418,138.465c2.304,1.984,5.12,5.888,5.12,12.479c0,12.927-9.407,16.255-16.447,16.255
	c-8.831,0-16.19-4.992-16.19-16.127c0-11.711,7.871-16.383,16.767-16.383C813.339,134.689,816.922,136.289,819.418,138.465z
	 M802.459,141.921c-0.832,1.664-1.728,4.352-1.728,8.959c0,4.544,1.408,12.863,7.424,12.863c6.207,0,7.551-8.384,7.551-12.671
	c0-3.584-1.151-12.927-7.551-12.927C804.827,138.145,803.227,140.449,802.459,141.921z"/>
<path fill="#1F5B87" d="M857.794,138.465c2.304,1.984,5.12,5.888,5.12,12.479c0,12.927-9.408,16.255-16.447,16.255
	c-8.831,0-16.19-4.992-16.19-16.127c0-11.711,7.871-16.383,16.767-16.383C851.715,134.689,855.298,136.289,857.794,138.465z
	 M840.835,141.921c-0.832,1.664-1.728,4.352-1.728,8.959c0,4.544,1.408,12.863,7.424,12.863c6.207,0,7.551-8.384,7.551-12.671
	c0-3.584-1.151-12.927-7.551-12.927C843.203,138.145,841.603,140.449,840.835,141.921z"/>
<path fill="#1F5B87" d="M886.507,124.898v-2.561l9.472-3.008h3.071v43.197l0.896,0.896l3.265,0.32v2.88h-12.031v-3.584
	c-2.944,2.176-6.336,4.16-10.111,4.16c-6.527,0-12.415-5.695-12.415-15.359c0-12.863,8.895-17.15,16.767-17.15
	c1.728,0,3.903,0.256,5.76,0.576v-10.367H886.507z M891.178,139.169c-2.112-0.64-3.2-1.023-4.736-1.023
	c-6.847,0-9.215,6.016-9.215,12.351c0,5.312,1.664,11.264,8.831,11.264c0.896,0,2.56-0.192,5.12-1.216V139.169z"/>
</svg>
