<svg width="1101" height="366.054" xmlns="http://www.w3.org/2000/svg">
 <g>
  <title>background</title>
  <rect x="-1" y="-1" width="1103" height="368.054" id="canvas_background" fill="none"/>
 </g>

 <g>
  <title>Layer 1</title>
  <g id="Слой_1">
   <path d="m440.719,264.545l-2.936,1.504c-42.056,19.082 -109.949,41.793 -194.783,41.793c-55.607,0 -93.65,-11.52 -130.441,-22.662c-34.538,-10.459 -67.159,-20.338 -111.351,-20.338l0,13.028c42.192,0 73.884,9.598 107.438,19.76c37.731,11.426 76.748,23.24 134.354,23.24c85.505,0 154.275,-22.439 197.719,-41.816l0,-14.509z" fill="#1D5B86" id="svg_1"/>
   <path d="m440.719,74.133c-31.307,-8.828 -75.806,-18.918 -118.219,-18.918c-43.394,0 -79.412,9.09 -114.246,17.881c-34.875,8.801 -70.936,17.902 -114.754,17.902c-36.537,0 -74.815,-9.07 -89.226,-12.548c-1.158,-0.279 -2.178,-0.692 -3.066,-0.902l0,13.05c14.911,3.598 54.231,13.066 92.292,13.066c45.496,0 82.384,-9.31 118.058,-18.312c35.601,-8.984 69.227,-17.471 110.942,-17.471c42.528,0 87.647,10.657 118.219,19.48l0,0l0,-13.228z" fill="#1D5B86" id="svg_2"/>
   <path d="m25.865,23.318l8.619,0l0,42.49l-8.619,0l0,-42.49z" fill="#1D5B86" id="svg_3"/>
   <path d="m79.402,64.473c-1.295,0.446 -2.631,0.8 -4.006,1.063c-1.376,0.264 -2.772,0.455 -4.188,0.577c-0.486,0.04 -0.962,0.07 -1.427,0.091c-0.465,0.02 -0.921,0.03 -1.366,0.03c-5.989,0 -11.168,-1.791 -15.539,-5.372c-4.371,-3.581 -6.556,-8.932 -6.556,-16.055c0,-6.717 2.114,-12.058 6.343,-16.024c4.228,-3.965 10.005,-5.949 17.33,-5.949c1.375,0 2.641,0.071 3.794,0.212c1.153,0.142 2.276,0.334 3.369,0.577c0.364,0.122 0.738,0.233 1.123,0.334c0.384,0.102 0.759,0.212 1.123,0.334l-0.364,7.284c-1.376,-0.566 -2.752,-0.971 -4.127,-1.214c-1.376,-0.243 -2.813,-0.364 -4.31,-0.364c-4.331,0 -7.942,1.265 -10.835,3.794c-2.894,2.529 -4.34,6.161 -4.34,10.896c0,4.856 1.275,8.367 3.824,10.531c2.549,2.166 5.361,3.43 8.438,3.794c0.404,0.041 0.798,0.071 1.184,0.091c0.384,0.021 0.759,0.031 1.123,0.031c1.659,0 3.157,-0.152 4.492,-0.456c1.335,-0.303 2.488,-0.657 3.459,-1.062c0.162,-0.04 0.324,-0.091 0.486,-0.152c0.161,-0.061 0.304,-0.131 0.425,-0.212l0.545,7.221z" fill="#1D5B86" id="svg_4"/>
   <path d="m103.785,23.318l6.798,11.837l1.942,3.581l0.183,0l1.942,-3.581l6.98,-11.837l9.408,0l-12.929,20.274l14.203,22.216l-10.197,0l-8.134,-13.476l-1.821,-3.278l-0.182,0l-1.821,3.278l-8.438,13.476l-9.408,0l14.204,-22.216l-12.93,-20.274l10.2,0z" fill="#1D5B86" id="svg_5"/>
   <path d="m171.596,64.473c-1.296,0.446 -2.632,0.8 -4.007,1.063c-1.376,0.264 -2.772,0.455 -4.188,0.577c-0.485,0.04 -0.961,0.07 -1.426,0.091c-0.466,0.02 -0.921,0.03 -1.366,0.03c-5.989,0 -11.169,-1.791 -15.539,-5.372c-4.37,-3.581 -6.556,-8.932 -6.556,-16.055c0,-6.717 2.114,-12.058 6.343,-16.024c4.229,-3.965 10.006,-5.949 17.33,-5.949c1.375,0 2.641,0.071 3.794,0.212c1.153,0.142 2.276,0.334 3.369,0.577c0.364,0.122 0.737,0.233 1.123,0.334c0.384,0.102 0.759,0.212 1.123,0.334l-0.364,7.284c-1.377,-0.566 -2.753,-0.971 -4.128,-1.214c-1.376,-0.243 -2.813,-0.364 -4.31,-0.364c-4.331,0 -7.942,1.265 -10.835,3.794c-2.894,2.529 -4.34,6.161 -4.34,10.896c0,4.856 1.274,8.367 3.823,10.531c2.55,2.166 5.362,3.43 8.438,3.794c0.404,0.041 0.799,0.071 1.184,0.091c0.385,0.021 0.759,0.031 1.123,0.031c1.659,0 3.156,-0.152 4.492,-0.456c1.335,-0.303 2.488,-0.657 3.46,-1.062c0.161,-0.04 0.323,-0.091 0.485,-0.152c0.161,-0.061 0.304,-0.131 0.425,-0.212l0.547,7.221z" fill="#1D5B86" id="svg_6"/>
   <path d="m151.379,5.424c-0.059,0.117 -0.131,0.232 -0.218,0.348c-0.087,0.117 -0.189,0.233 -0.305,0.348c-1.565,2.262 -3.249,4.176 -5.046,5.742c-1.799,1.566 -4.206,2.349 -7.221,2.349c-1.625,0 -3.162,-0.218 -4.611,-0.653c-1.45,-0.435 -2.755,-0.914 -3.915,-1.436c-0.348,-0.115 -0.667,-0.246 -0.957,-0.391c-0.291,-0.145 -0.58,-0.275 -0.87,-0.392c-0.928,-0.464 -1.885,-0.87 -2.871,-1.218c-0.986,-0.348 -1.972,-0.522 -2.958,-0.522c-0.521,0 -1.087,0.059 -1.696,0.174c-0.608,0.117 -1.232,0.319 -1.87,0.609c-0.755,0.348 -1.494,0.813 -2.219,1.392c-0.726,0.58 -1.378,1.305 -1.957,2.175l-5.221,-3.915c1.508,-2.377 3.248,-4.437 5.221,-6.177c1.971,-1.74 4.494,-2.61 7.568,-2.61c0.985,0 1.972,0.087 2.958,0.261c0.985,0.174 1.942,0.406 2.871,0.696c0.348,0.117 0.696,0.232 1.044,0.348c0.349,0.117 0.666,0.261 0.957,0.435c1.102,0.406 2.073,0.827 2.915,1.261c0.84,0.435 1.666,0.798 2.479,1.088c0.463,0.174 0.941,0.304 1.436,0.391c0.491,0.087 1,0.131 1.522,0.131c0.521,0 1.058,-0.057 1.609,-0.174c0.55,-0.115 1.116,-0.29 1.696,-0.522c0.812,-0.29 1.595,-0.739 2.349,-1.348c0.753,-0.609 1.449,-1.377 2.088,-2.306l5.222,3.916z" fill="#1D5B86" id="svg_7"/>
   <path d="m73.585,5.424c-0.059,0.117 -0.131,0.232 -0.218,0.348c-0.087,0.117 -0.189,0.233 -0.305,0.348c-1.565,2.262 -3.249,4.176 -5.046,5.742c-1.799,1.566 -4.206,2.349 -7.221,2.349c-1.625,0 -3.162,-0.218 -4.611,-0.653c-1.45,-0.435 -2.755,-0.914 -3.915,-1.436c-0.348,-0.115 -0.667,-0.246 -0.957,-0.391c-0.291,-0.145 -0.58,-0.275 -0.87,-0.392c-0.928,-0.464 -1.885,-0.87 -2.871,-1.218c-0.986,-0.348 -1.972,-0.522 -2.958,-0.522c-0.521,0 -1.087,0.059 -1.696,0.174c-0.608,0.117 -1.232,0.319 -1.87,0.609c-0.755,0.348 -1.494,0.813 -2.219,1.392c-0.726,0.58 -1.378,1.305 -1.957,2.175l-5.221,-3.915c1.508,-2.377 3.248,-4.437 5.221,-6.177c1.971,-1.74 4.494,-2.61 7.568,-2.61c0.985,0 1.972,0.087 2.958,0.261c0.985,0.174 1.942,0.406 2.871,0.696c0.348,0.117 0.696,0.232 1.044,0.348c0.349,0.117 0.666,0.261 0.957,0.435c1.102,0.406 2.073,0.827 2.915,1.261c0.84,0.435 1.666,0.798 2.479,1.088c0.463,0.174 0.941,0.304 1.436,0.391c0.491,0.087 1,0.131 1.522,0.131c0.521,0 1.058,-0.057 1.609,-0.174c0.55,-0.115 1.116,-0.29 1.696,-0.522c0.812,-0.29 1.595,-0.739 2.349,-1.348c0.753,-0.609 1.449,-1.377 2.088,-2.306l5.222,3.916z" fill="#1D5B86" id="svg_8"/>
   <circle cx="100.955" cy="151.506" r="7.455" fill="#1D5B86" id="svg_9"/>
   <path d="m86.271,117.182" stroke-width="2.5" stroke="#2E3192" fill="none" id="svg_10"/>
   <path d="m354.093,203.653c-0.651,-9.752 -3.639,-20.122 -4.776,-22.945c6.632,-10.619 8.079,-24.349 8.371,-28.095c0.894,-11.463 -0.456,-19.25 -1.019,-20.64c0,0 -3.42,-0.404 -8.182,-0.009c-11.987,0.994 -21.088,4.239 -31.654,9.244c-10.622,5.032 -22.973,12.535 -30.319,20.185c-10.278,-1.23 -14.273,-1.291 -20.246,-1.209c12.357,-19.85 13.85,-36.694 13.85,-36.694s-2.781,-1.474 -8.867,-3.531c-8.875,-3 -27,-6.5 -51.547,-6.875c-29.387,-0.449 -54.21,5.395 -67.151,11.025c-5.581,-2.304 -11.489,-4.348 -17.697,-5.884c-12.56,-3.108 -24.673,-3.588 -32.771,-3.444c-18.167,0.322 -30.521,2.991 -39.474,5.993c-0.946,0.317 -7.247,2.85 -9.383,4.287c-0.577,0.388 -0.747,0.667 -0.747,0.667s0.025,0.633 0.468,1.957c0.871,2.601 2.47,6.146 4.114,9.337c0.318,0.613 0.354,0.97 0.354,0.97s-0.536,0.329 -1.25,0.689c-2.478,1.253 -6.528,3.096 -8.113,4.511c-0.313,0.279 -0.852,0.751 -0.863,0.928c-0.013,0.214 0.507,1.752 1.489,3.529c2.565,4.642 5.445,9.623 15.438,19.69c2.243,2.26 8.687,10.905 10.896,13.37c0.827,0.923 1.475,1.662 2.037,2.312c-16.022,-2.386 -30.821,-3.991 -46.717,-3.991c-13.826,0 -24.617,1.201 -29.125,1.798l0,12.852c1.381,-0.21 13.221,-1.932 29.125,-1.932c20.042,0 38.613,2.737 60.599,6.354c7.943,2.857 16.361,6.224 23.737,10.064c0,0 -0.942,-1.127 0,0c1.418,8.345 8.731,27.31 12.767,35.896c0.74,1.575 2.59,5.11 2.59,5.11s2.952,1.071 4.274,1.553c2.147,0.782 4.317,1.436 14.063,4.064c12.579,3.394 48.329,7.894 68.272,3.653c1.981,-0.421 2.648,-0.901 2.648,-0.901s-0.021,-1.132 -0.251,-2.168c-0.446,-2.007 -1.237,-5.399 -2.922,-10.818c-0.271,-0.869 -1.126,-2.547 -1.41,-3.354c12.12,-0.291 23.553,-1.97 34.335,-5.214c5.635,3.643 8.911,5.578 12.652,7.404c5.136,2.507 7.448,3.179 7.974,3.404c0.318,0.137 0.339,0.141 0.683,0.034c11.189,-3.464 23.806,-10.955 28.446,-14.867c0,0 -2.368,-2.828 -5.261,-5.655c-1.842,-1.8 -6.558,-5.703 -9.231,-8.008c2.46,-1.743 5.453,-4.002 8.077,-6.217c1.08,0.616 15.89,8.432 25.408,11.779c11.467,4.033 24.009,6.465 28.895,6.991c1.124,0.121 4.006,0.22 4.482,0.167c0.162,-0.018 0.422,-0.047 0.422,-0.047s0.262,-0.557 0.459,-1.14c0.813,-2.401 1.873,-8.006 2.167,-13.192c18.153,-1.257 55.577,-5.244 86.511,-17.445l0,-14.09c-24.84,10.886 -59.05,16.606 -86.627,18.548zm-31.593,-52.276c7.503,-3.394 16.75,-6.064 23.207,-6.51c0.006,3.93 -0.187,6.762 -0.664,10.167c-18.681,2.514 -32.523,9.063 -38.928,12.617c-1.61,-1.414 -3.466,-2.509 -5.447,-3.357c5.586,-4.632 13.648,-9.214 21.832,-12.917zm14.614,30.797c0.823,1.659 2.198,6.472 2.905,10.128c-14.066,-0.756 -21.317,-2.074 -29.578,-3.957c0.456,-1.361 0.603,-2.76 0.809,-4.179c7.207,-0.172 16.338,-0.837 25.864,-1.992zm-27.576,8.529c8.663,1.985 16.103,3.361 31.017,4.131c0.858,3.904 1.383,6.812 1.421,10.237c-3.429,-0.318 -12.219,-1.63 -19.146,-3.521c-7.15,-1.952 -12.298,-4.705 -15.492,-6.561c0.832,-1.4 1.572,-2.831 2.2,-4.286zm27.277,-11.011c-9.328,1.132 -18.406,1.834 -25.482,2.016c0.229,-3.167 -0.129,-4.879 -0.417,-5.979c0.953,-0.202 23.344,-4.93 30.49,-5.805c-0.906,2.972 -3.593,8.222 -4.591,9.768zm-55.825,26.356c-0.156,-3.007 -2.948,-4.215 -4.739,-4.548c1.193,-1.284 2.707,-3.417 2.457,-6.125c4.292,-1.125 7.91,0.478 8.813,2.692c1.146,2.808 -2.248,5.399 -6.531,7.981zm-120.052,31.371c2.113,4.257 3.729,7.154 4.934,9.133c-3.118,-0.626 -6.791,-1.435 -10.525,-2.353c-1.329,-2.282 -3.165,-5.666 -4.62,-9.231c-1.173,-2.875 -2.759,-6.693 -3.528,-9.093c2.257,1.103 4.661,2.245 7.226,3.425c1.125,0.518 2.268,1.012 3.419,1.496c0.718,1.846 2.128,4.678 3.094,6.623zm130.22,-54.335c2.592,-1.709 3.926,-4.342 3.576,-7.61c4.266,0.546 5,3 5.289,3.993c0.727,2.491 -0.023,6.679 -1.565,7.524c0,0 -1.675,-4.366 -7.3,-3.907zm-5.595,10.312c1.729,-1.438 3.438,-3.813 3.941,-7.808c0,0 4.833,-1.089 6.34,1.683c2.073,3.813 -1.76,9.146 -5.677,10.938c-0.716,-3.008 -3.042,-4.293 -4.604,-4.813zm-7.646,-0.355c-0.249,-0.576 -1.875,-2.791 -4.667,-3.249c4.417,-1.708 6.042,-6.875 4.542,-9.875c2.958,-1.083 9.432,1.019 9.208,6.072c-0.083,1.881 -1.294,7.171 -9.083,7.052zm-9.611,21.191c2.694,-3.857 1.177,-7.962 0.861,-8.908c3.459,-1.541 6.794,-2.336 8.164,-0.874c2.415,2.577 0.604,5.678 -9.025,9.782zm-25.903,-0.227c2.347,-0.922 3.932,-2.739 5.001,-4.58c0,0 7.113,-0.912 8.745,4.915c0.764,2.727 0.179,7.129 -10.37,9.276c0.971,-4.241 0.034,-7.595 -3.376,-9.611zm-13.236,7.079l0.258,-0.167c3.492,-2.458 3.806,-6.328 3.815,-6.414c1.514,-0.15 9.127,0.299 9.927,4.155c1.026,4.947 -0.584,7.717 -10.417,8.967c0.708,-3.292 -0.75,-5.583 -3.583,-6.541zm-65,-1.709c2.833,-0.104 5.084,-2.834 5.521,-4.917c4.248,1.506 9.625,4.172 7.389,8.137c-2.138,3.792 -10.077,-1.074 -12.91,-3.22zm-13.417,-6.722c3.065,-0.6 7.125,-3.695 7.5,-9.133c5.04,1.365 11.625,4.875 8.417,11.448c-1.587,3.255 -6.924,4.053 -15.917,-2.315zm131.833,-40.611c8.461,-1.138 9.727,2.606 9.67,4.599c-0.077,2.675 -2.015,4.819 -3.765,5.486c-2.196,-3.377 -4.446,-4.085 -7.405,-4.585c1.834,-1.584 1.875,-4.292 1.5,-5.5zm-15.208,16.958c-1.417,-2.5 -3.208,-3.875 -4.875,-4.458c1.896,-0.677 5.209,-2.875 6,-6.974c0,0 7.042,0.058 7.777,4.582c0.257,1.578 -1.152,7.1 -8.902,6.85zm-8.354,11.55c-0.002,0 -0.003,0 -0.005,0l0,0.001c-0.137,0.008 -0.287,0 -0.431,0.002c-0.376,-5.354 -3.827,-7.556 -5.138,-8.483c2.512,-1.444 3.939,-3.773 4.469,-6.396c4.542,-0.174 7.91,3.031 7.91,7c0,2.061 -0.947,4.58 -2.413,5.969c-0.929,0.88 -2.069,1.77 -4.392,1.907zm-11.02,6.283c0.291,-4.083 -2.125,-6.417 -4.27,-7.808c2.52,-1.025 4.269,-2.984 5.061,-5.617c3.208,-0.116 7.417,2.498 7.417,7.291c0,5.125 -5.917,6.842 -8.208,6.134zm-14.738,5.099c-0.54,-2.008 -1.055,-3.348 -3.055,-4.807l0,0c3.375,-1.458 5.459,-4.291 5.917,-7.333c0,0 10.188,-0.271 9.26,7.06c-0.739,5.839 -7.572,5.981 -12.122,5.08zm-16.638,4.214c2.125,-0.813 5.417,-3.937 5.333,-8.604c2.987,0.039 9.434,0.485 8.917,6.604c-0.187,2.206 -1.813,7.125 -10.688,6.203c-0.849,-1.819 -1.749,-3.266 -3.562,-4.203zm-10.579,-9.73c2.625,-0.592 4.96,-2.224 6.158,-4.887c8.01,0.967 7.796,7.054 6.859,9.067c-1.453,3.121 -4.582,4.57 -10.896,3.32c0.339,-2.248 -0.104,-5.708 -2.121,-7.5zm-15.213,20.792c3.042,-2.313 3.742,-5.156 3.876,-6.958c0.002,-0.023 -0.002,0.023 0,0c6.04,0.333 10.353,2.833 8.561,7.026c-0.383,0.898 -2.437,3.599 -12.437,-0.068zm-13.213,-11.378c2.818,-0.31 5.88,-3.247 6.616,-5.794c5.952,1.047 8.863,5.419 8.084,10.126c-0.745,4.496 -4.007,8.233 -13.964,4.79c0.087,-0.136 0,0 0,0c2.28,-1.691 2.869,-6.032 -0.736,-9.122zm-7.404,-3.869c-0.153,-2.003 -0.278,-3.878 -2.507,-5.961c3.354,-0.604 6.666,-2.708 7.874,-7.125c8.313,1.583 6.875,8.785 6.172,10.663c-2.005,5.358 -7.903,4.35 -11.539,2.423zm87.701,-28.752c-0.267,-2.039 -1.459,-4 -2.959,-4.958l0,0c2.625,-1.208 4.626,-4.5 2.731,-7.853c9.261,-1.322 8.808,4.202 8.686,6.123c-0.281,4.437 -5.416,7.146 -8.458,6.688zm-8.958,7.416c-0.173,-1.296 -1.042,-5.125 -4.868,-6.691c1.909,-1.1 3.492,-2.725 4.284,-5.142c6.042,0.042 7.344,2.635 7.25,5.979c-0.103,3.671 -3.572,6.323 -6.666,5.854zm-12.876,6.708c-0.291,-1.499 -1.25,-3.208 -2.793,-4.131c0.521,-0.185 4.835,-2.411 5.509,-7.888c3.784,-0.73 8.491,1.946 7.851,6.519c-0.316,2.25 -2.275,7.208 -10.567,5.5zm-14.677,7.813c-0.589,-1.158 -1.205,-2.454 -2.531,-3.396c3.438,-0.813 6.542,-3.875 6.815,-8.186c6.685,-0.606 9.31,3.831 7.682,7.524c-0.895,2.033 -3.809,5.901 -11.966,4.058zm-8.74,-6.042c0.459,-2.521 -0.291,-5.646 -3.001,-7.815c3.169,-0.331 4.961,-2.331 6.023,-4.772c5.276,0.629 8.313,4.816 7.485,8.111c-0.607,2.417 -3.376,6.755 -10.507,4.476zm-13.208,4.188c0.228,-1.702 0,-5.208 -2.051,-7.378c3.051,-0.539 5.342,-2.539 6.685,-4.757c6.892,1.543 6.942,6.424 5.97,9.176c-1.416,4.009 -6.917,4.882 -10.604,2.959zm-14.833,3.916c0.166,-1.515 0.167,-4.625 -1.875,-7.313l0,0c2.688,-0.563 6.125,-2.625 7.322,-5.323c8.74,2.386 7.375,9.465 6.214,11.02c-4.286,5.741 -10.927,2.335 -11.661,1.616zm63.958,-30.583c0.032,-1.992 -0.517,-4.633 -2.934,-6.008c6.684,-1.159 9.444,-0.275 10.007,0.841c1.86,3.691 -2.281,6.584 -7.073,5.167zm-9.958,6.209c-0.5,-1.625 -1.625,-3.208 -3.313,-4.167c1.854,-0.708 4.521,-3.792 3.162,-7.432c4.042,-0.076 8.476,0.772 7.934,6.17c-0.405,4.037 -4.427,6.069 -7.783,5.429zm-13.085,8.378c-0.915,-2.545 -2.588,-3.786 -3.646,-4.695l0,0c3.981,-1.309 5.981,-4.176 7.106,-6.364c0,0 4.563,-1.611 6.708,2.055c0.747,1.277 1.457,5.229 -2.388,8.188c-2.028,1.562 -3.655,0.691 -7.78,0.816zm-9.102,-7.254c0.188,-3.25 -0.42,-5.092 -1.438,-6.563c3.792,-0.27 5.964,-3.479 5.964,-6.237l0,0c5.379,0.944 6.634,6.293 5.703,8.55c-1.417,3.438 -5.61,5.693 -10.229,4.25zm-11.646,4.917c0.583,-1.917 0.54,-4.506 -0.375,-6.625c-0.844,-1.955 -2.75,-4.167 -4.25,-4.833c2.083,-0.042 4.271,-0.583 6.75,-2.417c6.271,2.083 8.235,5.221 7.125,9.638c-0.625,2.487 -3.579,6.379 -9.25,4.237zm5.208,-21.167c4.973,0.624 8.792,2.542 8.25,4.875c-0.993,4.275 -7.292,2.125 -9.833,0.333c1.018,-1.397 1.833,-2.958 1.583,-5.208zm19.125,9.938c-0.208,-4.854 -3.28,-6.604 -3.28,-6.604c10.528,-0.948 11.188,0.166 10.49,3.078c-0.93,3.877 -7.21,3.526 -7.21,3.526zm-29.696,-14.544l0,0c10.78,2.28 7.849,7.22 7.466,8.082c-1.457,3.275 -5.728,4.692 -9.478,3.65c0.456,-3.015 -0.542,-6.417 -2.542,-8.25c2.458,-0.084 4.208,-1.834 4.554,-3.482zm-2.922,15.22c2.688,0.767 7.91,3.928 5.629,10.857c-1.028,3.122 -5.177,5.611 -11.344,3.111c0.917,-3.291 -0.25,-7.625 -2.167,-9.5c3.042,0.085 6.292,-1.873 7.882,-4.468zm54.743,-18.665l0,0c-1.972,-0.04 -3.63,0.072 -5.195,0c-12.555,-0.574 -22.555,1.551 -28.233,-0.696c-3.242,-1.283 -5.957,-2.585 -8.372,-3.734c6.73,-1.214 15.7,-2.35 26.089,-2.459c7.068,-0.072 14.008,0.216 20.727,0.836c-1.574,2.361 -3.266,4.493 -5.016,6.053zm-54.626,3.696c-1.538,2.268 -6.026,0.733 -8.701,-0.864c0.074,-0.209 0,0 0,0c0.619,-1.489 0.953,-4.155 0.328,-6.03c9.374,3.249 8.937,6.062 8.373,6.894zm-9.468,1.199l0,0c6.237,2.04 8.814,6.434 7.924,10.637c-1.081,5.103 -7.039,6.061 -10.581,4.353c0.28,-1.684 0.563,-6.958 -3.625,-10.208l0,0c3.126,-0.938 4.969,-2.932 6.282,-4.782zm-3.578,17.784c5.839,2.247 5.63,9.08 4.201,11.237c-1.688,2.547 -6.154,5.447 -11.945,2.802c0.104,-2.417 -1.083,-6.167 -3.021,-7.917c3.741,-0.009 8.125,-1.941 10.765,-6.122zm11.193,35.339c-0.124,-1.737 -0.271,-4.139 -2.771,-6.341c3.083,-0.542 6.125,-3.126 7.054,-5.538c8.055,0.308 7.257,7.62 6.078,9.624c-1.831,3.107 -5.09,3.955 -10.361,2.255zm85.698,-43.811c0.114,3.469 -3.938,4 -3.938,4c-1.893,-1.095 -3.864,-2.156 -7.906,-2.37c0.084,-2.286 -0.754,-4.13 -1.096,-4.671c11.367,-1.539 12.878,1.163 12.94,3.041zm-22.714,-22.617c-7.2,-0.713 -14.655,-1.057 -22.241,-0.979c-12.327,0.13 -22.712,1.683 -29.782,3.125c-4.15,-2.128 -7.269,-4.016 -10.384,-5.973c6.978,-1.539 18.053,-3.39 31.411,-3.53c14.81,-0.166 26.375,1.241 33.661,2.498c-0.816,1.617 -1.71,3.262 -2.665,4.859zm-86.786,6.617c1.5,-0.313 5.906,-2.344 5.281,-7.448c3.099,0.644 6.911,2.677 8.677,5.273c1.118,1.644 1.281,3.843 0.705,5.833c-0.997,3.444 -3.391,4.792 -5.257,5.269c-2.604,0.663 -4.481,0.165 -6.252,-0.773c-0.016,-2.812 -0.965,-5.861 -3.154,-8.154l0,0zm2.982,10.671c4.653,1.195 10.468,5.872 7.185,12.441c-2.843,5.69 -10.476,5.895 -14.261,3.441l0,0c-0.083,-3.542 -1.375,-6.256 -2.292,-7.625c5.25,-0.459 8.583,-4.042 9.368,-8.257zm-7.335,18.656c3.447,0.329 10.701,8.672 4.446,14.518c-3.296,3.081 -8.286,1.185 -12.911,-1.503c-0.307,-1.732 -1.182,-3.232 -2.139,-4.496l0,0c0,0 7.677,0.257 10.604,-8.519zm-18.113,6.995c6.06,1.022 8.491,8.592 6.122,12.335c-3.612,5.707 -10.179,5.42 -16.792,-2.146c4.855,-0.542 9.48,-4.417 10.67,-10.189zm54.819,25.877c1.595,-0.646 2.984,-2.114 3.968,-3.785c0.013,-0.021 0.083,-0.006 0.205,-0.014c5.922,-0.389 11.785,2.617 10.443,9.007c-0.354,1.686 -2.028,6.087 -12.96,3.8c1.661,-1.422 2.605,-6.113 -1.656,-9.008zm17.178,2.895c3.416,-0.583 9.334,-0.749 9.786,2.352c0.198,1.362 0.214,5.398 -12.127,4.369c2.812,-2.375 2.421,-5.806 2.341,-6.721zm38.038,-5.062c1.212,-3.271 -0.371,-7.938 -4.819,-9.813c1.865,-1.083 3.47,-2.603 4.532,-5.009c2.875,-0.708 6.172,-0.001 7.28,1.45c3.386,4.434 1.79,10.705 -6.993,13.372l0,0zm9.541,-14.801c-0.787,-0.978 -2.246,-1.812 -3.746,-2.187c2.917,-2.291 4.042,-5.991 3.709,-9.491c7.551,-0.53 8.631,3.53 8.416,5.042c-0.451,3.179 -4.142,6.26 -8.379,6.636zm-6.522,-59.045c-7.343,-1.301 -19.332,-2.819 -34.823,-2.66c-15.209,0.16 -27.538,2.51 -34.361,4.152c-2.166,-1.367 -4.477,-2.809 -7.25,-4.421c-0.96,-0.558 -1.955,-1.139 -2.966,-1.729c6.34,-1.672 20.612,-4.819 38.821,-5.01c20.081,-0.219 35.551,2.313 42.995,4.033c-0.62,1.61 -1.44,3.552 -2.416,5.635zm-88.713,5.283c0.677,0.984 1.013,2.505 0.656,3.667c-0.438,1.427 -3.313,4.396 -9.802,1.528c0.583,-3.25 0.302,-7.32 -2.568,-10.593c7.066,1.411 10.894,4.206 11.714,5.398zm-9.914,7.607c4.07,0.81 10.177,3.798 8.404,11.851c-0.932,4.23 -5.164,5.301 -5.458,5.375c-1.233,0.309 -4.363,0.615 -7.75,-2.25c0.313,-2.333 -0.875,-7.271 -4.673,-9.833c0,0 -0.214,-0.008 0,0c3.172,0.125 7.485,-1.062 9.477,-5.143zm-5.193,17.91c0.061,0.032 -0.062,-0.031 0,0c3.347,1.399 5.381,3.94 6.236,6.841c0.519,1.762 0.894,4.874 -0.919,7.421c-4.431,6.224 -12.047,3.736 -14.288,2.023c-0.016,-2.803 -0.829,-5.99 -2.474,-7.594l0,0c4.521,-0.333 9.583,-2.624 11.445,-8.691zm-19.941,6.288c10.517,3.32 8.548,12.482 7.038,15.32c-1.896,3.563 -8.667,9.417 -17.253,0.973c5.669,-2.473 9.555,-8.486 10.215,-16.293zm77.881,-56.854c20.118,-0.291 40.521,3.142 50.683,6.268c0,0 -0.703,3.328 -1.522,5.502c-7.513,-1.756 -23.349,-4.386 -43.886,-4.172c-21.208,0.223 -37.21,4.409 -41.817,5.753c-3.532,-2.043 -8.079,-3.789 -12.133,-5.927c12.139,-3.771 31.303,-7.165 48.675,-7.424zm-62.481,17.132c7.375,2.042 8.971,7.875 8.221,12.5c-0.933,5.751 -7.219,6.286 -10.381,4.827c0.083,-0.143 0.01,0.005 0.083,-0.143c2.006,-4.058 3.577,-8.684 2.077,-17.184zm-5.113,21.209c3.854,0.146 10.542,6.708 5.854,14.458c-1.085,1.793 -7.688,7 -15.943,0.308c-0.01,-2.494 -0.034,-5.253 -0.777,-7.368c4.045,-1.597 7.839,-3.709 10.866,-7.398zm-39.538,28.179c-4.251,-1.408 -8.997,-3.531 -13.461,-7.596c-6.812,-6.2 -7.343,-6.501 -10.667,-10.5c-2.836,-3.412 -7.605,-9.878 -10.214,-12.377c-4.827,-4.623 -9.577,-8.825 -11.827,-13.498c0,0 5.124,-2.782 7.172,-5.313c0.189,-0.233 0.392,-0.359 0.229,-0.872c-1.025,-3.753 -3.434,-7.548 -3.608,-9.157c5.083,-2.034 23.923,-5.365 39.45,-5.365c7.652,0 20.988,2.027 25.552,3.9c4.707,1.932 7.852,5.889 8.822,9.327c1.728,6.118 0.634,9.827 -2.526,14.375c-1.076,1.549 -5.839,6.417 -11.792,9.025c-0.115,0.05 -0.245,0.109 -0.344,0.189c0,0 0.081,0.279 0.124,0.468c1.964,8.631 1.269,14.377 -0.036,18.048c-2.252,6.333 -7.189,11.997 -16.874,9.346zm30.408,48.416c-2.456,-4.477 -6.034,-14.588 -8.089,-22.031c3.649,2.132 8.008,4.521 13.239,7.152c0.799,2.644 2.695,7.617 4.309,11.572c1.114,2.729 2.42,5.318 3.579,7.434c-4.877,-1.281 -9.598,-2.71 -13.038,-4.127zm30.299,7.981c-1.108,-1.617 -3.62,-5.654 -6.643,-11.743c-0.553,-1.113 -1.064,-2.246 -1.537,-3.361c3.365,1.299 6.822,2.464 10.354,3.486c0.512,1.028 1.647,2.942 2.286,4.025c2.268,3.847 4.243,6.749 5.777,8.83c-2.383,-0.165 -4.664,-0.385 -6.729,-0.664c-0.888,-0.12 -2.087,-0.315 -3.508,-0.573zm13.529,1.427c-1.569,-1.991 -4.571,-6.199 -7.482,-11.139c-0.197,-0.334 -0.385,-0.667 -0.569,-0.998c3.69,0.967 7.446,1.789 11.245,2.458c2.346,3.964 4.94,8.046 6.482,10.112c-3.179,0.049 -6.477,-0.286 -9.676,-0.433zm12.769,0.351c-1.347,-1.704 -3.922,-5.583 -6.333,-9.498c3.836,0.587 7.705,1.026 11.581,1.31c0.707,1.733 3.067,6.446 3.067,7.913c-2.302,0.27 -5.513,0.17 -8.315,0.275zm84.577,-18.988c-2.923,1.79 -6.692,3.32 -8.663,3.787c-2.839,-0.91 -5.214,-2.57 -6.965,-3.754c2.631,-1.257 8.381,-4.453 8.867,-4.734c1.998,1.212 4.384,2.699 6.478,4.418l0.283,0.283zm62.119,-12.085c-4.984,-0.302 -13.616,-2.315 -18.776,-4.283c-5.746,-2.191 -15.604,-6.955 -22.098,-10.461c1.651,-1.936 3.222,-3.962 4.625,-6.06c3.295,1.919 8.658,4.807 16.174,6.859c7.253,1.98 16.562,3.361 20.007,3.633c0.259,3.677 0.349,7.307 0.068,10.312zm0.135,-50.61c-7.194,0.75 -31.252,5.815 -32.298,6.036c-0.709,-1.775 -1.244,-2.71 -2.159,-3.823c6.383,-3.475 19.356,-9.443 36.723,-11.896c-0.459,3.72 -1.357,6.979 -2.266,9.683z" fill="#1D5B86" id="svg_11"/>
   <g id="svg_12">
    <circle cx="300.159" cy="107.51" r="1.37" fill="#1D5B86" id="svg_13"/>
    <path d="m333.242,121.632c0,0 -1.117,-1.986 -4.294,-5.06c2.773,-0.7 5.581,-1.693 8.305,-2.953c3.789,1.588 8.926,1.984 8.926,1.984c4.835,-1.927 6.909,-5.851 6.909,-5.851s-1.928,-1.229 -5.934,-2.243c1.56,-0.757 3.364,-2.765 3.958,-3.47c1.28,0.544 4.258,1.414 7.396,1.512c5.033,0.157 8.86,-1.571 8.86,-1.571s0.001,-3.084 -2.508,-6.578c-1.352,-1.882 -2.35,-2.816 -3.329,-3.544c-0.216,-0.16 -0.462,-0.343 -0.607,-0.531c0.276,-1.104 0.566,-2.919 0.518,-5.237c-0.11,-5.174 -1.505,-6.985 -1.505,-6.985s-1,0.198 -1.635,0.478c-0.61,0.269 -7.678,3.125 -11.839,11.035c-4.38,-0.368 -8.463,0.261 -10.613,0.873c-0.038,-5.033 -1.287,-8.053 -2.1,-9.699c-0.043,-0.087 -0.151,-0.287 -0.151,-0.287s-0.144,-0.052 -0.311,-0.059c-1.267,-0.053 -16.539,1.262 -25.622,11.178c-11.682,4.082 -17.743,11.037 -18.878,13.071c-0.115,0.207 -0.303,0.747 -0.303,0.747s0.848,0.685 2.204,1.321c-0.86,1.101 -1.032,2.088 -1.032,2.088c0.78,0.899 3.483,2.624 7.393,3.293c0.882,0.151 1.745,0.409 2.849,0.764c2.294,0.739 5.435,1.752 11.131,2.032c4.054,4.269 7.398,5.636 7.398,5.636s5.074,0.921 13.313,-1.35c0.873,-0.241 1.501,-0.594 1.501,-0.594zm15.739,-11.111c-1.047,1.189 -2.059,1.836 -3.49,2.424c-1.833,-0.042 -3.438,-0.364 -4.968,-0.928c3.369,-1.81 4.387,-2.618 4.387,-2.618c1.875,0.291 4.004,1.099 4.071,1.122zm-29.832,10.603c-0.466,-0.323 -2.683,-1.776 -3.916,-3.103c2.393,0.146 5.821,-0.125 10.503,-0.765c1.12,0.761 1.759,1.42 3.028,2.933c-1.363,0.518 -6.146,1.341 -9.615,0.935zm-26.202,-9.977c0.852,-0.877 1.21,-1.77 1.28,-2.007c0.072,-0.244 0.103,-0.385 0.103,-0.385s-0.304,-0.244 -0.453,-0.328c-0.283,-0.16 -0.916,-0.532 -1.783,-0.814c0,0 0.06,0.022 0,0c0.698,-0.757 3.364,-4.488 11.174,-8.389c1.732,-0.579 4.088,-0.687 5.125,2.05c0.732,1.934 -1.029,3.849 -1.664,4.628c1.161,0.305 3.146,1.118 3.225,3.384c0.13,3.761 -2.953,5.671 -5.689,5.162c-1.442,-0.332 -2.571,-0.695 -3.57,-1.017c-1.159,-0.373 -2.159,-0.695 -3.258,-0.859c-2.254,-0.335 -4.123,-1.114 -4.49,-1.425zm38.845,-24.613c0.331,0.732 1.667,3.445 1.333,7.799c-0.367,0.125 -2.045,0.68 -2.232,0.756c-5.643,-1.631 -12.726,-2.881 -18.027,-1.432c6.759,-5.324 16.382,-7.228 18.926,-7.123zm-1.19,11.167l0.415,0.102l0.373,-0.138c0.059,-0.022 5.986,-2.415 11.915,-2.612c4.496,-0.149 7.728,0.938 8.224,2.39c0.625,1.832 -1.727,5.507 -6.911,8.964c-11.325,7.551 -20.509,9.926 -34.794,8.848c4.177,-2.735 3.677,-8.631 0.303,-10.38c2.624,-2.438 0.374,-7 -1.555,-7.5c4.011,-1.5 11.595,-2.917 22.03,0.326zm27.66,-13.112c0.488,0.869 0.557,2.408 0.581,3.556c0.042,1.976 -0.172,3.482 -0.442,4.558c-0.168,0.672 -0.358,1.505 -0.358,1.505s0.948,0.793 1.417,1.125c2.417,1.708 4.206,3.617 5.187,7.114c-1.071,0.455 -4.298,0.951 -6.843,0.728c-1.758,-0.156 -4.219,-0.636 -5.005,-1.207c1.323,-1.998 1.724,-3.803 1.189,-5.365c-0.509,-1.491 -1.887,-2.594 -4.065,-3.239c-0.257,-0.082 -0.519,-0.156 -0.784,-0.224c3.403,-5.515 7.471,-7.963 9.123,-8.551z" fill="#1D5B86" id="svg_14"/>
   </g>
   <path d="m268.563,255.708" fill="#2E3192" id="svg_15"/>
   <g id="svg_16">
    <circle cx="249.528" cy="280.536" r="1.37" fill="#1D5B86" id="svg_17"/>
    <path d="m282.611,294.658c0,0 -1.117,-1.986 -4.294,-5.06c2.773,-0.7 5.581,-1.692 8.305,-2.952c3.789,1.588 8.926,1.983 8.926,1.983c4.835,-1.927 6.909,-5.851 6.909,-5.851s-1.928,-1.229 -5.934,-2.244c1.56,-0.757 3.364,-2.765 3.958,-3.47c1.28,0.544 4.258,1.413 7.396,1.512c5.033,0.157 8.86,-1.571 8.86,-1.571s0.001,-3.084 -2.508,-6.578c-1.352,-1.882 -2.35,-2.815 -3.329,-3.544c-0.216,-0.16 -0.462,-0.343 -0.607,-0.53c0.276,-1.104 0.566,-2.92 0.518,-5.238c-0.11,-5.174 -1.505,-6.984 -1.505,-6.984s-1,0.198 -1.635,0.479c-0.61,0.269 -7.678,3.125 -11.839,11.035c-4.38,-0.369 -8.463,0.26 -10.613,0.873c-0.038,-5.033 -1.287,-8.054 -2.1,-9.699c-0.043,-0.088 -0.151,-0.287 -0.151,-0.287s-0.144,-0.052 -0.311,-0.059c-1.267,-0.053 -16.539,1.262 -25.622,11.178c-11.682,4.082 -17.743,11.037 -18.878,13.071c-0.115,0.206 -0.303,0.747 -0.303,0.747s0.848,0.686 2.204,1.32c-0.86,1.102 -1.032,2.088 -1.032,2.088c0.78,0.899 3.483,2.625 7.393,3.293c0.882,0.151 1.745,0.409 2.849,0.764c2.294,0.74 5.435,1.752 11.131,2.032c4.054,4.269 7.398,5.636 7.398,5.636s5.074,0.922 13.313,-1.35c0.873,-0.24 1.501,-0.594 1.501,-0.594zm15.74,-11.111c-1.047,1.189 -2.059,1.836 -3.49,2.424c-1.833,-0.041 -3.438,-0.363 -4.968,-0.928c3.369,-1.81 4.387,-2.617 4.387,-2.617c1.874,0.291 4.003,1.097 4.071,1.121zm-29.832,10.603c-0.466,-0.324 -2.683,-1.777 -3.916,-3.104c2.393,0.146 5.821,-0.125 10.503,-0.766c1.12,0.762 1.759,1.42 3.028,2.934c-1.363,0.518 -6.147,1.343 -9.615,0.936zm-26.203,-9.976c0.852,-0.877 1.21,-1.77 1.28,-2.008c0.072,-0.243 0.103,-0.385 0.103,-0.385s-0.304,-0.244 -0.453,-0.328c-0.283,-0.16 -0.916,-0.531 -1.783,-0.814c0,0 0.06,0.022 0,0c0.698,-0.757 3.364,-4.488 11.174,-8.389c1.732,-0.578 4.088,-0.687 5.125,2.051c0.732,1.934 -1.029,3.849 -1.664,4.629c1.161,0.305 3.146,1.117 3.225,3.384c0.13,3.761 -2.953,5.671 -5.689,5.162c-1.442,-0.331 -2.571,-0.695 -3.57,-1.017c-1.159,-0.373 -2.159,-0.695 -3.258,-0.859c-2.254,-0.336 -4.122,-1.116 -4.49,-1.426zm38.845,-24.613c0.331,0.731 1.667,3.445 1.333,7.799c-0.367,0.125 -2.045,0.68 -2.232,0.756c-5.643,-1.631 -12.726,-2.881 -18.027,-1.432c6.759,-5.325 16.382,-7.229 18.926,-7.123zm-1.19,11.166l0.415,0.103l0.373,-0.138c0.059,-0.021 5.986,-2.415 11.915,-2.611c4.496,-0.15 7.728,0.938 8.224,2.389c0.625,1.832 -1.727,5.508 -6.911,8.965c-11.325,7.551 -20.509,9.926 -34.794,8.848c4.177,-2.734 3.677,-8.631 0.303,-10.38c2.624,-2.438 0.374,-7.001 -1.555,-7.5c4.011,-1.503 11.595,-2.919 22.03,0.324zm27.66,-13.112c0.488,0.869 0.557,2.408 0.581,3.556c0.042,1.976 -0.172,3.481 -0.442,4.558c-0.168,0.673 -0.358,1.506 -0.358,1.506s0.948,0.793 1.417,1.125c2.417,1.709 4.206,3.617 5.187,7.113c-1.071,0.455 -4.298,0.951 -6.843,0.729c-1.758,-0.156 -4.219,-0.636 -5.005,-1.207c1.323,-1.998 1.724,-3.803 1.189,-5.365c-0.509,-1.49 -1.887,-2.594 -4.065,-3.238c-0.257,-0.082 -0.519,-0.156 -0.784,-0.225c3.403,-5.516 7.471,-7.964 9.123,-8.552z" fill="#1D5B86" id="svg_18"/>
   </g>
   <g id="svg_19">
    <circle cx="337.182" cy="342.842" r="1.37" fill="#1D5B86" id="svg_20"/>
    <path d="m370.265,356.964c0,0 -1.117,-1.986 -4.294,-5.06c2.773,-0.7 5.581,-1.692 8.305,-2.952c3.789,1.588 8.926,1.983 8.926,1.983c4.835,-1.927 6.909,-5.851 6.909,-5.851s-1.928,-1.229 -5.934,-2.244c1.56,-0.757 3.364,-2.765 3.958,-3.47c1.28,0.544 4.258,1.413 7.396,1.512c5.033,0.157 8.86,-1.571 8.86,-1.571s0.001,-3.084 -2.508,-6.578c-1.352,-1.882 -2.35,-2.815 -3.329,-3.544c-0.216,-0.16 -0.462,-0.343 -0.607,-0.53c0.276,-1.104 0.566,-2.92 0.518,-5.238c-0.11,-5.174 -1.505,-6.984 -1.505,-6.984s-1,0.198 -1.635,0.479c-0.61,0.269 -7.678,3.125 -11.839,11.035c-4.38,-0.369 -8.463,0.26 -10.613,0.873c-0.038,-5.033 -1.287,-8.054 -2.1,-9.699c-0.043,-0.088 -0.151,-0.287 -0.151,-0.287s-0.144,-0.052 -0.311,-0.059c-1.267,-0.053 -16.539,1.262 -25.622,11.178c-11.682,4.082 -17.743,11.037 -18.878,13.071c-0.115,0.206 -0.303,0.747 -0.303,0.747s0.848,0.686 2.204,1.32c-0.86,1.102 -1.032,2.088 -1.032,2.088c0.78,0.899 3.483,2.625 7.393,3.293c0.882,0.151 1.745,0.409 2.849,0.764c2.294,0.74 5.435,1.752 11.131,2.032c4.054,4.269 7.398,5.636 7.398,5.636s5.074,0.922 13.313,-1.35c0.873,-0.241 1.501,-0.594 1.501,-0.594zm15.739,-11.111c-1.047,1.189 -2.059,1.836 -3.49,2.424c-1.833,-0.041 -3.438,-0.363 -4.968,-0.928c3.369,-1.81 4.387,-2.617 4.387,-2.617c1.875,0.29 4.004,1.097 4.071,1.121zm-29.832,10.603c-0.466,-0.324 -2.683,-1.777 -3.916,-3.104c2.393,0.146 5.821,-0.125 10.503,-0.766c1.12,0.762 1.759,1.42 3.028,2.934c-1.363,0.518 -6.146,1.342 -9.615,0.936zm-26.202,-9.977c0.852,-0.877 1.21,-1.77 1.28,-2.008c0.072,-0.243 0.103,-0.385 0.103,-0.385s-0.304,-0.244 -0.453,-0.328c-0.283,-0.16 -0.916,-0.531 -1.783,-0.814c0,0 0.06,0.022 0,0c0.698,-0.757 3.364,-4.488 11.174,-8.389c1.732,-0.578 4.088,-0.687 5.125,2.051c0.732,1.934 -1.029,3.849 -1.664,4.629c1.161,0.305 3.146,1.117 3.225,3.384c0.13,3.761 -2.953,5.671 -5.689,5.162c-1.442,-0.331 -2.571,-0.695 -3.57,-1.017c-1.159,-0.373 -2.159,-0.695 -3.258,-0.859c-2.255,-0.336 -4.123,-1.115 -4.49,-1.426zm38.844,-24.613c0.331,0.731 1.667,3.445 1.333,7.799c-0.367,0.125 -2.045,0.68 -2.232,0.756c-5.643,-1.631 -12.726,-2.881 -18.027,-1.432c6.759,-5.324 16.383,-7.228 18.926,-7.123zm-1.19,11.166l0.415,0.103l0.373,-0.138c0.059,-0.021 5.986,-2.415 11.915,-2.611c4.496,-0.15 7.728,0.938 8.224,2.389c0.625,1.832 -1.727,5.508 -6.911,8.965c-11.325,7.551 -20.509,9.926 -34.794,8.848c4.177,-2.734 3.677,-8.631 0.303,-10.38c2.624,-2.438 0.374,-7.001 -1.555,-7.5c4.011,-1.502 11.595,-2.918 22.03,0.324zm27.66,-13.111c0.488,0.869 0.557,2.408 0.581,3.556c0.042,1.976 -0.172,3.481 -0.442,4.558c-0.168,0.673 -0.358,1.506 -0.358,1.506s0.948,0.793 1.417,1.125c2.417,1.709 4.206,3.617 5.187,7.113c-1.071,0.455 -4.298,0.951 -6.843,0.729c-1.758,-0.156 -4.219,-0.636 -5.005,-1.207c1.323,-1.998 1.724,-3.803 1.189,-5.365c-0.509,-1.49 -1.887,-2.594 -4.065,-3.238c-0.257,-0.082 -0.519,-0.156 -0.784,-0.225c3.403,-5.516 7.472,-7.964 9.123,-8.552z" fill="#1D5B86" id="svg_21"/>
   </g>
   <g id="svg_22">
    <circle cx="377.073" cy="165.18" r="1.37" fill="#1D5B86" id="svg_23"/>
    <path d="m422.726,164.639c-1.19,0.613 -2.181,0.87 -3.825,1.151c-1.776,-0.453 -2.461,-0.859 -3.824,-1.753c3.69,-1.005 4.298,-1.279 4.298,-1.279c1.76,0.706 3.29,1.843 3.351,1.881zm-21.375,9.406c-0.549,-0.145 -3.226,-0.545 -4.74,-1.581c2.299,-0.679 3.447,-1.252 7.63,-3.452c1.313,0.333 2.421,0.735 4.13,1.724c-1.105,0.953 -4.028,2.713 -7.02,3.309zm10.178,-9.182c3.334,2.401 7.117,3.375 7.117,3.375c5.15,-0.237 8.332,-3.294 8.332,-3.294s-1.33,-1.588 -4.805,-3.521c0.617,-0.234 2.388,-1.318 3.019,-1.708c0,0 3.327,2.599 6.019,3.731c4.642,1.953 9.117,1.996 9.117,1.996s1.107,-3.162 0.019,-7.323c-0.586,-2.242 -1.184,-3.471 -1.836,-4.503c-0.145,-0.227 -1.1,-1.936 -1.199,-2.152c0.518,-1.013 1.209,-2.716 1.684,-4.986c1.058,-5.066 0.106,-7.144 0.106,-7.144s-1.019,-0.032 -1.7,0.098c-0.655,0.125 -8.185,1.316 -14.02,8.086c-4.759,-1.595 -8.027,-1.932 -13.109,-2.367c-0.99,-4.935 -4.205,-9.083 -5.314,-10.544c-0.059,-0.078 -0.223,-0.253 -0.223,-0.253s-0.203,0.025 -0.537,0.127c-1.363,0.417 -14.33,5.484 -21.12,17.078l-0.012,-0.032c-11.142,5.384 -16.373,12.983 -17.27,15.132c-0.091,0.219 -0.216,0.777 -0.216,0.777s0.92,0.583 2.34,1.061c-0.729,1.192 -0.788,2.192 -0.788,2.192c0.878,0.804 3.76,2.211 7.72,2.431c0.893,0.049 1.779,0.207 2.916,0.435c2.363,0.474 5.614,1.31 11.29,0.753c1.461,-0.144 3.573,-0.483 3.573,-0.483c5.267,2.629 8.878,2.774 8.878,2.774s6.948,-1.472 10.907,-6.013c0,0 -1.356,-1.503 -5.391,-3.308c0.638,-0.542 1.893,-1.719 1.893,-1.719s1.006,-0.159 2.61,-0.696zm25.156,-22.513c0.279,0.957 0,2.471 -0.234,3.595c-0.404,1.934 -0.952,3.354 -1.458,4.341c-0.314,0.617 -0.688,1.386 -0.688,1.386s1.14,2.098 1.458,2.576c1.644,2.461 2.426,4.759 2.29,8.5c-1.164,0.041 -4.07,-0.654 -6.366,-1.775c-1.585,-0.776 -3.71,-2.107 -4.238,-2.922c1.951,-1.39 2.807,-3.617 2.655,-5.262c-0.123,-1.34 -1.36,-2.776 -3.338,-3.896c-0.231,-0.138 -0.54,-0.263 -0.783,-0.389c4.558,-4.605 8.96,-5.953 10.702,-6.154zm-66.364,27.264c0.745,-0.968 1,-1.896 1.043,-2.14c0.044,-0.251 0.059,-0.394 0.059,-0.394s-0.33,-0.208 -0.488,-0.274c-0.299,-0.127 -0.97,-0.424 -1.863,-0.606c0,0 0.061,0.015 0,0c0.607,-0.833 2.831,-4.842 10.147,-9.605c1.655,-0.771 3.982,-1.147 5.324,1.455c0.947,1.838 -0.585,3.94 -1.127,4.787c1.188,0.172 3.254,0.753 3.589,2.995c0.557,3.723 -2.289,5.971 -5.065,5.775c-1.472,-0.165 -2.635,-0.398 -3.663,-0.604c-1.194,-0.239 -2.225,-0.445 -3.335,-0.483c-2.277,-0.078 -4.221,-0.639 -4.621,-0.906zm17.233,2.163c3.839,-3.192 2.672,-8.993 -0.879,-10.348c2.329,-2.72 -0.424,-6.998 -2.397,-7.274c3.838,-3.202 11.772,-5.946 23.153,-6.429c0.063,-0.003 6.555,-0.172 12.301,1.305c4.354,1.12 7.17,2.594 7.502,4.092c0.494,2.23 -3.497,5.565 -9.435,7.457c-6.79,2.163 -9.986,2.366 -9.986,2.366s-3.21,3.148 -8.07,5.596c-3.922,1.973 -8.9,3.235 -12.189,3.235zm10.711,-25.633c-5.259,0.884 -9.882,2.671 -9.882,2.671c4.629,-5.955 13.05,-10.759 15.293,-11.302c0.519,0.613 2.832,3.422 3.707,7.701c0,-0.001 -3.821,0.039 -9.118,0.93z" fill="#1D5B86" id="svg_24"/>
   </g>
   <g id="svg_25">
    <circle cx="349.671" cy="251.753" r="1.37" fill="#1D5B86" id="svg_26"/>
    <path d="m394.05,262.474c-1.304,0.303 -2.326,0.305 -3.99,0.174c-1.61,-0.877 -2.174,-1.439 -3.274,-2.642c3.825,-0.064 4.481,-0.18 4.481,-0.18c1.531,1.116 2.735,2.595 2.783,2.648zm-23.032,3.85c-0.497,-0.275 -2.991,-1.322 -4.205,-2.7c2.396,-0.091 3.649,-0.364 8.245,-1.465c1.19,0.646 2.165,1.308 3.578,2.688c-1.306,0.651 -4.573,1.637 -7.618,1.477zm12.126,-6.392c2.641,3.149 6.067,5.024 6.067,5.024c5.05,1.04 8.887,-1.14 8.887,-1.14s-0.899,-1.865 -3.79,-4.596c0.656,-0.076 2.639,-0.69 3.348,-0.913c0,0 2.584,3.34 4.913,5.099c4.018,3.036 8.346,4.181 8.346,4.181s1.852,-2.793 1.821,-7.094c-0.017,-2.316 -0.292,-3.654 -0.671,-4.816c-0.083,-0.255 -0.588,-2.146 -0.632,-2.38c0.752,-0.854 1.841,-2.334 2.86,-4.419c2.273,-4.648 1.861,-6.897 1.861,-6.897s-0.978,-0.283 -1.67,-0.323c-0.665,-0.041 -8.257,-0.74 -15.579,4.384c-4.221,-2.719 -7.304,-3.851 -12.122,-5.524c0.255,-5.026 -1.839,-9.839 -2.555,-11.528c-0.037,-0.091 -0.153,-0.299 -0.153,-0.299s-0.202,-0.026 -0.552,-0.009c-1.422,0.066 -15.239,1.783 -24.677,11.347l-0.002,-0.035c-12.126,2.476 -19.066,8.551 -20.466,10.414c-0.142,0.19 -0.4,0.701 -0.4,0.701s0.748,0.791 2.007,1.604c-1.001,0.975 -1.303,1.931 -1.303,1.931c0.651,0.995 3.098,3.066 6.882,4.257c0.853,0.268 1.674,0.639 2.719,1.141c2.174,1.039 5.119,2.652 10.757,3.51c1.451,0.221 3.583,0.413 3.583,0.413c4.455,3.846 7.92,4.874 7.92,4.874s7.097,0.285 12.053,-3.142c0,0 -0.945,-1.79 -4.409,-4.533c0.752,-0.368 2.258,-1.2 2.258,-1.2s1.01,0.095 2.699,-0.032zm29.925,-15.621c0.035,0.996 -0.609,2.394 -1.111,3.427c-0.868,1.774 -1.75,3.015 -2.483,3.847c-0.456,0.521 -1.009,1.175 -1.009,1.175s0.589,2.314 0.779,2.856c0.986,2.79 1.181,5.209 0.126,8.803c-1.138,-0.248 -3.783,-1.637 -5.732,-3.29c-1.345,-1.143 -3.077,-2.954 -3.387,-3.875c2.231,-0.865 3.609,-2.813 3.869,-4.445c0.211,-1.328 -0.636,-3.026 -2.276,-4.598c-0.19,-0.19 -0.459,-0.389 -0.663,-0.568c5.552,-3.345 10.151,-3.568 11.887,-3.332zm-71.033,10.076c0.96,-0.755 1.437,-1.59 1.538,-1.818c0.104,-0.23 0.153,-0.366 0.153,-0.366s-0.269,-0.283 -0.406,-0.386c-0.258,-0.197 -0.834,-0.651 -1.655,-1.049c0,0 0.055,0.03 0,0c0.794,-0.656 3.937,-3.994 12.201,-6.807c1.794,-0.341 4.142,-0.133 4.801,2.721c0.465,2.015 -1.539,3.674 -2.271,4.361c1.109,0.46 2.969,1.53 2.74,3.787c-0.378,3.745 -3.688,5.224 -6.331,4.349c-1.386,-0.521 -2.456,-1.034 -3.401,-1.487c-1.099,-0.523 -2.047,-0.979 -3.114,-1.288c-2.187,-0.638 -3.934,-1.66 -4.255,-2.017zm16.169,6.34c4.506,-2.148 4.805,-8.057 1.697,-10.244c2.927,-2.064 1.313,-6.888 -0.532,-7.643c4.509,-2.156 12.874,-2.863 24.023,-0.526c0.063,0.013 6.396,1.447 11.6,4.295c3.944,2.158 6.311,4.279 6.264,5.813c-0.07,2.283 -4.761,4.532 -10.981,4.902c-7.113,0.424 -10.261,-0.167 -10.261,-0.167s-3.886,2.262 -9.199,3.435c-4.288,0.948 -9.423,0.946 -12.611,0.135zm16.694,-22.205c-5.314,-0.438 -10.235,0.154 -10.235,0.154c5.953,-4.631 15.298,-7.213 17.605,-7.186c0.353,0.721 1.902,4.014 1.697,8.377c0.001,0.001 -3.713,-0.902 -9.067,-1.345z" fill="#1D5B86" id="svg_27"/>
   </g>
  </g>
  <g id="Слой_2">
   <g id="svg_28">
    <path d="m561.812,47.176l0,3.165l-3.746,0.323l-1.033,1.033l0,34.29l1.033,1.033l3.746,0.323l0,3.164l-18.211,0l0,-3.164l3.939,-0.323l0.969,-1.033l0,-34.936l-18.21,0l0,34.936l1.033,1.033l3.874,0.323l0,3.164l-18.21,0l0,-3.164l3.745,-0.323l1.033,-1.033l0,-34.29l-1.033,-1.033l-3.745,-0.323l0,-3.165l44.816,0z" fill="#1F5B87" id="svg_29"/>
    <path d="m568.521,101.678l3.487,-0.323l0.903,-0.969l0,-36.291l-4.391,0l0,-2.583l9.428,-3.035l2.906,0l0,3.875c3.938,-2.712 6.909,-4.068 10.268,-4.068c2.712,0 6.199,1.033 8.911,4.714c1.808,2.454 3.164,6.07 3.164,10.591c0,5.94 -2.195,9.75 -4.326,12.011c-2.777,2.971 -7.104,4.972 -12.657,4.972c-1.291,0 -3.293,-0.129 -5.359,-0.387l0,10.332l0.969,0.904l4.003,0.258l0,2.906l-17.306,0l0,-2.907zm12.333,-15.046c0.903,0.258 1.937,0.452 3.938,0.452c2.454,0 5.296,-0.904 7.168,-3.293c1.809,-2.26 2.583,-5.683 2.583,-9.105c0,-4.649 -1.421,-7.104 -2.454,-8.266c-1.098,-1.227 -2.97,-2.583 -6.005,-2.583c-0.646,0 -2.519,0.064 -5.23,1.227l0,21.568z" fill="#1F5B87" id="svg_30"/>
    <path d="m640.71,87.277c-2.712,1.55 -7.49,3.81 -13.237,3.81c-5.813,0 -9.493,-2.131 -11.753,-4.456c-1.873,-1.938 -4.326,-5.618 -4.326,-11.688c0,-5.295 1.937,-9.687 4.972,-12.592c2.002,-1.873 5.554,-4.068 11.107,-4.068c11.817,0 13.303,8.976 13.303,15.756l-21.116,0c0,5.36 1.872,11.947 10.461,11.947c2.26,0 5.812,-0.517 10.59,-3.487l0,4.778l-0.001,0zm-8.395,-16.66l0,-0.517c0,-5.295 -2.454,-8.33 -5.618,-8.33s-6.716,3.164 -6.716,8.847l12.334,0z" fill="#1F5B87" id="svg_31"/>
    <path d="m676.222,62.093c2.325,2.002 5.166,5.941 5.166,12.592c0,13.044 -9.492,16.402 -16.596,16.402c-8.911,0 -16.337,-5.037 -16.337,-16.273c0,-11.817 7.942,-16.531 16.918,-16.531c4.715,0 8.33,1.614 10.849,3.81zm-17.113,3.487c-0.839,1.679 -1.743,4.392 -1.743,9.041c0,4.584 1.421,12.979 7.49,12.979c6.265,0 7.62,-8.459 7.62,-12.786c0,-3.616 -1.162,-13.044 -7.62,-13.044c-3.357,0.001 -4.971,2.325 -5.747,3.81z" fill="#1F5B87" id="svg_32"/>
    <path d="m722.711,42.333c-1.033,7.104 -5.359,9.105 -10.01,9.815l-5.101,0.775c-5.554,0.839 -11.624,2.776 -12.205,13.044l0.129,0c2.842,-4.327 7.427,-6.91 12.593,-6.91c5.036,0 8.33,1.873 10.332,3.681c2.97,2.647 4.907,6.522 4.907,12.205c0,12.786 -9.299,16.144 -16.725,16.144c-5.683,0 -9.234,-2.131 -11.172,-3.939c-4.326,-4.004 -5.037,-9.687 -5.037,-14.529c0,-7.426 1.614,-16.531 6.135,-21.568c3.745,-4.197 8.396,-5.166 12.27,-5.683l5.102,-0.646c2.195,-0.258 4.649,-0.646 5.166,-2.39l3.616,0l0,0.001zm-21.633,23.893c-0.84,1.614 -1.743,4.197 -1.743,8.782c0,3.616 0.517,12.592 7.49,12.592c7.297,0 7.62,-9.105 7.62,-12.27c0,-5.876 -1.292,-12.786 -7.556,-12.786c-3.035,0.001 -4.778,1.745 -5.811,3.682z" fill="#1F5B87" id="svg_33"/>
    <path d="m730.455,101.678l3.487,-0.323l0.903,-0.969l0,-36.291l-4.391,0l0,-2.583l9.428,-3.035l2.906,0l0,3.875c3.938,-2.712 6.909,-4.068 10.268,-4.068c2.712,0 6.199,1.033 8.911,4.714c1.808,2.454 3.164,6.07 3.164,10.591c0,5.94 -2.195,9.75 -4.326,12.011c-2.777,2.971 -7.104,4.972 -12.657,4.972c-1.291,0 -3.293,-0.129 -5.359,-0.387l0,10.332l0.969,0.904l4.003,0.258l0,2.906l-17.306,0l0,-2.907zm12.334,-15.046c0.904,0.258 1.938,0.452 3.938,0.452c2.454,0 5.296,-0.904 7.168,-3.293c1.809,-2.26 2.583,-5.683 2.583,-9.105c0,-4.649 -1.42,-7.104 -2.453,-8.266c-1.099,-1.227 -2.971,-2.583 -6.006,-2.583c-0.646,0 -2.519,0.064 -5.23,1.227l0,21.568z" fill="#1F5B87" id="svg_34"/>
    <path d="m792.313,86.826c-3.487,2.26 -7.104,4.262 -11.043,4.262c-5.876,0 -8.588,-3.745 -8.588,-8.653c0,-5.554 4.391,-7.749 7.619,-8.912c3.229,-1.162 9.687,-2.647 12.012,-3.164l0,-1.937l0,-0.582c0,-2.195 -0.259,-6.07 -6.07,-6.07c-0.969,0 -1.873,0.129 -3.1,0.323l0,6.07l-5.941,0c-1.355,0 -2.97,-0.517 -2.97,-2.195c0,-0.969 0.258,-3.422 4.003,-5.424c3.746,-2.002 8.201,-2.26 10.72,-2.26c1.873,0 6.07,0.129 8.524,2.454c2.519,2.325 2.776,5.941 2.776,8.976l0,16.661l0.84,0.904l3.357,0.323l0,2.906l-11.301,0l-0.838,-3.682zm0,-13.174c-5.296,0.969 -10.979,2.841 -10.979,7.62c0,3.875 2.583,4.779 4.779,4.779c1.808,0 3.422,-0.646 6.199,-1.873l0,-10.526l0.001,0z" fill="#1F5B87" id="svg_35"/>
    <path d="m825.241,87.601l3.293,-0.323l0.904,-0.904l0,-10.461l-1.938,0c-1.872,0 -3.1,1.292 -3.681,2.971l-3.357,9.557l0,2.066l-12.141,0l0,-2.906l3.487,-0.452l1.033,-0.775l3.357,-7.426c0.84,-1.808 2.131,-4.326 5.747,-5.102l0,-0.129c-0.387,-0.129 -1.679,-0.646 -2.583,-3.035l-1.679,-4.391c-0.258,-0.646 -0.452,-1.098 -0.904,-1.744l-4.068,2.712c-2.582,-0.323 -3.615,-2.26 -3.615,-4.262c0,-3.874 3.293,-4.456 5.166,-4.456c3.034,0 4.972,2.002 6.586,6.005l1.809,4.585c0.71,1.744 1.485,2.454 1.614,2.583c0.452,0.388 1.227,0.84 2.26,0.84l2.906,0l0,-9.364l-0.904,-0.904l-3.293,-0.323l0,-2.906l15.886,0l0,2.906l-3.294,0.323l-0.904,0.904l0,9.364l2.906,0c1.033,0 1.808,-0.452 2.26,-0.84c0.13,-0.129 0.904,-0.839 1.614,-2.583l1.809,-4.585c1.614,-4.003 3.552,-6.005 6.587,-6.005c1.872,0 5.166,0.582 5.166,4.456c0,2.002 -1.033,3.939 -3.616,4.262l-4.068,-2.712c-0.452,0.646 -0.646,1.098 -0.904,1.744l-1.679,4.391c-0.904,2.39 -2.195,2.906 -2.583,3.035l0,0.129c3.616,0.775 4.907,3.293 5.747,5.102l3.358,7.426l1.033,0.775l3.486,0.452l0,2.906l-12.14,0l0,-2.066l-3.358,-9.557c-0.581,-1.679 -1.808,-2.971 -3.681,-2.971l-1.938,0l0,10.461l0.904,0.904l3.294,0.323l0,2.906l-15.886,0l0,-2.906l0.002,0z" fill="#1F5B87" id="svg_36"/>
    <path d="m892.974,87.277c-2.712,1.55 -7.49,3.81 -13.237,3.81c-5.813,0 -9.493,-2.131 -11.753,-4.456c-1.873,-1.938 -4.326,-5.618 -4.326,-11.688c0,-5.295 1.937,-9.687 4.972,-12.592c2.002,-1.873 5.554,-4.068 11.107,-4.068c11.817,0 13.303,8.976 13.303,15.756l-21.116,0c0,5.36 1.872,11.947 10.461,11.947c2.26,0 5.812,-0.517 10.59,-3.487l0,4.778l-0.001,0zm-8.395,-16.66l0,-0.517c0,-5.295 -2.454,-8.33 -5.618,-8.33s-6.716,3.164 -6.716,8.847l12.334,0z" fill="#1F5B87" id="svg_37"/>
    <path d="m900.137,87.601l3.422,-0.323l0.904,-0.904l0,-23.183l-0.904,-0.904l-3.422,-0.323l0,-2.906l16.466,0l0,2.906l-3.293,0.323l-0.904,0.904l0,9.105l12.27,0l0,-9.105l-0.904,-0.904l-3.293,-0.323l0,-2.906l16.467,0l0,2.906l-3.423,0.323l-0.904,0.904l0,23.183l0.904,0.904l3.423,0.323l0,2.906l-16.467,0l0,-2.906l3.293,-0.323l0.904,-0.904l0,-10.461l-12.27,0l0,10.461l0.904,0.904l3.293,0.323l0,2.906l-16.466,0l0,-2.906z" fill="#1F5B87" id="svg_38"/>
    <path d="m972.067,87.601c-5.488,3.293 -10.461,3.487 -12.14,3.487c-5.489,0 -9.041,-2.195 -11.043,-4.133c-2.583,-2.518 -4.52,-6.522 -4.52,-11.752c0,-5.295 1.937,-9.557 4.972,-12.463c1.809,-1.744 5.618,-4.456 11.753,-4.456c2.842,0 5.876,0.646 8.008,2.26c2.324,1.744 2.582,3.875 2.582,4.843c0,2.712 -2.001,4.456 -4.714,4.456c-0.968,0 -2.195,-0.194 -3.745,-1.227l0,-6.845c-0.581,-0.129 -1.098,-0.194 -1.614,-0.194c-6.909,0 -8.33,9.169 -8.33,12.14c0,5.166 1.743,7.878 2.712,9.105c1.809,2.26 4.197,3.229 7.168,3.229c3.875,0 7.49,-2.066 8.911,-3.035l0,4.585z" fill="#1F5B87" id="svg_39"/>
    <path d="m977.875,87.601l3.422,-0.323l0.904,-0.904l0,-23.183l-0.904,-0.904l-3.422,-0.323l0,-2.906l16.466,0l0,2.906l-3.293,0.323l-0.904,0.904l0,9.105l3.616,0c2.066,0 3.1,-1.356 3.875,-3.164l2.066,-4.585c1.614,-3.616 3.681,-6.005 6.845,-6.005c1.614,0 5.037,0.517 5.037,4.456c0,2.002 -1.033,3.939 -3.616,4.262l-4.068,-2.712c-0.388,0.517 -0.646,1.033 -0.969,1.744l-1.938,4.391c-0.517,1.098 -1.291,2.454 -3.164,3.164l0,0.129c3.035,0.452 5.166,2.906 6.264,4.972l3.875,7.426l1.033,0.775l3.486,0.452l0,2.906l-12.398,0l0,-2.066l-3.745,-9.557c-0.581,-1.55 -2.195,-2.971 -4.326,-2.971l-1.873,0l0,10.461l0.904,0.904l3.293,0.323l0,2.906l-16.466,0l0,-2.906z" fill="#1F5B87" id="svg_40"/>
    <path d="m1045.867,62.093c2.325,2.002 5.166,5.941 5.166,12.592c0,13.044 -9.492,16.402 -16.596,16.402c-8.911,0 -16.337,-5.037 -16.337,-16.273c0,-11.817 7.942,-16.531 16.918,-16.531c4.714,0 8.332,1.614 10.849,3.81zm-17.112,3.487c-0.839,1.679 -1.743,4.392 -1.743,9.041c0,4.584 1.421,12.979 7.49,12.979c6.264,0 7.62,-8.459 7.62,-12.786c0,-3.616 -1.162,-13.044 -7.62,-13.044c-3.357,0.001 -4.972,2.325 -5.747,3.81z" fill="#1F5B87" id="svg_41"/>
    <path d="m1088.934,87.277c-2.712,1.55 -7.49,3.81 -13.237,3.81c-5.812,0 -9.493,-2.131 -11.753,-4.456c-1.873,-1.938 -4.326,-5.618 -4.326,-11.688c0,-5.295 1.937,-9.687 4.972,-12.592c2.002,-1.873 5.554,-4.068 11.107,-4.068c11.817,0 13.302,8.976 13.302,15.756l-21.115,0c0,5.36 1.872,11.947 10.461,11.947c2.26,0 5.812,-0.517 10.59,-3.487l0,4.778l-0.001,0zm-8.395,-16.66l0,-0.517c0,-5.295 -2.454,-8.33 -5.618,-8.33s-6.716,3.164 -6.716,8.847l12.334,0z" fill="#1F5B87" id="svg_42"/>
   </g>
   <g id="svg_43">
    <path d="m550.059,119.815c-1.033,7.103 -5.359,9.105 -10.01,9.815l-5.101,0.774c-5.554,0.84 -11.624,2.777 -12.205,13.044l0.129,0c2.842,-4.327 7.427,-6.91 12.593,-6.91c5.036,0 8.33,1.873 10.332,3.681c2.97,2.648 4.907,6.522 4.907,12.205c0,12.786 -9.299,16.144 -16.725,16.144c-5.683,0 -9.234,-2.131 -11.172,-3.939c-4.326,-4.003 -5.037,-9.686 -5.037,-14.529c0,-7.426 1.614,-16.531 6.135,-21.568c3.745,-4.197 8.396,-5.166 12.27,-5.683l5.102,-0.646c2.195,-0.258 4.649,-0.646 5.166,-2.389l3.616,0l0,0.001zm-21.633,23.893c-0.84,1.614 -1.743,4.197 -1.743,8.782c0,3.616 0.517,12.592 7.49,12.592c7.297,0 7.62,-9.105 7.62,-12.27c0,-5.876 -1.292,-12.786 -7.556,-12.786c-3.035,0.001 -4.778,1.745 -5.811,3.682z" fill="#1F5B87" id="svg_44"/>
    <path d="m557.803,179.16l3.487,-0.323l0.903,-0.969l0,-36.291l-4.391,0l0,-2.583l9.428,-3.035l2.906,0l0,3.875c3.938,-2.712 6.909,-4.068 10.268,-4.068c2.712,0 6.199,1.033 8.911,4.714c1.808,2.454 3.164,6.07 3.164,10.59c0,5.941 -2.195,9.751 -4.326,12.011c-2.777,2.97 -7.104,4.972 -12.657,4.972c-1.291,0 -3.293,-0.129 -5.359,-0.387l0,10.332l0.969,0.904l4.003,0.259l0,2.905l-17.306,0l0,-2.906zm12.334,-15.046c0.904,0.258 1.938,0.452 3.938,0.452c2.454,0 5.296,-0.904 7.168,-3.293c1.809,-2.26 2.583,-5.683 2.583,-9.105c0,-4.649 -1.42,-7.104 -2.453,-8.266c-1.099,-1.227 -2.971,-2.583 -6.006,-2.583c-0.646,0 -2.519,0.064 -5.23,1.227l0,21.568z" fill="#1F5B87" id="svg_45"/>
    <path d="m619.661,164.308c-3.487,2.26 -7.104,4.262 -11.043,4.262c-5.876,0 -8.588,-3.745 -8.588,-8.653c0,-5.554 4.391,-7.749 7.619,-8.912c3.229,-1.162 9.687,-2.647 12.012,-3.164l0,-1.938l0,-0.581c0,-2.195 -0.259,-6.07 -6.07,-6.07c-0.969,0 -1.873,0.129 -3.1,0.323l0,6.07l-5.941,0c-1.355,0 -2.97,-0.517 -2.97,-2.196c0,-0.969 0.258,-3.422 4.003,-5.424c3.746,-2.002 8.201,-2.26 10.72,-2.26c1.873,0 6.07,0.129 8.524,2.454c2.519,2.325 2.776,5.941 2.776,8.976l0,16.66l0.84,0.904l3.357,0.323l0,2.906l-11.3,0l-0.839,-3.68zm0,-13.174c-5.296,0.968 -10.979,2.841 -10.979,7.62c0,3.875 2.583,4.779 4.779,4.779c1.808,0 3.422,-0.646 6.199,-1.873l0,-10.526l0.001,0z" fill="#1F5B87" id="svg_46"/>
    <path d="m643.354,165.083l3.745,-0.323l0.904,-0.904l0,-23.699l-5.36,0l-0.968,1.033l-0.775,6.458l-4.391,0l0,-11.108l30.931,0l0,11.107l-4.391,0l-0.775,-6.458l-0.968,-1.033l-5.36,0l0,23.699l0.969,0.904l3.681,0.323l0,2.906l-17.241,0l0,-2.905l-0.001,0z" fill="#1F5B87" id="svg_47"/>
    <path d="m702.178,165.083c-5.488,3.293 -10.461,3.487 -12.14,3.487c-5.489,0 -9.041,-2.195 -11.043,-4.133c-2.583,-2.519 -4.52,-6.522 -4.52,-11.752c0,-5.295 1.937,-9.557 4.972,-12.463c1.809,-1.743 5.618,-4.456 11.753,-4.456c2.841,0 5.876,0.646 8.007,2.26c2.325,1.744 2.584,3.875 2.584,4.843c0,2.712 -2.002,4.456 -4.715,4.456c-0.969,0 -2.195,-0.194 -3.745,-1.227l0,-6.845c-0.581,-0.129 -1.098,-0.194 -1.614,-0.194c-6.909,0 -8.33,9.17 -8.33,12.14c0,5.166 1.743,7.878 2.712,9.105c1.809,2.26 4.197,3.229 7.168,3.229c3.874,0 7.491,-2.066 8.911,-3.035l0,4.585z" fill="#1F5B87" id="svg_48"/>
    <path d="m715.67,165.083l3.745,-0.323l0.904,-0.904l0,-23.699l-5.36,0l-0.969,1.033l-0.774,6.458l-4.392,0l0,-11.108l30.932,0l0,11.107l-4.391,0l-0.775,-6.458l-0.969,-1.033l-5.359,0l0,23.699l0.969,0.904l3.681,0.323l0,2.906l-17.242,0l0,-2.905z" fill="#1F5B87" id="svg_49"/>
    <path d="m763.838,136.54c5.295,0 7.62,1.098 8.588,1.744c2.132,1.356 2.906,3.293 2.906,5.618c0,3.81 -2.971,6.458 -6.716,7.232l0,0.129c4.004,0.388 8.395,2.002 8.395,7.62c0,8.136 -8.33,9.105 -12.851,9.105l-18.598,0l0,-2.906l3.423,-0.323l0.904,-0.904l0,-23.183l-0.904,-0.904l-3.681,-0.323l0,-2.906l18.534,0l0,0.001zm-6.006,13.238c0.711,0.064 2.066,0.129 3.294,0.129c2.26,0 6.457,-0.581 6.457,-5.102c0,-3.422 -2.776,-4.778 -5.94,-4.778c-1.163,0 -2.519,0.064 -3.811,0.258l0,9.493zm0,14.336c1.228,0.258 2.39,0.387 3.811,0.387c1.808,0 3.681,-0.193 5.102,-1.55c1.42,-1.356 1.614,-3.164 1.614,-4.197c0,-2.712 -1.55,-5.618 -6.522,-5.618c-1.679,0 -3.616,0.194 -4.004,0.259l0,10.719l-0.001,0z" fill="#1F5B87" id="svg_50"/>
    <path d="m813.038,139.575c2.325,2.002 5.166,5.941 5.166,12.592c0,13.044 -9.492,16.402 -16.596,16.402c-8.911,0 -16.337,-5.037 -16.337,-16.273c0,-11.817 7.942,-16.531 16.918,-16.531c4.715,0 8.331,1.615 10.849,3.81zm-17.112,3.488c-0.839,1.679 -1.743,4.391 -1.743,9.04c0,4.585 1.421,12.98 7.49,12.98c6.265,0 7.62,-8.459 7.62,-12.786c0,-3.616 -1.162,-13.044 -7.62,-13.044c-3.358,-0.001 -4.972,2.324 -5.747,3.81z" fill="#1F5B87" id="svg_51"/>
   </g>
  </g>
 </g>
</svg>