<?xml version="1.0" standalone="no"?>
<!DOCTYPE svg PUBLIC "-//W3C//DTD SVG 20010904//EN"
 "http://www.w3.org/TR/2001/REC-SVG-20010904/DTD/svg10.dtd">
<svg version="1.0" xmlns="http://www.w3.org/2000/svg"
 width="510.000000pt" height="510.000000pt" viewBox="0 0 510.000000 510.000000"
 preserveAspectRatio="xMidYMid meet">
<metadata>
Created by potrace 1.11, written by Peter Selinger 2001-2013
</metadata>
<g transform="translate(0.000000,510.000000) scale(0.100000,-0.100000)"
fill="#000000" stroke="none">
<path d="M744 4261 c-11 -5 -33 -24 -48 -41 -25 -31 -26 -34 -10 -51 20 -23
37 -24 53 -5 21 25 62 25 130 -1 85 -32 130 -27 177 18 41 39 42 51 9 69 -21
11 -27 11 -42 -2 -32 -28 -60 -30 -110 -8 -55 24 -128 34 -159 21z"/>
<path d="M1530 4263 c-20 -7 -80 -64 -80 -76 0 -5 10 -17 23 -27 21 -18 23
-18 42 0 34 31 58 32 131 4 91 -34 136 -29 183 21 l33 37 -21 21 c-18 18 -24
20 -39 9 -46 -33 -64 -34 -134 -7 -67 24 -106 29 -138 18z"/>
<path d="M610 3835 l0 -215 40 0 40 0 0 215 0 215 -40 0 -40 0 0 -215z"/>
<path d="M940 4034 c-87 -38 -139 -134 -125 -233 18 -131 132 -200 288 -175
35 6 37 9 37 44 l0 37 -44 -10 c-91 -21 -171 22 -185 98 -21 123 48 195 175
182 l54 -6 0 34 c0 21 -6 35 -16 39 -30 12 -149 5 -184 -10z"/>
<path d="M1290 4045 c0 -2 25 -43 56 -91 30 -47 58 -92 61 -100 3 -8 -22 -56
-56 -108 -83 -128 -82 -126 -30 -126 l44 0 54 86 53 85 50 -85 50 -86 49 0
c27 0 49 2 49 5 0 2 -30 51 -67 107 -36 57 -66 108 -66 113 0 6 24 48 54 95
30 47 58 91 63 98 5 9 -5 12 -41 12 l-48 0 -43 -75 c-24 -41 -45 -75 -47 -75
-2 0 -22 34 -45 75 l-41 75 -50 0 c-27 0 -49 -2 -49 -5z"/>
<path d="M1870 4039 c-43 -18 -90 -59 -110 -99 -24 -47 -27 -153 -6 -204 18
-43 77 -91 132 -106 40 -12 152 -8 173 4 4 3 5 20 3 39 l-4 34 -43 -10 c-57
-13 -104 -3 -145 31 -31 26 -34 34 -37 93 -3 50 0 71 15 95 29 45 82 67 152
62 l58 -4 5 30 c2 17 -1 34 -7 38 -16 11 -157 8 -186 -3z"/>
<path d="M3360 3724 c-280 -26 -450 -57 -910 -169 -516 -125 -680 -155 -965
-176 -294 -21 -662 16 -1018 101 -114 28 -108 30 -105 -42 l3 -63 120 -27
c301 -69 545 -98 815 -98 353 0 590 36 1115 167 337 84 536 127 715 155 196
30 657 33 845 5 252 -38 554 -102 763 -163 21 -6 22 -4 22 59 l0 66 -52 15
c-204 58 -488 117 -708 146 -149 20 -529 34 -640 24z"/>
<path d="M3904 3451 c-17 -10 -44 -34 -60 -53 -24 -29 -38 -36 -81 -42 l-51
-6 -7 37 c-10 65 -13 66 -93 48 -47 -11 -89 -29 -120 -50 -26 -19 -74 -48
-107 -66 -33 -17 -79 -47 -103 -66 -37 -30 -43 -39 -37 -62 11 -42 22 -49 123
-72 53 -12 106 -30 117 -40 35 -31 70 -39 131 -29 31 5 59 12 62 15 3 3 -4 16
-16 28 l-22 24 39 12 c23 6 62 9 93 5 48 -6 56 -4 83 22 l29 27 -24 11 c-34
14 -34 13 -19 29 10 10 32 13 84 10 38 -2 76 0 84 5 18 13 8 50 -23 83 -19 21
-26 40 -28 85 -2 31 -7 59 -13 61 -5 1 -24 -6 -41 -16z m34 -65 c-5 -40 -2
-48 23 -72 44 -42 39 -64 -13 -64 -49 0 -74 12 -63 29 12 20 -4 59 -26 66 -20
7 -19 9 17 46 52 53 68 52 62 -5z m-262 10 c10 -41 1 -61 -26 -58 -14 1 -56 5
-94 9 l-69 6 39 20 c33 18 111 44 136 46 4 1 10 -10 14 -23z m175 -76 c10 -6
19 -15 19 -20 0 -21 -64 -79 -121 -110 -79 -42 -148 -60 -232 -60 l-67 0 16
25 c14 22 15 30 4 53 -7 15 -12 37 -11 50 1 13 -3 29 -9 37 -18 22 26 29 139
22 53 -2 107 -1 121 3 37 12 118 12 141 0z m-425 -67 c0 -17 6 -39 14 -47 10
-13 10 -22 2 -41 -13 -29 -33 -31 -106 -12 -41 11 -49 17 -52 39 -4 38 70 99
116 95 21 -2 25 -7 26 -34z m399 -72 c19 -8 19 -8 -3 -20 -13 -7 -32 -9 -43
-6 -20 7 -20 7 -2 21 21 15 21 15 48 5z m-206 -84 c6 -8 8 -17 4 -20 -11 -11
-73 -8 -96 5 -21 12 -21 13 13 19 56 10 67 10 79 -4z"/>
<path d="M3340 3211 c0 -6 5 -13 10 -16 6 -3 10 1 10 9 0 9 -4 16 -10 16 -5 0
-10 -4 -10 -9z"/>
<path d="M2283 3139 c-108 -13 -265 -47 -338 -73 l-66 -24 -102 33 c-147 48
-239 59 -446 52 -188 -5 -318 -30 -410 -76 -47 -24 -49 -32 -21 -96 11 -26 20
-48 20 -51 0 -2 -17 -12 -38 -23 -62 -32 -65 -40 -33 -97 16 -27 55 -79 88
-114 62 -69 173 -204 173 -211 0 -3 -42 1 -92 8 -121 17 -482 27 -578 16 l-75
-8 -3 -60 -3 -60 278 0 c177 0 307 -5 358 -13 44 -7 125 -20 180 -29 71 -11
132 -29 208 -62 l109 -46 37 -115 c58 -178 109 -289 140 -304 134 -69 603
-126 791 -97 41 7 76 14 79 17 5 5 -19 108 -33 144 -6 13 11 18 101 28 59 7
136 19 170 28 l62 16 59 -35 c33 -19 81 -44 107 -56 l47 -21 60 25 c65 26 169
83 207 113 l23 19 -71 63 c-39 35 -71 67 -71 71 0 3 17 18 38 33 l38 26 101
-50 c119 -59 220 -93 354 -120 149 -31 139 -37 161 105 3 17 19 21 153 36 254
29 508 82 658 139 l57 21 0 70 c0 38 -1 69 -3 69 -2 0 -31 -11 -64 -25 -166
-67 -598 -155 -763 -155 l-38 0 -7 52 c-4 29 -15 80 -25 114 -16 61 -16 62 6
106 47 93 76 283 60 391 l-7 47 -68 0 c-37 0 -103 -9 -147 -20 -108 -27 -304
-126 -409 -204 l-86 -65 -94 6 c-52 3 -95 8 -95 10 0 2 17 38 39 81 40 80 75
180 86 243 l7 37 -59 22 c-75 29 -212 56 -342 70 -119 12 -363 11 -468 -1z
m547 -124 c143 -24 180 -35 180 -54 0 -36 -12 -39 -95 -23 -58 11 -146 16
-315 16 -210 1 -247 -2 -350 -23 l-116 -24 -54 28 c-39 20 -50 29 -39 35 21
12 212 49 304 60 110 12 370 4 485 -15z m-1277 -9 c113 -19 155 -40 185 -97
42 -78 10 -167 -81 -225 l-46 -28 2 -86 c1 -70 -3 -92 -21 -127 -72 -137 -236
-80 -424 145 -40 48 -99 113 -130 145 -32 32 -58 64 -58 70 0 7 16 24 35 40
l35 27 -20 49 -19 49 51 13 c161 38 349 48 491 25z m1217 -76 c52 -5 123 -15
157 -21 l61 -11 -10 -30 c-8 -24 -15 -28 -33 -24 -12 3 -78 11 -146 17 -140
13 -294 7 -433 -17 l-95 -16 -46 28 c-58 33 -53 37 80 58 168 27 311 32 465
16z m-848 -81 c11 -6 26 -26 34 -46 25 -58 -5 -113 -62 -113 l-32 0 15 48 c8
26 13 64 11 85 -4 39 1 43 34 26z m120 -35 c63 -33 56 -84 -12 -84 -36 0 -38
2 -42 38 -3 20 -8 45 -13 56 -7 16 -5 17 16 11 13 -4 36 -14 51 -21z m827 16
c41 -6 76 -12 78 -14 3 -2 0 -13 -6 -24 -10 -19 -18 -20 -153 -15 -101 4 -179
0 -264 -11 l-122 -16 -46 26 c-26 15 -45 29 -42 31 26 26 408 42 555 23z m941
-12 c0 -7 -3 -29 -6 -49 -6 -36 -8 -37 -68 -48 -79 -16 -208 -57 -270 -88 -42
-21 -52 -23 -77 -13 -16 7 -29 15 -29 19 0 12 102 73 194 117 132 62 256 92
256 62z m-1620 -85 c27 -34 25 -69 -5 -98 -33 -34 -95 -32 -95 2 0 8 -7 27
-15 43 -14 27 -14 29 5 35 12 4 23 18 26 35 6 26 8 28 35 18 16 -5 38 -21 49
-35z m711 -1 c-20 -38 -35 -42 -202 -44 -151 -3 -167 -1 -208 19 l-45 21 40 7
c21 3 46 8 54 10 8 1 95 3 193 4 169 1 177 0 168 -17z m-882 -37 c54 -27 64
-108 18 -140 -42 -30 -107 -12 -107 29 0 13 -8 34 -19 47 l-19 23 39 18 c22 9
39 22 39 28 0 14 16 13 49 -5z m269 -5 c51 -31 38 -57 -23 -46 -30 6 -34 10
-32 36 2 35 11 37 55 10z m1502 -4 c0 -7 -3 -27 -6 -45 -5 -26 -12 -31 -43
-36 -20 -4 -92 -17 -161 -31 -119 -23 -126 -24 -138 -7 -12 16 -6 21 55 50 76
36 223 82 266 82 16 1 27 -4 27 -13z m-1911 -60 c52 -56 15 -146 -60 -146 -63
0 -87 16 -91 62 -3 37 -1 41 32 58 20 10 42 26 49 34 19 23 44 20 70 -8z m511
9 c56 -29 28 -105 -38 -105 -12 0 -24 6 -26 13 -2 6 -8 26 -13 44 -10 28 -9
33 8 38 10 4 19 11 19 16 0 13 17 11 50 -6z m-116 -31 c51 -52 25 -124 -45
-124 -24 0 -28 5 -34 39 -4 22 -13 45 -21 52 -13 11 -11 16 13 35 37 30 55 30
87 -2z m231 -16 c32 -14 33 -46 1 -54 -31 -7 -69 13 -62 33 3 8 6 19 6 24 0
12 24 11 55 -3z m-361 -24 c45 -45 31 -105 -31 -130 -49 -21 -89 -11 -96 24
-3 15 -8 34 -12 43 -4 12 1 18 19 23 14 3 36 20 48 36 27 37 38 37 72 4z m764
-8 c4 -21 -22 -46 -48 -46 -9 0 -23 16 -32 36 l-16 35 46 -3 c37 -2 48 -7 50
-22z m83 14 c30 -16 26 -73 -7 -99 -35 -27 -48 -26 -64 4 -10 20 -11 28 -2 37
7 7 12 25 12 40 0 22 5 28 21 28 11 0 29 -5 40 -10z m140 0 c24 -13 25 -46 2
-58 -37 -19 -122 35 -96 61 10 11 72 8 94 -3z m629 3 c0 -5 -11 -26 -23 -48
-21 -37 -26 -40 -77 -47 -30 -3 -88 -6 -127 -7 l-73 -1 0 28 0 28 133 26 c146
29 167 32 167 21z m-1161 -29 c27 -35 26 -55 -3 -83 -36 -34 -78 -26 -87 16
-5 27 -3 34 13 39 11 3 24 17 30 30 14 31 22 30 47 -2z m111 8 c0 -48 -60 -58
-77 -12 l-11 30 44 0 c36 0 44 -3 44 -18z m84 5 c28 -20 18 -78 -17 -97 -26
-14 -29 -14 -47 10 -16 21 -17 27 -4 44 8 11 14 28 14 38 0 21 28 24 54 5z
m464 -9 c18 -18 15 -53 -6 -72 -18 -15 -20 -15 -37 4 -10 11 -24 20 -32 20
-15 0 -15 5 -7 38 5 17 14 22 38 22 18 0 37 -5 44 -12z m-1293 -44 c32 -34 34
-95 5 -124 -39 -39 -114 -38 -129 3 -23 61 -23 62 15 76 21 7 43 25 53 42 20
36 26 36 56 3z m499 5 c49 -39 26 -119 -36 -119 -25 0 -28 3 -28 34 0 19 -9
44 -19 57 -19 24 -19 24 7 36 38 16 46 16 76 -8z m884 -33 c6 -49 -2 -56 -40
-38 -32 16 -33 18 -21 42 7 14 13 31 13 39 0 26 45 -14 48 -43z m-240 -15 c4
-27 -20 -57 -53 -65 -17 -4 -31 0 -47 16 l-23 23 30 37 c28 34 31 36 60 24 19
-8 31 -21 33 -35z m-753 7 c20 -23 25 -38 20 -57 -11 -43 -35 -62 -74 -59 -32
3 -36 6 -41 38 -4 20 -10 41 -14 48 -4 8 1 15 16 21 13 5 30 16 37 25 19 22
26 20 56 -16z m541 -2 c13 -22 14 -29 2 -53 -17 -36 -52 -42 -69 -11 -7 13
-16 26 -22 29 -5 4 -2 17 8 33 22 33 59 34 81 2z m307 -4 c56 -49 -29 -140
-88 -94 -24 19 -24 20 -5 37 11 10 20 30 20 45 0 15 3 29 6 32 8 9 47 -3 67
-20z m-505 6 c17 -17 15 -58 -5 -80 -23 -26 -80 -24 -102 3 -17 21 -16 23 18
55 37 35 69 42 89 22z m-898 -58 c39 -94 -63 -179 -147 -124 l-26 17 30 26
c32 27 56 67 67 114 6 26 7 27 35 13 15 -8 34 -29 41 -46z m429 0 c19 -57 -14
-100 -78 -100 -26 0 -33 6 -49 43 l-19 42 27 7 c15 4 37 18 51 31 29 28 52 21
68 -23z m1500 28 c4 -13 11 -36 15 -52 l7 -28 -78 7 c-43 4 -107 12 -143 18
-54 10 -66 16 -68 33 -3 20 3 22 105 31 59 6 118 11 131 11 15 1 25 -5 31 -20z
m-930 -35 c36 -45 7 -93 -56 -93 -49 0 -62 31 -29 71 14 17 26 35 26 40 0 19
40 8 59 -18z m205 -32 c7 -26 5 -37 -11 -59 -24 -32 -63 -42 -63 -16 0 10 -9
28 -20 39 l-21 22 23 35 c22 34 24 35 53 24 20 -9 33 -23 39 -45z m294 47 c20
-20 14 -64 -13 -91 l-26 -25 -23 23 -24 24 20 40 c20 42 43 52 66 29z m-724
-43 c17 -46 -10 -85 -60 -85 -28 0 -33 4 -39 30 -4 16 -11 32 -15 35 -5 3 5
19 23 34 29 27 34 28 58 15 15 -7 29 -21 33 -29z m-519 9 c35 -38 35 -97 0
-120 -31 -20 -87 -12 -116 17 -22 22 -25 49 -5 49 20 0 76 49 76 66 0 22 18
17 45 -12z m373 -30 c27 -18 30 -69 5 -96 -19 -21 -82 -25 -87 -5 -17 54 -14
72 17 94 40 26 38 26 65 7z m657 6 c22 -8 26 -15 23 -42 -4 -41 -55 -76 -88
-58 -19 10 -19 13 -5 40 8 16 15 38 15 50 0 22 15 25 55 10z m470 -5 c50 -8
110 -15 135 -15 60 0 67 -6 75 -63 l7 -48 -38 6 c-136 23 -283 70 -299 94 -7
13 5 41 19 41 6 0 52 -7 101 -15z m-901 -17 c61 -27 31 -101 -43 -106 -32 -2
-46 1 -56 15 -12 16 -11 20 9 30 13 7 29 26 36 43 14 33 18 35 54 18z m230 -9
c17 -13 26 -30 26 -47 0 -33 -8 -45 -37 -61 -31 -16 -43 -14 -43 8 0 10 -8 29
-18 41 -17 21 -17 23 8 51 30 34 31 34 64 8z m-1009 -14 c48 -47 22 -135 -40
-135 -30 0 -76 22 -94 44 -11 13 -9 16 13 22 28 7 76 57 76 80 0 21 18 17 45
-11z m422 -7 c41 -38 21 -104 -33 -109 -47 -5 -62 1 -67 29 -3 15 -9 35 -12
45 -5 11 -2 17 7 17 8 0 23 9 34 19 25 26 43 26 71 -1z m915 5 c25 -22 23 -30
-13 -62 l-31 -28 -23 23 c-21 21 -23 28 -14 54 13 35 50 41 81 13z m417 -84
c47 -10 98 -19 114 -19 26 0 27 -2 27 -54 l0 -54 -67 13 c-38 8 -87 20 -110
29 -67 24 -223 98 -223 106 0 4 9 19 20 33 l20 26 67 -30 c36 -17 105 -39 152
-50z m-1479 41 c24 -24 26 -77 3 -102 -27 -30 -103 -22 -103 11 0 9 -5 22 -11
28 -8 8 -3 15 19 27 17 9 33 25 37 36 8 25 29 26 55 0z m628 -6 c14 -10 22
-26 22 -44 0 -36 -32 -60 -81 -60 -28 0 -38 5 -47 25 -10 21 -8 28 13 51 14
15 25 31 25 35 0 15 44 10 68 -7z m-255 -22 c43 -37 8 -102 -55 -102 -35 0
-38 2 -38 28 0 15 -5 33 -11 39 -8 8 -5 13 10 18 12 3 26 15 31 25 11 21 32
18 63 -8z m487 -11 c18 -35 11 -68 -21 -95 -37 -31 -49 -33 -49 -7 0 11 -10
32 -23 47 l-23 27 20 23 c27 30 81 33 96 5z m-1019 -12 c22 -15 29 -28 29 -53
0 -17 -5 -37 -12 -44 -18 -18 -64 -14 -110 9 l-42 21 26 14 c14 8 32 27 40 44
15 35 30 37 69 9z m1136 4 c4 -11 -4 -25 -27 -45 -19 -15 -39 -28 -46 -28 -14
0 -13 72 1 82 19 14 65 8 72 -9z m-727 -35 c13 -25 13 -31 0 -55 -12 -22 -24
-29 -55 -31 -37 -2 -41 1 -56 33 -15 32 -15 35 1 40 10 3 26 15 36 26 24 26
55 21 74 -13z m243 -6 c23 -20 22 -51 -5 -79 -27 -29 -77 -31 -101 -3 -16 19
-16 21 3 40 11 11 22 31 26 45 5 21 10 24 33 19 14 -4 34 -14 44 -22z m231 -4
c51 -23 46 -86 -8 -112 -47 -22 -56 -20 -56 11 0 14 -7 34 -16 44 -14 16 -13
19 8 42 27 29 38 31 72 15z m-629 -23 c50 -49 22 -135 -44 -135 -49 0 -61 9
-54 41 3 18 0 35 -8 46 -12 14 -12 17 1 21 8 3 23 16 35 28 26 30 40 30 70 -1z
m500 -29 c31 -13 35 -19 35 -51 0 -32 -4 -38 -35 -51 -44 -18 -65 -18 -65 0 0
8 -6 21 -14 29 -13 12 -13 19 2 50 19 41 28 43 77 23z m-639 -21 c20 -20 23
-28 14 -45 -13 -25 -24 -25 -79 0 l-44 20 24 24 c31 31 54 32 85 1z m407 -16
c41 -51 11 -99 -62 -99 -47 0 -48 0 -43 30 2 17 -1 37 -8 45 -10 13 -9 19 6
36 24 26 81 20 107 -12z m-721 -61 c4 -7 22 -50 42 -96 27 -66 31 -82 18 -78
-122 35 -118 30 -162 161 -17 49 -30 90 -30 92 0 7 126 -68 132 -79z m581 25
c21 -20 21 -27 0 -48 -12 -13 -26 -15 -56 -11 -53 9 -61 15 -44 34 8 10 17 25
21 36 5 14 12 17 34 11 15 -3 35 -14 45 -22z m251 -3 c40 -15 34 -47 -11 -59
-55 -16 -76 -14 -69 5 3 9 6 19 6 24 0 11 29 40 40 40 5 0 20 -4 34 -10z m495
-44 l33 -25 -31 -15 c-39 -20 -71 -20 -100 1 l-24 16 44 23 c24 13 44 23 45
24 0 0 15 -11 33 -24z m-1155 -105 c21 -40 35 -75 33 -78 -3 -2 -25 1 -51 8
-43 11 -47 15 -75 74 -17 35 -33 75 -37 89 l-6 26 50 -23 c45 -20 53 -29 86
-96z m50 43 c40 -14 53 -25 86 -78 l39 -61 -27 -3 c-53 -6 -77 13 -116 87 -20
39 -35 71 -33 71 2 0 25 -7 51 -16z m223 -95 c18 -24 33 -47 33 -51 0 -13 -75
-9 -92 5 -14 11 -78 101 -78 110 0 2 23 -1 52 -8 44 -10 57 -18 85 -56z m135
-8 c21 -43 16 -51 -30 -51 -33 0 -40 5 -64 44 -16 24 -28 45 -28 47 0 3 24 2
53 -1 47 -5 54 -8 69 -39z"/>
<path d="M1310 2820 c-30 -30 -27 -83 6 -109 15 -12 34 -21 44 -21 10 0 29 9
44 21 52 41 23 129 -44 129 -17 0 -39 -9 -50 -20z"/>
<path d="M4345 2915 c-61 -33 -102 -66 -136 -111 -15 -19 -54 -52 -87 -73 -76
-49 -140 -131 -102 -131 5 0 7 -6 4 -14 -8 -21 48 -36 156 -42 52 -3 111 -10
132 -16 45 -13 98 -4 133 24 l28 22 -23 18 c-18 14 -20 22 -11 31 9 9 19 8 44
-2 55 -22 73 -23 108 -5 l34 17 -23 15 c-24 16 -29 32 -9 32 6 0 34 -11 61
-25 27 -14 63 -25 79 -25 30 0 30 0 23 47 -3 26 -12 56 -20 67 -8 13 -10 29
-5 41 11 30 11 105 -1 105 -20 0 -84 -30 -115 -55 -30 -23 -35 -23 -97 -13
-60 11 -66 14 -77 42 -6 17 -19 41 -29 54 l-18 23 -49 -26z m60 -35 c8 -16 15
-33 15 -37 0 -5 -30 -14 -67 -21 -38 -6 -79 -15 -93 -19 -22 -6 -24 -5 -11 10
12 15 128 97 137 97 2 0 10 -13 19 -30z m310 -52 c-4 -18 -11 -39 -15 -47 -5
-9 0 -29 11 -50 36 -68 15 -90 -52 -55 -23 11 -29 20 -24 32 18 41 16 60 -4
74 -20 14 -20 16 -4 30 20 17 74 47 86 48 5 0 5 -15 2 -32z m-127 -51 c17 -10
32 -24 32 -32 0 -22 -48 -53 -109 -71 -31 -9 -69 -23 -86 -32 -107 -57 -140
-72 -161 -72 -21 0 -23 3 -17 30 4 22 0 36 -12 50 -10 11 -15 26 -12 33 3 8
-1 25 -10 37 -20 28 -11 36 63 61 77 25 261 23 312 -4z m-398 -72 c6 -8 9 -23
6 -33 -4 -13 -1 -22 9 -26 19 -7 20 -50 0 -66 -11 -9 -34 -10 -80 -5 -54 5
-65 10 -65 25 0 10 -5 20 -11 22 -16 5 89 98 111 98 10 0 23 -7 30 -15z m375
-65 c4 -6 -7 -10 -24 -10 -17 0 -31 5 -31 10 0 6 11 10 24 10 14 0 28 -4 31
-10z m-145 -60 c12 -7 7 -12 -21 -24 -20 -8 -46 -12 -59 -9 -22 6 -21 7 11 24
39 21 48 22 69 9z"/>
<path d="M4110 2630 c0 -5 5 -10 10 -10 6 0 10 5 10 10 0 6 -4 10 -10 10 -5 0
-10 -4 -10 -10z"/>
<path d="M4135 1985 c-68 -17 -92 -27 -152 -68 -29 -19 -69 -41 -90 -47 -83
-27 -168 -83 -156 -103 4 -7 8 -19 8 -27 0 -20 115 -76 183 -91 30 -6 70 -22
89 -35 29 -19 44 -23 72 -18 78 14 96 29 66 54 -8 7 -15 16 -15 21 0 18 43 8
72 -16 29 -24 69 -32 103 -19 14 6 14 9 0 30 -25 39 2 39 46 -1 87 -79 114
-71 115 33 0 44 6 80 18 104 27 53 17 71 -37 63 -23 -4 -60 -15 -83 -25 -35
-15 -43 -15 -60 -3 -10 7 -35 18 -55 24 -33 10 -36 15 -48 70 -6 32 -15 60
-19 62 -4 2 -29 -1 -57 -8z m51 -67 l6 -36 -43 9 c-24 4 -66 8 -94 9 -49 0
-49 0 -26 16 32 23 134 54 144 45 4 -4 10 -24 13 -43z m7 -63 c96 -25 167 -68
167 -101 0 -24 -63 -44 -137 -44 -41 -1 -90 -8 -123 -20 -30 -11 -79 -19 -108
-20 -53 0 -53 0 -38 22 16 23 21 60 10 71 -3 3 -7 26 -8 51 -1 33 2 46 14 50
37 10 171 5 223 -9z m-259 -31 c3 -8 2 -23 -4 -33 -6 -12 -5 -22 1 -28 15 -15
7 -54 -13 -67 -14 -8 -31 -6 -75 10 -45 16 -58 26 -64 47 -6 22 -2 30 21 47
57 41 123 53 134 24z m546 9 c0 -5 -9 -23 -20 -40 -16 -27 -19 -43 -13 -93 3
-33 2 -60 -3 -60 -16 0 -75 40 -80 55 -3 8 1 22 10 30 18 18 21 51 6 60 -18
11 -10 26 23 40 35 15 77 19 77 8z m-205 -163 c8 -13 -25 -13 -45 0 -12 8 -9
10 12 10 15 0 30 -4 33 -10z m-156 -24 c21 -25 -42 -36 -82 -14 -21 12 -21 13
13 19 55 10 57 10 69 -5z"/>
<path d="M3836 1772 c-3 -6 -1 -14 5 -17 15 -10 25 3 12 16 -7 7 -13 7 -17 1z"/>
<path d="M3389 1715 c-19 -14 -45 -38 -59 -54 -19 -23 -37 -31 -77 -36 -52 -7
-53 -6 -53 18 0 14 -4 37 -10 52 -9 24 -13 25 -47 19 -62 -11 -138 -43 -184
-76 -24 -18 -69 -44 -99 -60 -68 -34 -141 -105 -121 -117 7 -5 10 -14 7 -20
-9 -15 44 -37 137 -58 40 -9 86 -26 102 -38 44 -32 58 -35 121 -25 68 11 72
14 51 38 -10 10 -17 21 -17 24 0 15 69 28 120 22 47 -5 59 -3 83 16 34 27 34
38 2 46 -24 6 -25 8 -10 24 13 15 27 17 75 13 32 -3 70 -3 85 1 21 5 25 11 19
29 -3 12 -18 38 -33 57 -14 19 -24 41 -23 49 7 28 -9 101 -22 101 -7 0 -28
-11 -47 -25z m41 -61 c0 -37 6 -53 30 -81 17 -19 28 -38 25 -44 -7 -11 -85
-12 -102 -1 -8 5 -9 13 -3 22 14 22 12 29 -17 56 l-28 26 37 34 c21 19 42 34
48 34 5 0 10 -21 10 -46z m-265 -10 c0 -33 -3 -39 -20 -36 -11 1 -51 5 -88 9
-46 4 -65 9 -58 16 13 13 143 57 156 53 6 -1 10 -20 10 -42z m176 -54 c28 -15
24 -32 -18 -71 -80 -75 -191 -119 -302 -119 l-71 0 11 24 c7 15 8 36 4 53 -5
15 -9 39 -11 53 -1 14 -3 32 -5 40 -3 12 10 16 69 18 40 2 87 -1 105 -6 21 -5
46 -4 72 4 50 16 120 17 146 4z m-416 -50 c4 -12 2 -27 -4 -34 -9 -10 -8 -15
4 -20 21 -8 16 -55 -6 -69 -12 -8 -34 -7 -74 2 -45 10 -58 18 -66 38 -12 31
-7 38 49 74 54 34 88 37 97 9z m390 -107 c-22 -15 -41 -17 -50 -4 -8 14 24 29
48 23 19 -5 19 -6 2 -19z m-196 -67 c9 -11 8 -15 -5 -20 -27 -10 -78 -6 -97 9
-18 13 -16 14 15 18 65 8 76 7 87 -7z"/>
<path d="M2835 1481 c-6 -11 9 -23 19 -14 9 9 7 23 -3 23 -6 0 -12 -4 -16 -9z"/>
<path d="M360 1567 l0 -67 88 0 c97 0 292 -21 422 -45 131 -25 292 -67 570
-150 535 -159 752 -202 1143 -225 129 -8 244 -8 404 0 612 29 1137 147 1696
380 l77 32 0 69 c0 38 -3 69 -7 69 -3 0 -63 -24 -132 -54 -726 -311 -1634
-440 -2356 -335 -241 35 -419 78 -851 208 -406 121 -637 167 -901 178 l-153 6
0 -66z"/>
<path d="M4268 1091 c-25 -16 -54 -43 -64 -60 -17 -28 -23 -31 -69 -31 l-51 0
-12 45 c-11 40 -15 45 -40 45 -48 0 -128 -29 -179 -64 -26 -19 -76 -49 -109
-66 -83 -42 -134 -96 -127 -132 3 -16 15 -30 32 -37 37 -15 142 -41 164 -41
11 0 35 -14 55 -31 33 -30 39 -31 92 -26 31 4 64 9 74 13 15 6 15 9 1 30 -8
13 -15 25 -15 27 0 2 17 9 38 16 29 10 48 10 80 2 45 -13 64 -7 96 28 18 20
18 21 -8 32 -24 11 -25 14 -11 29 13 15 23 16 59 8 58 -12 110 1 114 29 2 12
-9 35 -27 56 -27 30 -31 42 -31 90 0 31 -4 58 -9 61 -4 3 -28 -8 -53 -23z m39
-56 c-4 -41 -1 -49 24 -75 46 -45 39 -62 -23 -58 l-53 3 3 32 c3 24 -2 35 -17
45 -29 18 -26 31 14 67 49 43 59 40 52 -14z m-263 9 c3 -9 6 -27 6 -41 0 -24
-2 -25 -37 -19 -21 4 -62 9 -91 13 -60 7 -58 15 14 43 61 24 100 25 108 4z
m163 -70 c35 -10 35 -32 -2 -73 -67 -74 -269 -147 -351 -127 -21 6 -22 9 -12
31 8 19 8 31 0 50 -7 14 -12 39 -12 55 0 16 -5 32 -12 36 -33 20 108 32 170
14 24 -6 49 -5 85 5 57 15 100 18 134 9z m-408 -51 c5 -11 6 -24 0 -34 -6 -12
-4 -21 6 -29 22 -18 18 -47 -7 -64 -20 -13 -30 -13 -80 1 -44 12 -58 21 -58
35 0 10 -5 18 -11 18 -18 0 7 26 59 60 52 34 77 38 91 13z m399 -105 c-5 -15
-58 -24 -58 -10 0 15 12 22 38 22 14 0 22 -5 20 -12z m-198 -89 c0 -15 -96
-10 -110 5 -10 13 -4 15 37 18 47 3 73 -5 73 -23z"/>
<path d="M3716 861 c-4 -7 -5 -15 -2 -18 9 -9 19 4 14 18 -4 11 -6 11 -12 0z"/>
</g>
</svg>
